<svg width="500" height="500" viewBox="0 0 500 500" xmlns="http://www.w3.org/2000/svg">
    <g fill="none" fill-rule="evenodd">
        <path d="M249.868 498.817c-33.607 0-66.21-6.583-96.902-19.564-29.645-12.539-56.269-30.49-79.131-53.352-22.863-22.863-40.813-49.486-53.352-79.13C7.501 316.077.92 283.474.92 249.867s6.582-66.21 19.564-96.902c12.539-29.645 30.49-56.268 53.352-79.131 22.863-22.863 49.486-40.813 79.13-53.352C183.659 7.501 216.262.92 249.869.92c33.608 0 66.21 6.582 96.903 19.564 29.644 12.539 56.268 30.49 79.13 53.352 22.863 22.862 40.813 49.486 53.352 79.13 12.982 30.693 19.564 63.295 19.564 96.903 0 33.607-6.582 66.21-19.564 96.902-12.539 29.645-30.489 56.268-53.352 79.13-22.862 22.863-49.486 40.814-79.13 53.352-30.692 12.982-63.295 19.565-96.903 19.565z" fill="#FFF"/>
        <path d="M249.868 1.838c136.983 0 248.03 111.048 248.03 248.03 0 136.983-111.047 248.03-248.03 248.03-136.982 0-248.03-111.047-248.03-248.03 0-136.982 111.048-248.03 248.03-248.03zm0-1.838c-33.73 0-66.454 6.607-97.26 19.637a249.902 249.902 0 0 0-42.444 23.038 251.648 251.648 0 0 0-36.98 30.51 251.629 251.629 0 0 0-30.509 36.979 249.874 249.874 0 0 0-23.038 42.444C6.607 183.414 0 216.138 0 249.868c0 33.731 6.607 66.454 19.637 97.26a249.888 249.888 0 0 0 23.038 42.445 251.645 251.645 0 0 0 30.51 36.978 251.648 251.648 0 0 0 36.979 30.51 249.846 249.846 0 0 0 42.444 23.038c30.806 13.03 63.53 19.637 97.26 19.637 33.732 0 66.455-6.607 97.261-19.637a249.87 249.87 0 0 0 42.444-23.038 251.645 251.645 0 0 0 36.978-30.51 251.645 251.645 0 0 0 30.51-36.978 249.86 249.86 0 0 0 23.038-42.445c13.03-30.806 19.637-63.529 19.637-97.26 0-33.73-6.607-66.454-19.637-97.26a249.874 249.874 0 0 0-23.038-42.444 251.648 251.648 0 0 0-30.51-36.98 251.645 251.645 0 0 0-36.978-30.509 249.898 249.898 0 0 0-42.444-23.038C316.323 6.607 283.599 0 249.869 0z" fill="#212121"/>
        <path d="M249.868 454.51c-27.628 0-54.428-5.41-79.656-16.08-24.369-10.308-46.254-25.063-65.048-43.857-18.795-18.794-33.55-40.68-43.857-65.048-10.671-25.229-16.082-52.029-16.082-79.656 0-27.627 5.411-54.427 16.082-79.657 10.307-24.368 25.062-46.254 43.857-65.048 18.794-18.795 40.679-33.55 65.048-43.857 25.228-10.671 52.029-16.082 79.656-16.082 27.626 0 54.426 5.41 79.656 16.082 24.368 10.307 46.254 25.062 65.048 43.857 18.794 18.794 33.55 40.68 43.857 65.048 10.671 25.23 16.082 52.03 16.082 79.657 0 27.627-5.411 54.427-16.082 79.656-10.307 24.368-25.063 46.254-43.857 65.048-18.794 18.794-40.68 33.55-65.048 43.856-25.23 10.671-52.03 16.082-79.656 16.082z" fill="#FFF"/>
        <path d="M249.868 46.144c27.503 0 54.182 5.387 79.297 16.01a203.72 203.72 0 0 1 34.605 18.782 205.21 205.21 0 0 1 30.152 24.878 205.225 205.225 0 0 1 24.878 30.151 203.775 203.775 0 0 1 18.783 34.605c10.623 25.115 16.009 51.795 16.009 79.299 0 27.503-5.386 54.182-16.01 79.297a203.758 203.758 0 0 1-18.782 34.605 205.225 205.225 0 0 1-24.878 30.151A205.183 205.183 0 0 1 363.77 418.8a203.72 203.72 0 0 1-34.605 18.782c-25.115 10.623-51.794 16.01-79.297 16.01-27.504 0-54.183-5.387-79.298-16.01a203.748 203.748 0 0 1-34.605-18.782 205.2 205.2 0 0 1-30.152-24.878 205.202 205.202 0 0 1-24.877-30.151 203.73 203.73 0 0 1-18.783-34.605c-10.623-25.115-16.009-51.794-16.009-79.297 0-27.504 5.386-54.184 16.009-79.299a203.748 203.748 0 0 1 18.783-34.605 205.183 205.183 0 0 1 24.877-30.151 205.183 205.183 0 0 1 30.152-24.878 203.72 203.72 0 0 1 34.605-18.783c25.115-10.622 51.794-16.009 79.298-16.009zm0-1.838c-113.529 0-205.561 92.033-205.561 205.563 0 113.528 92.032 205.56 205.56 205.56 113.529 0 205.563-92.032 205.563-205.56 0-113.53-92.034-205.563-205.562-205.563z" fill="#212121"/>
        <path d="M186.582 188.434c3.757-2.165 8.104-.786 11.03 1.977 2.847 2.688 5.78 5.29 8.72 7.876a588.578 588.578 0 0 0 4.697 4.088l.921.788c.107.091.209.177.286.245.858.726 1.717 1.453 2.578 2.175a621.893 621.893 0 0 0 13.052 10.67 604.392 604.392 0 0 0 23.274 17.64 14.627 14.627 0 0 1 1.866-.295c-.824.07-2.307.194-1.483.123.616-.055 1.233-.11 1.848-.168a400.75 400.75 0 0 0 6.556-.665 548.771 548.771 0 0 0 22.678-2.949c10.088-1.53 20.143-3.31 30.112-5.49 5.224-1.142 10.43-2.373 15.597-3.756a276.366 276.366 0 0 0 7.701-2.166c3.263-.975 6.746-1.809 9.797.45 17.29 12.798 36.471 23.459 55.685 33.015 1.189.592 2.38 1.18 3.573 1.762l1.093.53a444.203 444.203 0 0 0 6.904 3.229 443.184 443.184 0 0 0 14.265 6.23 462.34 462.34 0 0 0 7.165 2.901c.966-10.773 1-21.78.023-32.931C425.598 131.73 335.693 56.29 233.711 65.214c-96.604 8.451-169.389 89.573-169.212 184.79a1231.046 1231.046 0 0 0 122.083-61.57z" fill="#2196F3"/>
        <path d="M389.472 266.355c-17.295-8.733-34.625-18.296-50.429-29.638-18.119 5.315-36.762 8.865-55.431 11.571-3.112.45-6.227.876-9.347 1.28.996.632 1.99 1.26 2.99 1.883 9.315 5.81 18.844 11.298 28.665 16.207.78.39 1.56.779 2.341 1.16a206.192 206.192 0 0 0 3.725 1.756 236.982 236.982 0 0 0 7.053 3.11 205.013 205.013 0 0 0 14.65 5.529 9.047 9.047 0 0 1 3.18 1.851c-43.215-1.8-86.28-26.154-95.788-31.845-17.856-12.801-35.282-26.54-51.533-41.369a1199.144 1199.144 0 0 1-30.738 16.943 1235.376 1235.376 0 0 1-93.256 44.709c10.639 100.21 99.65 173.84 200.468 165.02 84.326-7.378 150.503-70.126 165.845-149.286-14.438-5.564-28.585-11.91-42.395-18.88z" fill="#8BC34A"/>
        <path d="M345.814 33.125l-1.763 20.35 15.045-13.96 2.75 1.322-9.445 19.634-1.87-.9 8.162-16.966-.055-.026-14.87 13.739-1.76-.847 1.699-20.075-.055-.026-8.162 16.966-1.87-.9 9.445-19.633zm39.918 30.558a10.745 10.745 0 0 1 3.757-1.63c1.32-.286 2.68-.27 4.077.05 1.397.32 2.764 1.011 4.1 2.076 1.337 1.065 2.313 2.24 2.928 3.524.616 1.284.931 2.601.947 3.953a10.748 10.748 0 0 1-.75 4.026 14.29 14.29 0 0 1-2.18 3.764c-.939 1.178-2 2.166-3.182 2.966-1.184.8-2.433 1.34-3.748 1.618-1.314.278-2.667.262-4.055-.052-1.389-.314-2.752-1.003-4.089-2.067-1.336-1.065-2.316-2.243-2.94-3.533-.623-1.29-.946-2.607-.968-3.951-.021-1.344.225-2.682.74-4.014a14.301 14.301 0 0 1 2.181-3.764 14.303 14.303 0 0 1 3.182-2.966zm-3.367 7.286a9.376 9.376 0 0 0-.775 3.324 7.366 7.366 0 0 0 .634 3.294c.469 1.076 1.268 2.064 2.397 2.964 1.13.9 2.268 1.455 3.414 1.666a7.424 7.424 0 0 0 3.34-.128 9.394 9.394 0 0 0 3.066-1.497 13.153 13.153 0 0 0 2.547-2.438 13.095 13.095 0 0 0 1.817-3.04 9.418 9.418 0 0 0 .766-3.311 7.428 7.428 0 0 0-.621-3.285c-.462-1.07-1.257-2.054-2.386-2.954-1.13-.9-2.272-1.459-3.425-1.676a7.376 7.376 0 0 0-3.353.119 9.39 9.39 0 0 0-3.056 1.485 13.07 13.07 0 0 0-2.557 2.45 13.12 13.12 0 0 0-1.808 3.027zm47.109 24.343l-10.453 8.524c-.977.797-1.72 1.585-2.225 2.366-.506.78-.802 1.56-.888 2.338-.087.78.023 1.557.327 2.333.304.776.772 1.55 1.401 2.322.643.788 1.313 1.41 2.013 1.863a4.831 4.831 0 0 0 2.218.79c.78.072 1.604-.062 2.47-.4.865-.338 1.787-.906 2.765-1.703l10.452-8.524 1.312 1.608-10.808 8.813a10.6 10.6 0 0 1-2.77 1.648 6.994 6.994 0 0 1-2.99.51c-1.015-.053-2.029-.354-3.042-.906-1.014-.551-2.003-1.418-2.967-2.6-.952-1.167-1.595-2.302-1.931-3.406-.337-1.104-.428-2.158-.276-3.162a6.984 6.984 0 0 1 1.101-2.827 10.601 10.601 0 0 1 2.172-2.382l10.807-8.813 1.312 1.608zm28.656 41.468l-10.648 19.684.028.054 16.417-8.376.943 1.848-19.407 9.902-1.054-2.066 10.648-19.684-.028-.054-16.417 8.377-.943-1.849 19.407-9.902zm22.509 58.81l-1.707.466-2.004-7.329-19.31 5.28-.546-2.001 19.309-5.28-1.996-7.3 1.707-.466zm5.475 37.026l-21.063 10.202-.172-2.221 6.549-3.17-.766-9.888-6.957-2.093-.17-2.19 22.4 7.048.179 2.312zm-12.976 3.974l10.81-5.061-11.472-3.488.662 8.55zm12.398 37.218l-21.688-2.084.198-2.066 21.688 2.084zm-6.097 34.923l-21.2 7.172-.017.058 17.73 5.04-.568 1.995-20.958-5.957.635-2.23 21.2-7.171.016-.059-17.729-5.04.567-1.995 20.958 5.956zM84.494 398.192a10.755 10.755 0 0 1 3.93-1.155c1.345-.122 2.691.062 4.039.551 1.347.49 2.618 1.345 3.813 2.566 1.195 1.222 2.019 2.507 2.472 3.857.453 1.35.603 2.697.452 4.04a10.744 10.744 0 0 1-1.24 3.903 14.295 14.295 0 0 1-2.627 3.467 14.29 14.29 0 0 1-3.524 2.551c-1.273.648-2.579 1.03-3.918 1.144-1.339.115-2.679-.069-4.018-.55-1.34-.483-2.608-1.334-3.803-2.556-1.195-1.221-2.023-2.51-2.483-3.868-.46-1.357-.618-2.704-.473-4.04.144-1.337.553-2.633 1.229-3.892a14.312 14.312 0 0 1 2.627-3.468 14.31 14.31 0 0 1 3.524-2.55zm-4.24 6.816a9.37 9.37 0 0 0-1.178 3.202 7.377 7.377 0 0 0 .223 3.347c.333 1.126 1.004 2.205 2.014 3.237 1.01 1.032 2.07 1.724 3.182 2.074 1.11.35 2.22.445 3.33.285a9.382 9.382 0 0 0 3.228-1.11 13.138 13.138 0 0 0 2.828-2.105c.858-.84 1.583-1.77 2.177-2.792a9.41 9.41 0 0 0 1.168-3.192 7.426 7.426 0 0 0-.212-3.336c-.326-1.118-.994-2.194-2.004-3.226-1.01-1.033-2.074-1.727-3.192-2.085a7.37 7.37 0 0 0-3.342-.295 9.39 9.39 0 0 0-3.216 1.098 13.164 13.164 0 0 0-5.005 4.899zm49.488 23.728l-7.195 11.407c-.673 1.067-1.125 2.05-1.356 2.95-.231.901-.264 1.735-.098 2.501a4.839 4.839 0 0 0 1.053 2.107c.535.638 1.224 1.223 2.068 1.755.86.543 1.693.918 2.5 1.125a4.835 4.835 0 0 0 2.355.043c.763-.18 1.5-.57 2.213-1.166.713-.597 1.406-1.427 2.079-2.494l7.195-11.409 1.755 1.107-7.44 11.795a10.601 10.601 0 0 1-2.1 2.445 6.992 6.992 0 0 1-2.673 1.435c-.979.273-2.036.31-3.172.11-1.137-.2-2.35-.707-3.641-1.52-1.274-.804-2.245-1.675-2.915-2.615-.67-.94-1.093-1.91-1.267-2.91-.176-1-.128-2.01.143-3.03a10.61 10.61 0 0 1 1.301-2.948l7.439-11.796 1.756 1.108zm56.236 27.024l-.592 1.668-7.16-2.54-6.694 18.864-1.956-.694 6.694-18.865-7.132-2.53.592-1.669zm39.768 8.126c.889.108 1.718.32 2.49.64a6.166 6.166 0 0 1 1.968 1.267c.54.526.944 1.17 1.211 1.93.267.759.342 1.623.224 2.593-.165 1.373-.663 2.521-1.492 3.446-.83.925-1.957 1.444-3.385 1.558l-.008.06c.695.188 1.258.445 1.69.774.431.329.768.723 1.01 1.182.24.46.394.975.458 1.546.064.572.077 1.183.04 1.834-.024.366-.058.813-.1 1.34a21.166 21.166 0 0 0-.071 1.605c-.005.543.03 1.06.104 1.55s.206.88.397 1.17l-2.272-.275a2.652 2.652 0 0 1-.199-.777c-.035-.3-.049-.61-.041-.926.008-.317.019-.628.036-.934.016-.305.027-.57.034-.795.053-.772.08-1.542.08-2.31a6.32 6.32 0 0 0-.33-2.1 3.61 3.61 0 0 0-1.098-1.593c-.512-.43-1.254-.684-2.23-.76l-7.815-.945-1.16 9.603-2.06-.249 2.613-21.63 9.906 1.196zm-1.392 10.252a5.573 5.573 0 0 0 1.822-.072 4.492 4.492 0 0 0 1.585-.654c.468-.312.86-.71 1.174-1.195.314-.484.512-1.06.593-1.726.161-1.333-.096-2.429-.77-3.29-.676-.86-1.8-1.385-3.376-1.575l-7.695-.93-1.029 8.512 7.696.93zm55.288-10.81l.176 1.762-12.905 1.286.781 7.835 12.085-1.205.176 1.76-12.085 1.205.853 8.563 13.057-1.302.176 1.762-15.122 1.507-2.161-21.68zm39.197-9.393l14.96 17.997-2.114.7-4.65-5.596-9.414 3.118-.362 7.256-2.085.69 1.463-23.436 2.202-.729zm6.973 11.642l-7.51-9.278-.63 11.974 8.14-2.696zm44.03-31.522a6.14 6.14 0 0 0-2.17-.623 6.807 6.807 0 0 0-2.225.163 7.332 7.332 0 0 0-2.122.886c-1.233.754-2.148 1.635-2.747 2.644a7.382 7.382 0 0 0-1.035 3.192 9.39 9.39 0 0 0 .35 3.38 13.083 13.083 0 0 0 1.427 3.24 13.133 13.133 0 0 0 2.226 2.734 9.365 9.365 0 0 0 2.857 1.866 7.359 7.359 0 0 0 3.312.532c1.172-.073 2.374-.486 3.606-1.239.868-.53 1.554-1.164 2.057-1.901a6.511 6.511 0 0 0 1.016-2.374 7.67 7.67 0 0 0 .07-2.636 9.235 9.235 0 0 0-.826-2.696l1.77-1.082c.579 1.22.942 2.417 1.087 3.591.146 1.175.086 2.285-.181 3.33a8.045 8.045 0 0 1-1.423 2.909c-.682.894-1.57 1.675-2.662 2.344-1.458.89-2.9 1.409-4.326 1.553-1.426.145-2.774-.003-4.044-.442-1.27-.44-2.443-1.129-3.518-2.069a14.313 14.313 0 0 1-2.791-3.337 14.296 14.296 0 0 1-1.698-4.005 10.745 10.745 0 0 1-.246-4.088c.183-1.34.663-2.61 1.441-3.814.779-1.203 1.897-2.25 3.355-3.142a10.225 10.225 0 0 1 2.829-1.193c1.001-.254 2-.335 3-.242a7.924 7.924 0 0 1 2.871.837c.916.465 1.733 1.146 2.448 2.044l-1.77 1.082a6.977 6.977 0 0 0-1.938-1.444zm27.048-26.705l6.66 6.717 9.188-9.11-6.66-6.717 1.473-1.461 15.34 15.472-1.473 1.46-7.434-7.497-9.188 9.11 7.434 7.497-1.473 1.461-15.34-15.472zM24.825 308.898a6.146 6.146 0 0 0-1.17 1.93 6.807 6.807 0 0 0-.424 2.19 7.332 7.332 0 0 0 .3 2.281c.404 1.387 1.015 2.501 1.833 3.343a7.367 7.367 0 0 0 2.809 1.834 9.395 9.395 0 0 0 3.354.548 13.101 13.101 0 0 0 3.5-.53 13.132 13.132 0 0 0 3.223-1.433 9.379 9.379 0 0 0 2.548-2.269 7.379 7.379 0 0 0 1.38-3.057c.237-1.15.153-2.418-.252-3.804-.285-.977-.717-1.804-1.297-2.484a6.509 6.509 0 0 0-2.025-1.601 7.686 7.686 0 0 0-2.526-.757 9.246 9.246 0 0 0-2.818.09l-.581-1.991c1.328-.24 2.58-.276 3.75-.11 1.172.167 2.228.516 3.167 1.048a8.03 8.03 0 0 1 2.435 2.134c.684.892 1.205 1.953 1.565 3.183.479 1.64.601 3.167.367 4.581-.233 1.415-.728 2.676-1.485 3.787-.757 1.111-1.73 2.063-2.918 2.855a14.3 14.3 0 0 1-3.95 1.82 14.312 14.312 0 0 1-4.31.59 10.74 10.74 0 0 1-4.01-.832c-1.246-.526-2.346-1.322-3.304-2.388-.958-1.067-1.676-2.42-2.155-4.06-.29-.996-.427-2.01-.41-3.043.016-1.033.2-2.019.55-2.959.351-.94.871-1.79 1.56-2.552.688-.763 1.56-1.373 2.613-1.829l.581 1.992a6.988 6.988 0 0 0-1.9 1.493zm-11.246-42.412l21.089-10.146.166 2.222-6.557 3.152.74 9.89 6.95 2.111.164 2.191-22.38-7.108-.172-2.312zm12.985-3.94l-10.823 5.033 11.463 3.518-.64-8.55zM15.25 217.097a9.459 9.459 0 0 1 .66-2.483 6.165 6.165 0 0 1 1.286-1.956 4.935 4.935 0 0 1 1.94-1.194c.761-.26 1.626-.328 2.595-.201 1.372.177 2.516.686 3.433 1.523.917.837 1.427 1.97 1.528 3.398l.06.008c.193-.693.455-1.253.788-1.682a3.56 3.56 0 0 1 1.192-1 4.349 4.349 0 0 1 1.55-.445 10.875 10.875 0 0 1 1.834-.023c.366.027.812.065 1.34.113a21.3 21.3 0 0 0 1.604.085 9.866 9.866 0 0 0 1.55-.09c.491-.07.882-.199 1.173-.387l-.295 2.27a2.666 2.666 0 0 1-.778.191 6.46 6.46 0 0 1-.928.033c-.316-.01-.627-.024-.932-.044a34.53 34.53 0 0 0-.795-.041 34.781 34.781 0 0 0-2.31-.1c-.769-.008-1.469.096-2.102.311a3.602 3.602 0 0 0-1.603 1.085c-.435.507-.695 1.248-.78 2.221l-1.015 7.807 9.592 1.247-.267 2.058-21.606-2.808 1.286-9.896zm10.238 1.485a5.553 5.553 0 0 0-.055-1.823 4.48 4.48 0 0 0-.64-1.591 4.12 4.12 0 0 0-1.184-1.185c-.482-.319-1.056-.522-1.722-.608-1.331-.173-2.43.074-3.296.741-.866.667-1.402 1.787-1.606 3.361l-.999 7.686 8.504 1.105.998-7.686zm1.498-49.085c.322-.922.744-1.712 1.265-2.37a5.595 5.595 0 0 1 1.827-1.526 5.399 5.399 0 0 1 2.291-.589c.831-.033 1.707.112 2.628.435.922.322 1.697.755 2.326 1.298a5.392 5.392 0 0 1 1.425 1.889 5.6 5.6 0 0 1 .477 2.333c-.003.84-.165 1.72-.488 2.641l-2.509 7.173 8.814 3.083-.685 1.959-20.565-7.195 3.194-9.13zm9.93 3.959c.477-1.364.517-2.589.121-3.675-.395-1.087-1.303-1.879-2.724-2.376-1.421-.497-2.626-.444-3.612.159-.987.603-1.719 1.586-2.196 2.95l-2.358 6.74 8.411 2.942 2.358-6.74zm9.201-44.444l23.115 3.661-1.128 1.921-7.186-1.14-5.02 8.553 4.513 5.692-1.112 1.895-14.356-18.582 1.174-2zm12.92 4.152l-11.763-2.022 7.422 9.416 4.34-7.394zM77.323 87.37l1.331 1.165-5.006 5.716 15.058 13.19-1.367 1.56-15.058-13.19-4.987 5.693-1.33-1.166zm24.364-22.41l5.717 7.536 10.308-7.819-5.717-7.537 1.654-1.254 13.167 17.359-1.654 1.254-6.38-8.412-10.308 7.82 6.38 8.411-1.653 1.254-13.167-17.358zm42.281-27.016l9.839 19.44-1.851.937-9.84-19.44zm38.836-15.307l14.455 18.405-2.133.641-4.493-5.723-9.497 2.856-.563 7.243-2.104.632 2.114-23.386 2.221-.668zm6.648 11.83l-7.249-9.483-.963 11.952 8.212-2.469zm34.387-20.127l14.172 17.32.061-.006-1.522-18.368 2.068-.17 1.799 21.712-2.311.192-14.173-17.32-.06.005 1.521 18.368-2.068.171-1.798-21.713z" fill="#000"/>
    </g>
</svg>
