<svg width="200" height="532" viewBox="0 0 200 532" xmlns="http://www.w3.org/2000/svg" xmlns:xlink="http://www.w3.org/1999/xlink">
    <title>
        God&apos;s Standard
    </title>
    <defs>
        <path id="a" d="M0 425.575h23.824V1.055H0z"/>
    </defs>
    <g fill="none" fill-rule="evenodd">
        <path d="M196.314 408.586c-2.493-2.617-28.056-42.988-41.087-46.655-2.451-.691-4.936-1.123-7.355-1.366 8.212-2.518 14.224-10.444 14.224-19.851 0-11.443-8.872-20.714-19.795-20.714-10.922 0-19.796 9.271-19.796 20.714 0 9.213 5.765 17.007 13.716 19.692-2.762.218-5.624.655-8.445 1.45-13.034 3.668-38.595 44.04-41.088 46.656-2.52 2.617-7.014 17.827 7.517 9.44 14.52-8.394 29.05-30.935 29.05-30.935s9.03-10.484-4.508 66.046c-13.523 76.552-11.02 64.497-11.02 64.497s-3.068 30.084 17.544 3.144c1.016-1.337 11.507-52.417 16.225-83.874 4.708 31.45 15.216 82.616 16.235 83.959 20.611 26.942 17.543-3.14 17.543-3.14s2.503 12.055-11.02-64.495c-13.537-76.547-4.508-66.06-4.508-66.06s14.532 22.532 29.05 30.944c14.532 8.388 10.034-6.834 7.518-9.452" fill="#212121"/>
        <path fill="#D8D8D8" d="M0 87h60v445H0z"/>
        <g transform="translate(0 96.541)">
            <path d="M12.14 18.572v-3.384h1.416v.28l.04.787c.05 1.173.79 1.759 2.224 1.759 2.206 0 3.31-1.363 3.31-4.088 0-3.117-1.728-4.676-5.182-4.676-.358 0-.843.03-1.458.092V1.054h10.165V4.16h-8.748V8.12h.394c5.804 0 8.705 1.863 8.705 5.588 0 1.656-.63 2.975-1.891 3.957-1.262.984-2.955 1.474-5.078 1.474-1.048 0-2.347-.188-3.898-.568z" fill="#212121"/>
            <mask id="b" fill="#fff">
                <use xlink:href="#a"/>
            </mask>
            <path fill="#212121" mask="url(#b)" d="M0 37.089h8.82v-1.77H0zM0 62.517h8.82v-1.77H0zM0 87.946h8.82v-1.77H0zM0 113.374h8.82v-1.77H0zM13.023 112.66h5.506v-7.502l-5.506 7.502zm5.506 2.825h-7.237v-2.37l7.906-10.772h2.434v10.317h2.191v2.825h-2.191v1.416l.05 1.378c0 .385.057.639.172.759.113.122.595.208 1.442.265v1.127h-6.43v-1.127c.86-.062 1.344-.155 1.451-.28.108-.124.161-.372.161-.744l.051-1.378v-1.416zM0 138.803h8.82v-1.77H0zM0 164.231h8.82v-1.769H0zM0 189.66h8.82v-1.77H0zM0 215.089h8.82v-1.77H0zM12.005 221.928v-3.312h1.417v.28l.04.672c.07 1.249.983 1.874 2.741 1.874 2.24 0 3.36-1.28 3.36-3.84 0-2.847-1.66-4.273-4.984-4.273h-.806v-1.128h.621c3.157 0 4.735-1.18 4.735-3.539 0-2.317-.985-3.475-2.952-3.475-1.012 0-1.7.2-2.063.595-.366.397-.547 1.143-.547 2.24h-1.418v-3.178c1.606-.524 3.2-.785 4.778-.785 3.937 0 5.904 1.382 5.904 4.148 0 2.195-1.344 3.674-4.032 4.44 3.095.628 4.641 2.231 4.641 4.811 0 1.545-.607 2.783-1.825 3.714-1.216.932-2.84 1.397-4.874 1.397-1.833 0-3.413-.214-4.736-.641M0 240.517h8.82v-1.77H0zM0 265.948h8.82v-1.77H0zM0 291.376h8.82v-1.77H0zM0 316.801h8.82v-1.77H0zM11.757 323.858v-1.18c.524-1.566 1.801-3.369 3.836-5.41l.62-.632c2.103-2.11 3.153-4.09 3.153-5.939 0-2.532-1.046-3.798-3.143-3.798-1.722 0-2.585.85-2.585 2.546v.29h-1.415v-2.99c1.702-.65 3.331-.973 4.89-.973 4.088 0 6.132 1.635 6.132 4.904 0 1.711-1.214 3.408-3.64 5.091-1.104.76-1.907 1.39-2.41 1.893l-.63.632c-.787.786-1.207 1.607-1.261 2.462H23.4v3.104H11.757zM0 342.231h8.82v-1.769H0zM0 367.66h8.82v-1.77H0zM0 393.09h8.82v-1.769H0zM0 418.519h8.82v-1.77H0zM13.132 425.575v-1.128l1.747-.083c.875-.048 1.313-.396 1.313-1.044l.042-1.252v-10.616c0-.85-.159-1.273-.476-1.273-.344 0-.966.086-1.86.26l-.766.155v-1.44l6.628-1.665v14.58l.04 1.251c0 .648.442.993 1.324 1.035l1.738.092v1.128h-9.73zM0 11.66h8.82V9.89H0z"/>
        </g>
        <path d="M146.412 144.882H157L142 99l-15 45.882h10.588v118.236H127L142 309l15-45.882h-10.588V144.882z" fill="#4990E2"/>
        <path d="M21.332 25.68c-.486.283-1.055.56-1.707.831a22.547 22.547 0 0 1-4.259 1.276c-.73.142-1.413.213-2.053.213-2.046 0-3.888-.277-5.525-.831-1.637-.555-3.03-1.406-4.182-2.553-1.15-1.147-2.04-2.598-2.666-4.35C.313 18.511 0 16.423 0 14c0-2.527.364-4.68 1.093-6.459.73-1.779 1.701-3.229 2.916-4.35A11.104 11.104 0 0 1 8.153.754 15.243 15.243 0 0 1 12.89 0c1.688 0 3.114.11 4.278.329 1.164.219 2.18.548 3.05.986 0 .387-.012.864-.038 1.43a47.71 47.71 0 0 1-.115 1.78 42.469 42.469 0 0 1-.192 1.837c-.077.606-.153 1.14-.23 1.605h-.998l-1.995-5.57c-.281-.154-.754-.257-1.42-.309a25.31 25.31 0 0 0-1.956-.077 9.426 9.426 0 0 0-3.645.716c-1.15.477-2.155 1.211-3.012 2.204-.857.993-1.54 2.243-2.052 3.751-.512 1.509-.768 3.281-.768 5.318 0 1.83.25 3.48.748 4.95.5 1.47 1.19 2.727 2.072 3.771a9.25 9.25 0 0 0 3.108 2.417c1.19.567 2.475.851 3.856.851.511 0 1.01-.052 1.496-.155.486-.103.934-.225 1.343-.367a5.99 5.99 0 0 0 1.017-.445c.268-.155.454-.284.556-.387v-7.812a9.007 9.007 0 0 1-1.9-.348 41.205 41.205 0 0 1-1.783-.58v-1.122h9.4v1.122c-.256.18-.563.348-.921.503-.358.154-.844.296-1.458.425v8.857zM26.396 14c0-2.011.275-3.874.825-5.588.55-1.715 1.343-3.197 2.379-4.448a10.716 10.716 0 0 1 3.817-2.92C34.927.348 36.64 0 38.56 0c1.918 0 3.632.348 5.14 1.044 1.51.696 2.782 1.67 3.818 2.92s1.83 2.733 2.379 4.448c.55 1.714.825 3.577.825 5.588s-.275 3.874-.825 5.588c-.55 1.715-1.343 3.197-2.379 4.448a10.716 10.716 0 0 1-3.817 2.92C42.19 27.652 40.477 28 38.559 28c-1.919 0-3.632-.348-5.142-1.044a10.716 10.716 0 0 1-3.817-2.92c-1.036-1.25-1.829-2.733-2.379-4.448-.55-1.714-.825-3.577-.825-5.588zm4.106 0c0 1.65.172 3.203.518 4.66.345 1.457.863 2.727 1.553 3.81.691 1.082 1.56 1.94 2.61 2.571 1.048.632 2.289.948 3.72.948 1.305 0 2.444-.316 3.416-.948.972-.631 1.77-1.489 2.397-2.571.627-1.083 1.1-2.353 1.42-3.81.32-1.457.48-3.01.48-4.66 0-1.65-.167-3.203-.5-4.66-.332-1.457-.843-2.727-1.534-3.81-.69-1.082-1.56-1.94-2.609-2.571-1.048-.632-2.289-.948-3.721-.948-1.407 0-2.603.316-3.588.948-.984.631-1.784 1.489-2.398 2.571-.613 1.083-1.061 2.353-1.342 3.81a24.559 24.559 0 0 0-.422 4.66zm23.365 13.536v-1.122c.895-.412 1.944-.722 3.146-.928V2.552a20.147 20.147 0 0 1-1.688-.444 17.118 17.118 0 0 1-1.458-.522V.464h3.913c.435 0 .947-.013 1.535-.039C59.903.4 60.511.367 61.137.33 61.764.29 62.365.25 62.941.213a22.136 22.136 0 0 1 1.438-.058c4.349 0 7.693 1.173 10.033 3.519s3.51 5.672 3.51 9.978c0 2.037-.287 3.925-.862 5.666-.576 1.74-1.452 3.242-2.628 4.505-1.177 1.264-2.667 2.256-4.47 2.978-1.803.722-3.933 1.083-6.388 1.083-.384 0-.819-.02-1.305-.058-.486-.039-.997-.077-1.534-.116l-1.631-.116a22.21 22.21 0 0 0-1.554-.058h-3.683zm9.975-25.37c-.665 0-1.304.006-1.918.02-.614.012-1.1.057-1.458.134v23.437c.128.026.358.045.69.058l1.075.039c.384.012.748.019 1.093.019h.749c1.764 0 3.26-.335 4.488-1.006a8.677 8.677 0 0 0 3.012-2.687c.78-1.122 1.35-2.418 1.708-3.887.358-1.47.537-3.017.537-4.641 0-1.263-.173-2.572-.518-3.925a11.364 11.364 0 0 0-1.688-3.713c-.78-1.122-1.81-2.043-3.089-2.765s-2.84-1.083-4.68-1.083zm19.414-.542c.128-.335.326-.612.595-.831.268-.22.62-.329 1.055-.329.793 0 1.33.387 1.611 1.16l-1.228 6.42h-.767l-1.266-6.42zM94.19 24.867c.307.31.704.574 1.19.793.486.22 1.215.329 2.187.329.818 0 1.586-.11 2.302-.329a5.446 5.446 0 0 0 1.86-.967 4.71 4.71 0 0 0 1.247-1.547c.307-.605.46-1.295.46-2.069 0-1.031-.313-1.895-.94-2.59-.626-.697-1.406-1.316-2.34-1.857a39.55 39.55 0 0 0-3.05-1.586 16.854 16.854 0 0 1-3.05-1.837 9.644 9.644 0 0 1-2.34-2.552c-.627-.993-.94-2.237-.94-3.732 0-1.083.192-2.05.575-2.9a6.045 6.045 0 0 1 1.63-2.167c.704-.593 1.542-1.05 2.514-1.373C96.467.161 97.554 0 98.756 0c1.56 0 2.986.122 4.278.367 1.292.245 2.308.548 3.05.91 0 .438-.032.947-.096 1.527s-.14 1.18-.23 1.798c-.09.619-.185 1.218-.288 1.799-.102.58-.204 1.089-.307 1.527h-.997L102.63 2.63c-.46-.206-1.042-.361-1.746-.464a15.481 15.481 0 0 0-2.244-.155c-1.305 0-2.353.367-3.146 1.102-.793.735-1.19 1.76-1.19 3.075 0 1.057.314 1.946.94 2.668.627.722 1.414 1.367 2.36 1.934a39.705 39.705 0 0 0 3.05 1.644 19.592 19.592 0 0 1 3.05 1.837 9.6 9.6 0 0 1 2.36 2.475c.627.954.94 2.14.94 3.558 0 1.16-.211 2.217-.633 3.171a6.697 6.697 0 0 1-1.823 2.437c-.792.67-1.764 1.186-2.915 1.547-1.151.36-2.456.541-3.914.541-1.611 0-3.056-.193-4.335-.58-1.28-.387-2.187-.8-2.724-1.238.025-.438.07-.967.134-1.585a67.898 67.898 0 0 1 .518-3.829c.102-.619.205-1.147.307-1.586h.997l1.573 5.685zM3.541 58.867c.308.31.706.574 1.193.793.488.22 1.22.329 2.194.329.822 0 1.591-.11 2.31-.329a5.47 5.47 0 0 0 1.867-.967 4.714 4.714 0 0 0 1.25-1.547c.309-.605.463-1.295.463-2.069 0-1.031-.315-1.895-.943-2.59-.63-.697-1.412-1.316-2.348-1.857a39.724 39.724 0 0 0-3.06-1.586 16.92 16.92 0 0 1-3.06-1.837 9.656 9.656 0 0 1-2.348-2.552c-.63-.993-.944-2.237-.944-3.732 0-1.083.193-2.05.578-2.9.385-.852.93-1.574 1.636-2.167.705-.593 1.546-1.05 2.52-1.373.976-.322 2.067-.483 3.273-.483 1.565 0 2.996.122 4.291.367 1.296.245 2.316.548 3.06.91 0 .438-.032.947-.096 1.527s-.14 1.18-.23 1.798c-.09.619-.187 1.218-.29 1.799-.102.58-.205 1.089-.307 1.527h-1.001l-1.54-5.298c-.462-.206-1.045-.361-1.751-.464a15.581 15.581 0 0 0-2.252-.155c-1.309 0-2.36.367-3.156 1.102-.796.735-1.193 1.76-1.193 3.075 0 1.057.314 1.946.943 2.668.628.722 1.417 1.367 2.367 1.934s1.97 1.115 3.06 1.644c1.09.528 2.11 1.14 3.06 1.837a9.613 9.613 0 0 1 2.367 2.475c.629.954.943 2.14.943 3.558 0 1.16-.211 2.217-.635 3.171a6.7 6.7 0 0 1-1.828 2.437c-.796.67-1.77 1.186-2.926 1.547-1.154.36-2.463.541-3.926.541-1.616 0-3.066-.193-4.35-.58C1.45 61.033.54 60.62 0 60.182c.026-.438.07-.967.135-1.585.064-.62.14-1.257.23-1.915.09-.657.187-1.295.29-1.914.102-.619.205-1.147.307-1.586h1.001l1.578 5.685zm32.179 2.669H24.904v-1.122a20.292 20.292 0 0 1 1.713-.541c.577-.155 1.2-.284 1.866-.387v-23.01h-5.889l-2.04 5.53h-.962a25.442 25.442 0 0 1-.192-1.76 93.223 93.223 0 0 1-.135-2.011 116.64 116.64 0 0 1-.096-2.011 45.622 45.622 0 0 1-.039-1.76h22.363c0 .516-.012 1.096-.038 1.74-.026.645-.058 1.309-.096 1.992-.039.683-.077 1.354-.116 2.011a21.97 21.97 0 0 1-.173 1.799h-1l-2.002-5.53h-5.89v23.01c.668.13 1.29.258 1.867.387.578.129 1.136.31 1.675.541v1.122zm15.05 0h-8.545v-1.122a14.59 14.59 0 0 1 2.771-.928L54.734 34h1.117l9.738 25.486c.513.103 1.02.22 1.52.348.5.13.969.323 1.405.58v1.122h-9.853v-1.122a16.26 16.26 0 0 1 1.578-.541 20.014 20.014 0 0 1 1.578-.387l-2.618-7.077H50l-2.54 7.077c1.077.155 2.18.464 3.31.928v1.122zm0-11.138h7.775l-3.04-8.2-.732-3.325h-.077l-.962 3.403-2.964 8.122zm36.49-15.934h8.314v1.122c-1.078.722-2.13 1.237-3.157 1.547V62h-2.194L76.251 40.69l-1.501-3.016h-.116l.347 3.017v18.37a9.947 9.947 0 0 1 2.964 1.353v1.122H69.63v-1.122c.462-.283.956-.535 1.482-.754a18.17 18.17 0 0 1 1.675-.6V36.9a31.81 31.81 0 0 1-2.926-1.353v-1.083h6.505l12.125 18.37 1.77 3.326h.155l-.193-3.326V37.133a24.922 24.922 0 0 1-1.559-.735c-.5-.258-.968-.529-1.405-.812v-1.122zm10.546 27.072v-1.122c.898-.412 1.95-.722 3.156-.928V36.552a20.265 20.265 0 0 1-1.693-.444 17.21 17.21 0 0 1-1.463-.522v-1.122h3.926c.436 0 .95-.013 1.54-.039.59-.025 1.2-.058 1.828-.096.629-.039 1.232-.078 1.81-.116a22.28 22.28 0 0 1 1.443-.058c4.362 0 7.717 1.173 10.065 3.519s3.522 5.672 3.522 9.978c0 2.037-.289 3.925-.866 5.666-.577 1.74-1.456 3.242-2.637 4.505-1.18 1.264-2.675 2.256-4.484 2.978-1.81.722-3.945 1.083-6.409 1.083-.385 0-.82-.02-1.308-.058-.488-.039-1.001-.077-1.54-.116l-1.636-.116a22.354 22.354 0 0 0-1.559-.058h-3.695zm10.008-25.37c-.667 0-1.309.006-1.925.02-.616.012-1.103.057-1.463.134v23.437c.129.026.36.045.693.058l1.078.039c.385.012.75.019 1.097.019h.75c1.771 0 3.272-.335 4.504-1.006a8.696 8.696 0 0 0 3.022-2.687c.782-1.122 1.353-2.418 1.713-3.887.359-1.47.538-3.017.538-4.641 0-1.263-.173-2.572-.52-3.925a11.347 11.347 0 0 0-1.693-3.713c-.782-1.122-1.815-2.043-3.098-2.765s-2.849-1.083-4.696-1.083zm24.673 25.37h-8.546v-1.122a14.59 14.59 0 0 1 2.772-.928L136.45 34h1.116l9.739 25.486c.513.103 1.02.22 1.52.348.5.13.969.323 1.405.58v1.122h-9.854v-1.122a16.26 16.26 0 0 1 1.578-.541 20.014 20.014 0 0 1 1.578-.387l-2.617-7.077h-9.2l-2.54 7.077c1.078.155 2.181.464 3.31.928v1.122zm0-11.138h7.775l-3.041-8.2-.731-3.325h-.077l-.963 3.403-2.963 8.122zm25.712 9.088c.59.13 1.154.264 1.693.406.54.142 1.065.316 1.578.522v1.122h-10.123v-1.122a9.46 9.46 0 0 1 1.617-.58 33.031 33.031 0 0 1 1.54-.348V36.552a14.774 14.774 0 0 1-1.771-.444 15.124 15.124 0 0 1-1.386-.522v-1.122h3.387c1.027 0 2.15-.051 3.368-.155a42.24 42.24 0 0 1 3.56-.154c1.258 0 2.432.141 3.523.425 1.09.284 2.033.735 2.829 1.354a6.379 6.379 0 0 1 1.867 2.359c.449.954.673 2.101.673 3.442 0 1.882-.494 3.442-1.482 4.68-.988 1.237-2.328 2.126-4.022 2.668a131.166 131.166 0 0 0 3.464 5.22 138.378 138.378 0 0 0 3.772 5.145l2.079 1.121v.967h-4.658l-1.462-1.083a45.252 45.252 0 0 1-1.963-2.65 40.813 40.813 0 0 1-1.655-2.629 45.655 45.655 0 0 1-1.444-2.707 92.188 92.188 0 0 1-1.366-2.92h-3.618v9.94zm2.617-23.32c-.616 0-1.123.013-1.52.038a6.818 6.818 0 0 0-1.097.155v11.564h2.771c1.77 0 3.175-.568 4.215-1.702 1.039-1.134 1.559-2.63 1.559-4.486 0-1.908-.552-3.313-1.655-4.216-1.104-.902-2.528-1.353-4.273-1.353zm15.05 25.37v-1.122c.898-.412 1.95-.722 3.156-.928V36.552a20.266 20.266 0 0 1-1.693-.444 17.21 17.21 0 0 1-1.463-.522v-1.122h3.926c.436 0 .95-.013 1.54-.039.59-.025 1.2-.058 1.828-.096.629-.039 1.232-.078 1.81-.116a22.28 22.28 0 0 1 1.443-.058c4.362 0 7.717 1.173 10.065 3.519S200 43.346 200 47.652c0 2.037-.289 3.925-.866 5.666-.577 1.74-1.456 3.242-2.637 4.505-1.18 1.264-2.675 2.256-4.484 2.978-1.809.722-3.945 1.083-6.409 1.083-.385 0-.82-.02-1.308-.058-.488-.039-1.001-.077-1.54-.116l-1.636-.116a22.354 22.354 0 0 0-1.559-.058h-3.695zm10.008-25.37c-.667 0-1.309.006-1.925.02-.616.012-1.103.057-1.462.134v23.437c.128.026.359.045.692.058l1.078.039c.385.012.75.019 1.097.019h.75c1.771 0 3.272-.335 4.504-1.006a8.696 8.696 0 0 0 3.022-2.687c.782-1.122 1.353-2.418 1.713-3.887.359-1.47.538-3.017.538-4.641 0-1.263-.173-2.572-.52-3.925a11.347 11.347 0 0 0-1.693-3.713c-.782-1.122-1.815-2.043-3.098-2.765s-2.849-1.083-4.696-1.083zM86.21 91H199v-4H84v4z" fill="#212121"/>
    </g>
</svg>
