<svg width="300" height="412" viewBox="0 0 300 412" xmlns="http://www.w3.org/2000/svg">
    <title>
        Hell
    </title>
    <g fill="none" fill-rule="evenodd">
        <g fill="#221F20">
            <path d="M83.442 379.768c.05 1.358.109 3.062.182 5.114l.412 6.184c0-.466.01-.728.028-.782 0-.046.037.756.11 2.408.018.066.028.212.028.438 0 .308.01.488.028.538l.082 1.256v1.702l.277 5.402c0-.824-.01-1.258-.026-1.298-.028.674-.085 3.038-.158 7.094l-13.752 3.558-1.2-15.148-1.493-.31-37.312.31-.565 11.834c-1.048.232-2.776.65-5.188 1.248-.304.074-.784.19-1.435.354-.152.034-.28.064-.387.094a4.388 4.388 0 0 1-.237.056c-.053.014-.104.024-.15.036-.043.01-.1.026-.17.042-.069.016-.108.028-.124.032l-.022.01a3.795 3.795 0 0 1-.205.058.758.758 0 0 0-.112.026h-.022l-.048.018a.166.166 0 0 1-.045.008h.016-.016l-.045.014h.014-.014l-.044.018a.166.166 0 0 0-.045.008.134.134 0 0 1-.047.01h.015-.015l-.044.016a.11.11 0 0 1-.045.01 6.768 6.768 0 0 1-.318.074.76.76 0 0 0-.105.02.372.372 0 0 0-.055.014.12.12 0 0 1-.045.008h.013-.013l-.046.018a.111.111 0 0 1-.043.008c-.016 0-.036.006-.06.012a.139.139 0 0 1-.053.014h.012-.012l-.045.016c-.018.004-.032.008-.047.008a.162.162 0 0 0-.056.012.14.14 0 0 1-.057.014h.012-.012l-.045.016h.012-.012l-.022.01h.012-.012l-.043.016c-.018 0-.032.004-.048.008a.114.114 0 0 1-.045.008h.014-.014l-.046.018h-.023l-.046.018a.105.105 0 0 1-.043.008h.012-.012l-.047.018a.654.654 0 0 0-.125.018.131.131 0 0 1-.055.012h.01-.01l-.022.01h.014-.014l-.045.016h-.024l-.045.018h-.022l-.045.018a.174.174 0 0 1-.044.006.101.101 0 0 0-.047.01.12.12 0 0 1-.046.008h.016-.016l-.023.008h.012-.012l-.044.016a5.615 5.615 0 0 0-.158.036h.012-.012l-.045.014-.335.084c-1.95.508-3.478.858-4.575 1.056V396.89c-1.93-.306-4.319-.458-7.169-.458-1.806 0-2.789.012-2.958.036a234.77 234.77 0 0 0-3.07.024c-.32.004-.607.008-.866.008.166.006.598.01 1.29.01.017 0 .025-.004.025-.01h-.16c-.091-.006-.358-.008-.794-.008-.104 0-.227-.006-.361-.016H.001l13.356-4.316c.363-1.482.544-2.678.544-3.588 0-2.674-1.948-4.424-5.84-5.25-.395 0-.997.092-1.812.278-.813.186-1.354.28-1.606.28-.21 0-.46-.04-.75-.114 3.568-1.394 8.412-2.726 14.536-3.988l.318-.078c.09-.022.165-.038.225-.046a3.01 3.01 0 0 0 .227-.046l.773-.172c.15-.032.332-.068.541-.108.168-.038.673-.154 1.522-.342.014-.004.187-.04.519-.108.122-.022.497-.102 1.135-.236.393-.088.914-.196 1.565-.332 1.648 0 2.666.442 3.06 1.326.212.48.4.776.568.89l1.201 10.982H68.17l-.269-7.528c-.716-.426-1.68-.726-2.883-.894-.18-.026-.744-.086-1.698-.176-.06-.012-.136-.018-.225-.026v-.016H62.87a2.763 2.763 0 0 0-.272-.026v-.01h-.022c-.03-.002-.067-.006-.112-.006h-.204c-.199-.014-.461-.028-.795-.05 1.46-.354 3.45-.9 5.955-1.634h.013-.013a.114.114 0 0 0 .043-.01l.047-.016h.022l.048-.018a.1.1 0 0 0 .043-.008.134.134 0 0 1 .047-.01l.044-.016h.014-.014l.023-.006h.012-.012l.042-.014a.387.387 0 0 0 .06-.012l.1-.03a.607.607 0 0 1 .114-.03c.198-.074.385-.126.567-.162l.272-.074c.043-.016.105-.034.182-.05a.798.798 0 0 1 .122-.036.608.608 0 0 0 .126-.032c.03-.012.103-.03.227-.058l.067-.026a.383.383 0 0 1 .067-.018c.212-.044.383-.09.522-.142a.104.104 0 0 0 .045-.01l.045-.016a.12.12 0 0 0 .056-.012c.023-.01.043-.014.057-.018.016-.002.03-.006.047-.01h.024c.254-.07.434-.12.543-.154.359-.094.679-.178.949-.252l.045-.016a.114.114 0 0 0 .046-.008l.045-.018h.022c.118-.036.302-.084.543-.152.134-.034.24-.064.315-.092h.016-.016a.131.131 0 0 0 .048-.008c.254-.082.462-.138.612-.18.03-.01.06-.02.1-.028l.17-.038a.302.302 0 0 1 .045-.014.419.419 0 0 0 .066-.02c.124-.028.189-.044.207-.052 2.173-.568 3.945-.992 5.317-1.276.724 0 1.314.058 1.768.168.681.17 1.232.504 1.652.998a.21.21 0 0 1 .07.046h.023v.008c.01.006.02.012.02.024v.034a.558.558 0 0 0 .138.152h.043v.016a.106.106 0 0 1 .036.03c.006.014.018.034.031.06a.478.478 0 0 1 .048.112h.045l.012.016-.012.036c.012.01.016.032.016.068M156.8 379.768c-.776.704-1.8 1.342-3.081 1.91-1.117.492-3.243 1.318-6.383 2.48-3.26.688-7.524 1.032-12.793 1.032-.636 0-.975-.008-1.019-.026-.24-.018-1.046-.024-2.421-.024H127.777c-3.774 0-6.559.138-8.357.416 0 .254.006.39.03.41.016.02.03.09.03.208 0 .164.01.252.031.264 0 .356.008.544.028.568l.087 1.502c.053.758.191 1.522.414 2.29.12.476.535 1.176 1.245 2.094h3.042c1.415 0 3.523.01 6.331.028 2.805.018 4.915.026 6.33.026 5.398 0 9.744-.124 13.038-.372-.843.284-2.354.94-4.527 1.972-2.083.986-3.794 1.678-5.134 2.072-2.1.612-4.413.942-6.93.986-.665.01-1.306.026-1.924.042l-.774.024c-.572 0-1.434-.008-2.591-.026a204.508 204.508 0 0 0-2.59-.024c-2.717 0-4.76.298-6.136.9.103 1.284.166 1.954.18 2.018.02-.028.026-.132.026-.306v2.628c-.091.018-.137.066-.137.152 0 1.738.37 3.022 1.114 3.844l38.595.212-11.295 4.726-43.309-.244c.825-1.836 1.234-3.928 1.234-6.276v-4.386c-.09-.074-.139-.314-.139-.718 0-1.606.034-2.444.103-2.518a46.297 46.297 0 0 0-3.823-.33c-1.103-.054-2.757-.094-4.96-.116-1.68-.016-3.1-.056-4.277-.108.663-.424 2.471-1.066 5.424-1.93 2.895-.848 4.537-1.346 4.93-1.492 1.646-.612 2.657-1.278 3.018-1.996l-.276-6.932a147.61 147.61 0 0 0-7.672-.514c-1.743-.072-3.827-.166-6.265-.278l14.175-4.312c11.363.512 21.502.77 30.427.77 7.729 0 14.49-.216 20.307-.646M189.435 380.225c.798 4.584 1.198 9.594 1.198 15.032v11.158a57.11 57.11 0 0 0 7.044.448c2.128 0 4.538-.082 7.228-.242l24.586-.324-13.35 5.25c-5.593-.21-10.222-.318-13.889-.318-3.499 0-6.286.028-8.368.082-1.6.032-4.622.1-9.071.206-3.002.084-6.306.174-9.91.276.736-3.886 1.101-7.522 1.101-10.902v-1.212c-.014-.524-.06-1.498-.134-2.924-.166-2.39-.687-4.932-1.557-7.628a28.864 28.864 0 0 0-1.512-3.732c-.332-.692-1.654-1.036-3.97-1.036-1.006 0-1.742.046-2.21.136v-.312l17.517-4.642c.8 0 1.403.012 1.808.034 1.119.024 1.889.066 2.309.126.529.078.922.254 1.18.524M259.728 380.225c.802 4.584 1.194 9.594 1.194 15.032v11.158a57.27 57.27 0 0 0 7.048.448c2.124 0 4.538-.082 7.22-.242l24.598-.324-13.35 5.25c-5.601-.21-10.23-.318-13.889-.318-3.499 0-6.294.028-8.372.082-1.605.032-4.622.1-9.075.206-2.998.084-6.302.174-9.906.276.732-3.886 1.101-7.522 1.101-10.902v-1.212c-.013-.524-.057-1.498-.138-2.924-.162-2.39-.679-4.932-1.55-7.628a29.438 29.438 0 0 0-1.51-3.732c-.336-.692-1.655-1.036-3.974-1.036-1.01 0-1.743.046-2.21.136v-.312l17.516-4.642c.803 0 1.407.012 1.812.034 1.111.024 1.889.066 2.309.126.529.078.918.254 1.176.524"/>
        </g>
        <path d="M142.29 82.913l54.833 40.976s2.799 2.69-1.696 2.077c-4.145-.566-13.755 2.833-5.653 12.84 8.102 10.009 18.466 15.674 23.365 12.275 0 0 8.812-4.945-9.233-19.639-3.015-2.454.754-10.008-3.58-14.162-4.334-4.154-43.149-31.723-43.149-31.723s-6.783-3.588-14.887-2.644" fill="#989B9D"/>
        <path d="M142.29 82.913l54.833 40.976s2.799 2.69-1.696 2.077c-4.145-.566-13.755 2.833-5.653 12.84 8.102 10.009 18.466 15.674 23.365 12.275 0 0 8.812-4.945-9.233-19.639-3.015-2.454.754-10.008-3.58-14.162-4.334-4.154-43.149-31.723-43.149-31.723s-6.783-3.588-14.887-2.644z" stroke="#4A4A4A" stroke-width=".604"/>
        <path d="M212.2 148.658c-1.805 2.174-8.195-.17-14.271-5.24-6.076-5.068-9.542-10.94-7.734-13.114 1.808-2.175 8.197.17 14.276 5.24 6.073 5.069 9.536 10.94 7.728 13.114" stroke="#4A4A4A" stroke-width=".589" fill="#FFF"/>
        <path d="M136.066 95.537l65.081 21.082s3.813.731.71-2.587c-2.862-3.06-5.658-12.879 7.174-12.052 12.834.826 23.444 6.015 23.515 11.984 0 0 1.078 10.065-21.325 3.826-3.741-1.042-7.707 6.41-13.595 5.274-5.888-1.136-50.791-16.894-50.791-16.894s-6.845-3.465-10.769-10.633" fill="#989B9D"/>
        <path d="M136.066 95.537l65.081 21.082s3.813.731.71-2.587c-2.862-3.06-5.658-12.879 7.174-12.052 12.834.826 23.444 6.015 23.515 11.984 0 0 1.078 10.065-21.325 3.826-3.741-1.042-7.707 6.41-13.595 5.274-5.888-1.136-50.791-16.894-50.791-16.894s-6.845-3.465-10.769-10.633z" stroke="#4A4A4A" stroke-width=".604"/>
        <path d="M230.032 114.601c.723-2.736-4.884-6.597-12.528-8.629-7.64-2.031-14.423-1.462-15.143 1.274-.725 2.737 4.88 6.6 12.523 8.633 7.643 2.028 14.424 1.458 15.148-1.278" stroke="#4A4A4A" stroke-width=".589" fill="#FFF"/>
        <path d="M199.162 119.2a1.697 1.697 0 1 1-3.394 0c0-.939.76-1.7 1.698-1.7.937 0 1.696.761 1.696 1.7" fill="#221F20"/>
        <path d="M112.902 187.936c-1.019-1.062-11.466-17.439-16.792-18.926a17.684 17.684 0 0 0-3.006-.554c3.357-1.022 5.813-4.237 5.813-8.053 0-4.642-3.626-8.403-8.09-8.403s-8.09 3.761-8.09 8.403c0 3.737 2.356 6.899 5.606 7.988-1.13.088-2.3.266-3.452.588-5.327 1.488-15.774 17.866-16.793 18.927-1.03 1.062-2.866 7.231 3.073 3.829 5.934-3.405 11.872-12.549 11.872-12.549s3.69-4.253-1.842 26.793c-5.527 31.054-4.504 26.163-4.504 26.163s-1.254 12.204 7.17 1.276c.416-.543 4.703-21.264 6.632-34.025 1.924 12.758 6.218 33.514 6.634 34.059 8.424 10.93 7.17-1.274 7.17-1.274s1.023 4.89-4.503-26.163c-5.533-31.052-1.843-26.798-1.843-26.798s5.94 9.14 11.873 12.553c5.939 3.403 4.1-2.772 3.072-3.834" fill="#212121"/>
        <path d="M91.5.49v151.223" stroke="#212121" stroke-width=".982" stroke-linecap="square"/>
        <path d="M74.651 120.506h-4.23v-2.924c0-.85.18-1.47.54-1.864.361-.393.886-.59 1.575-.59s1.216.197 1.582.59c.366.393.544 1.015.533 1.864v2.924zM69.13 122h11.529v-1.494h-4.715v-3.428c.01-1.132-.285-1.989-.888-2.57-.603-.582-1.443-.873-2.519-.873s-1.913.29-2.51.873c-.598.581-.897 1.438-.897 2.57V122zm0-9.969h11.529v-1.336h-4.715c-.377 0-.724-.05-1.041-.15a2.384 2.384 0 0 1-.832-.448c-.237-.2-.42-.448-.549-.747-.13-.299-.194-.652-.194-1.061 0-.514.15-.917.452-1.21.302-.294.71-.441 1.227-.441h5.652V105.3h-5.49c-.452 0-.864.045-1.235.134-.372.089-.692.244-.961.464a2.2 2.2 0 0 0-.63.865c-.15.356-.226.802-.226 1.336 0 .241.027.49.081.747.054.257.137.503.25.739.113.236.259.448.436.637.178.189.396.335.654.44v.032H69.13v1.336zm12.643-11.934c.409.157.753.312 1.033.464.28.152.509.32.686.503a1.7 1.7 0 0 1 .388.613c.08.225.121.485.121.778 0 .158-.01.315-.032.472-.022.157-.06.31-.113.456h-1.26c.054-.115.1-.249.138-.401a1.65 1.65 0 0 0 .056-.385c0-.273-.067-.5-.202-.684a1.232 1.232 0 0 0-.573-.417l-1.405-.55-8.299 3.223v-1.51l6.83-2.374v-.031l-6.83-2.28v-1.415l9.462 3.538zm-3.746-5.488v1.337c.517-.021.955-.126 1.316-.315.36-.189.651-.44.872-.755.22-.314.38-.676.476-1.085.097-.408.145-.838.145-1.289 0-.409-.04-.82-.12-1.234a3.298 3.298 0 0 0-.429-1.117 2.428 2.428 0 0 0-.807-.802c-.334-.204-.753-.306-1.26-.306-.398 0-.731.076-1 .228a2.07 2.07 0 0 0-.67.597 3.17 3.17 0 0 0-.428.85c-.108.32-.2.647-.275.982-.075.315-.148.63-.218.944-.07.314-.156.597-.258.849a1.937 1.937 0 0 1-.388.62.783.783 0 0 1-.59.244.83.83 0 0 1-.524-.157 1.129 1.129 0 0 1-.323-.409 2 2 0 0 1-.17-.558 3.875 3.875 0 0 1-.048-.605c0-.22.024-.438.073-.653a1.97 1.97 0 0 1 .234-.59c.108-.178.25-.324.428-.44.178-.115.4-.183.67-.204v-1.337c-.506.032-.928.137-1.268.315-.339.178-.608.417-.807.715-.199.3-.339.642-.42 1.03-.08.388-.12.813-.12 1.274 0 .356.045.715.136 1.077.092.362.232.687.42.975.189.288.434.524.735.707.301.184.662.276 1.082.276.538 0 .958-.131 1.26-.393.3-.263.535-.59.702-.983.166-.393.296-.82.387-1.282.092-.46.194-.888.307-1.281.113-.393.26-.72.444-.983.183-.262.452-.393.807-.393.259 0 .471.063.638.189a1.2 1.2 0 0 1 .38.48c.086.193.145.405.177.636.032.23.048.45.048.66 0 .273-.026.538-.08.795a2.192 2.192 0 0 1-.267.691c-.123.205-.29.37-.5.496-.21.125-.466.194-.767.204zm-7.218-8.46H69.13v1.337h1.68V86.15zm1.502 1.337h8.348V86.15H72.31v1.336zm2.68-8.931v-1.384c-.495.053-.923.179-1.283.378-.36.199-.66.453-.896.762-.237.31-.412.666-.525 1.07-.113.403-.17.836-.17 1.297 0 .64.116 1.2.347 1.682.232.482.55.883.953 1.203.404.32.877.558 1.42.716a6.28 6.28 0 0 0 1.753.235c.624 0 1.197-.08 1.72-.243a3.801 3.801 0 0 0 1.348-.724 3.19 3.19 0 0 0 .872-1.195c.204-.477.306-1.024.306-1.643 0-1.038-.28-1.858-.84-2.46-.56-.603-1.356-.978-2.389-1.125v1.368c.646.084 1.146.312 1.502.684.355.372.532.889.532 1.549 0 .42-.086.78-.258 1.085-.172.304-.4.55-.686.739-.285.189-.611.327-.977.417a4.76 4.76 0 0 1-1.13.133c-.42 0-.826-.042-1.22-.126a3.103 3.103 0 0 1-1.04-.416 2.18 2.18 0 0 1-.727-.779c-.183-.325-.275-.728-.275-1.21 0-.566.146-1.017.436-1.353.29-.335.7-.555 1.227-.66zm5.635-10.126c.14.23.21.55.21.959 0 .346-.1.621-.298.826-.2.204-.525.306-.977.306.452.367.777.794.977 1.282.199.487.298 1.014.298 1.58 0 .367-.043.715-.129 1.046-.086.33-.22.615-.404.856a1.927 1.927 0 0 1-.718.574c-.296.142-.654.213-1.074.213-.473 0-.86-.079-1.162-.236a2.097 2.097 0 0 1-.735-.621 2.814 2.814 0 0 1-.428-.88c-.097-.331-.177-.67-.242-1.015a11.938 11.938 0 0 1-.17-1.046 5.688 5.688 0 0 0-.161-.872 1.44 1.44 0 0 0-.307-.598c-.134-.147-.33-.22-.59-.22-.3 0-.543.055-.726.165-.183.11-.323.252-.42.425a1.695 1.695 0 0 0-.193.581 4.28 4.28 0 0 0-.049.637c0 .566.11 1.038.331 1.415.22.378.638.582 1.252.614v1.336c-.517-.02-.953-.126-1.308-.314a2.427 2.427 0 0 1-.864-.755 3.124 3.124 0 0 1-.476-1.077 5.546 5.546 0 0 1-.146-1.297c0-.367.027-.731.081-1.093.054-.362.164-.69.331-.983.167-.293.401-.53.702-.707.302-.179.695-.268 1.179-.268h4.295c.323 0 .56-.018.71-.055.151-.036.226-.16.226-.37 0-.115-.026-.25-.08-.408h1.065zm-4.278 2.17c.129.167.223.388.282.66.06.273.108.558.145.857.038.299.081.6.13.904.048.304.126.577.234.818.107.241.26.438.46.59.2.152.47.228.815.228.226 0 .417-.045.574-.134.156-.09.282-.205.379-.346a1.43 1.43 0 0 0 .21-.495 2.68 2.68 0 0 0 .064-.598c0-.44-.061-.818-.185-1.132a2.37 2.37 0 0 0-.468-.77 1.845 1.845 0 0 0-.614-.44 1.586 1.586 0 0 0-.622-.142h-1.404zm-7.218-3.49h11.529v-1.337H69.129v1.336zm0-8.004h11.529v-7.438h-1.292v5.944H69.129v1.494zm1.68-9.938h-1.68v1.337h1.68v-1.337zm1.501 1.337h8.348v-1.337H72.31v1.337zm1.211-3.963h7.137v-1.336H73.52v-1.573H72.31v1.573h-1.163c-.366 0-.613-.09-.742-.268-.13-.178-.194-.43-.194-.754 0-.116.008-.241.024-.378a1.62 1.62 0 0 1 .089-.377h-1.195c-.043.126-.075.27-.097.432a3.334 3.334 0 0 0-.032.433c0 .734.175 1.292.525 1.674.35.383.864.574 1.542.574h1.243v1.368h1.211v-1.368zm2.164-9.748v4.67a2.923 2.923 0 0 1-.913-.205 2.441 2.441 0 0 1-.75-.472 2.16 2.16 0 0 1-.51-.715 2.274 2.274 0 0 1-.185-.936c0-.335.062-.642.186-.92.124-.277.29-.518.5-.723.21-.204.46-.367.751-.487.29-.12.598-.192.92-.212zm2.325-1.29v1.321c.549.115.958.354 1.227.715.269.362.403.826.403 1.392 0 .44-.075.823-.226 1.148a2.255 2.255 0 0 1-1.477 1.258 3.397 3.397 0 0 1-1.041.125v-6.085a6.82 6.82 0 0 0-1.599.134 4.7 4.7 0 0 0-1.55.598c-.474.288-.864.67-1.17 1.147-.307.477-.46 1.077-.46 1.8 0 .556.107 1.067.322 1.534.215.466.517.87.904 1.21.388.341.845.606 1.373.795a5.145 5.145 0 0 0 1.744.283 6.856 6.856 0 0 0 1.76-.276 3.874 3.874 0 0 0 1.388-.73c.388-.326.69-.727.904-1.204.216-.477.323-1.04.323-1.69 0-.922-.237-1.688-.71-2.296-.474-.608-1.179-1-2.115-1.179zM175.61 50.33l2.053-3.557 2.522 1.456c.733.423 1.18.884 1.345 1.383.164.498.078 1.038-.256 1.617s-.76.925-1.277 1.037c-.516.112-1.138-.048-1.865-.48l-2.523-1.457zM177 44.942l-5.596 9.693 1.288.743 2.29-3.964 2.956 1.707c.97.573 1.854.75 2.648.534.794-.217 1.453-.778 1.975-1.683.523-.905.678-1.754.467-2.546-.212-.792-.806-1.47-1.783-2.034l-4.245-2.45zm8.599 4.964l-5.597 9.693 1.153.665 2.289-3.964c.183-.317.394-.584.634-.801.24-.217.504-.376.79-.476.287-.1.59-.13.911-.09.32.04.657.162 1.01.366.442.256.717.583.824.983.107.4.035.817-.216 1.251l-2.743 4.751 1.153.666 2.665-4.616c.22-.38.38-.748.484-1.105.103-.356.126-.703.066-1.038a2.188 2.188 0 0 0-.44-.96c-.234-.305-.582-.59-1.043-.856a3.713 3.713 0 0 0-.683-.304 3.287 3.287 0 0 0-.76-.158 2.492 2.492 0 0 0-.76.05 1.773 1.773 0 0 0-.697.33l-.027-.015 2.14-3.707-1.153-.665zm4.156 16.572a8.48 8.48 0 0 1-.902.638c-.267.16-.522.269-.767.327a1.7 1.7 0 0 1-.717.02 2.347 2.347 0 0 1-.73-.286 3.547 3.547 0 0 1-.391-.262 2.216 2.216 0 0 1-.339-.322l.612-1.059c.073.103.166.208.28.315.112.108.213.188.304.24.235.135.464.192.688.17.223-.021.436-.113.637-.274l1.157-.907 1.248-8.583 1.302.752-1.267 6.925.027.015 5.282-4.607 1.22.705-7.644 6.193zm6.552-.416l-1.153-.666c-.233.445-.356.866-.368 1.263-.012.397.064.767.228 1.109.164.342.399.656.704.94.306.286.653.54 1.042.765.353.204.727.374 1.123.513.397.138.787.203 1.171.196.384-.008.745-.1 1.084-.28.338-.178.63-.48.875-.906.194-.335.29-.653.29-.955 0-.302-.064-.589-.19-.86a3.19 3.19 0 0 0-.525-.783 9.987 9.987 0 0 0-.714-.72c-.235-.22-.471-.438-.708-.654a5.416 5.416 0 0 1-.607-.64 1.937 1.937 0 0 1-.348-.635.75.75 0 0 1 .076-.617.791.791 0 0 1 .39-.363 1.12 1.12 0 0 1 .51-.067c.184.015.371.06.563.135.192.075.374.161.546.26.19.11.366.239.528.387.161.147.293.31.395.49.101.18.158.372.172.58a1.35 1.35 0 0 1-.15.664l1.153.666c.219-.441.334-.849.344-1.222a2.109 2.109 0 0 0-.225-1.035 2.933 2.933 0 0 0-.684-.866 6.386 6.386 0 0 0-1.04-.736 4.467 4.467 0 0 0-.996-.421 3.234 3.234 0 0 0-1.044-.133c-.34.015-.663.104-.967.266-.305.162-.559.42-.763.772-.26.453-.352.87-.272 1.255.08.384.249.744.507 1.08.258.336.564.657.917.964.353.306.672.605.956.896.285.29.495.578.632.862.138.285.12.576-.052.875-.126.217-.283.365-.473.442-.19.078-.389.105-.598.08a2.41 2.41 0 0 1-.635-.167 4.869 4.869 0 0 1-.593-.289 3.941 3.941 0 0 1-.646-.463 2.217 2.217 0 0 1-.467-.568 1.417 1.417 0 0 1-.184-.668c-.007-.239.058-.488.196-.746zm10.8-1.856l.814-1.412-1.152-.666-.815 1.412 1.152.666zm-1.882.597l-4.053 7.018 1.153.666 4.052-7.019-1.152-.665zm6.402 6.7l1.193.69c.195-.443.295-.865.298-1.267a2.78 2.78 0 0 0-.223-1.134 3.145 3.145 0 0 0-.667-.973 4.888 4.888 0 0 0-1.037-.789c-.552-.318-1.091-.5-1.62-.546a3.345 3.345 0 0 0-1.5.202c-.471.18-.907.46-1.306.839-.4.378-.751.83-1.054 1.355a5.466 5.466 0 0 0-.625 1.567 3.662 3.662 0 0 0-.03 1.494c.093.476.295.919.607 1.328.312.41.735.768 1.268 1.076.896.517 1.739.69 2.53.52.792-.17 1.502-.654 2.13-1.45l-1.18-.68c-.386.5-.825.808-1.319.921-.493.114-1.025.006-1.594-.323-.362-.209-.632-.461-.81-.757a2.103 2.103 0 0 1-.305-.945 2.943 2.943 0 0 1 .115-1.03c.1-.351.245-.69.433-1.016.204-.353.438-.674.7-.962a2.97 2.97 0 0 1 .866-.669 2.15 2.15 0 0 1 1.024-.223c.369.008.761.132 1.177.372.488.282.807.629.955 1.04.148.412.14.865-.026 1.36zm5.998 9.781c-.267.003-.576-.097-.929-.301-.298-.172-.487-.393-.567-.662-.08-.27-.01-.594.21-.974a3.185 3.185 0 0 1-1.58.183 4.215 4.215 0 0 1-1.508-.536 4.212 4.212 0 0 1-.839-.63 2.42 2.42 0 0 1-.543-.765 1.88 1.88 0 0 1-.146-.89c.021-.32.134-.656.338-1.009.23-.398.486-.684.768-.86a2.05 2.05 0 0 1 .892-.308c.313-.03.635-.004.967.079.332.083.663.183.992.301.353.12.681.246.985.378.303.133.58.233.83.3.252.066.473.079.665.039.192-.04.35-.169.476-.386.146-.254.216-.485.21-.693a1.128 1.128 0 0 0-.162-.565 1.718 1.718 0 0 0-.408-.452 4.371 4.371 0 0 0-.526-.358c-.488-.282-.948-.424-1.38-.427-.434-.002-.812.247-1.137.747l-1.153-.665c.269-.424.57-.739.906-.943a2.376 2.376 0 0 1 1.07-.35c.379-.03.765.016 1.16.135.396.12.792.294 1.19.524.316.183.618.387.903.612.286.225.515.481.687.768.172.286.262.6.27.942.007.343-.107.717-.342 1.125l-2.085 3.61c-.157.272-.256.48-.297.625-.042.145.028.27.209.374.1.058.23.103.392.136l-.518.896zm.206-4.678a1.656 1.656 0 0 1-.707-.091 10.027 10.027 0 0 1-.81-.305 28.609 28.609 0 0 0-.842-.341 3.308 3.308 0 0 0-.82-.21c-.26-.03-.503 0-.731.093-.228.091-.425.282-.593.572-.11.19-.164.373-.162.548 0 .176.039.34.114.491.075.152.183.293.325.424.142.13.303.247.484.351.38.22.735.355 1.067.408.33.053.628.05.891-.01.264-.06.49-.158.678-.297.188-.138.33-.289.424-.452l.682-1.18zm6.514-4.33l-5.596 9.693 1.152.666 5.597-9.693-1.153-.666zm-59.843-2.711l4.342-7.521 2.17 1.253c.597.344 1.05.718 1.36 1.12.31.402.502.839.574 1.309.072.47.033.966-.118 1.488a7.5 7.5 0 0 1-.728 1.652c-.345.598-.7 1.072-1.065 1.422-.365.35-.723.611-1.075.782-.352.17-.695.269-1.028.293a3.649 3.649 0 0 1-1.727-.282 6.234 6.234 0 0 1-.562-.279l-2.143-1.237zm3.68-9.35l-5.595 9.692 3.322 1.918c.805.465 1.566.754 2.285.867.718.113 1.391.064 2.019-.147.628-.21 1.214-.578 1.758-1.102.544-.525 1.051-1.195 1.521-2.01.899-1.556 1.165-2.947.8-4.171-.366-1.225-1.295-2.268-2.787-3.13l-3.322-1.918zm11.045 13.724l-4.028-2.325c.175-.261.381-.483.62-.665.237-.183.494-.315.77-.397.277-.082.565-.105.865-.071.3.034.598.137.897.31a2.275 2.275 0 0 1 1.084 1.395c.074.278.093.57.056.874a2.728 2.728 0 0 1-.264.88zm-.017 2.597l-1.139-.657c-.366.404-.77.629-1.213.675-.442.046-.907-.072-1.396-.353-.38-.22-.673-.474-.88-.762a2.24 2.24 0 0 1-.398-.909 2.29 2.29 0 0 1 .03-.96 3.22 3.22 0 0 1 .397-.938l5.249 3.03c.263-.415.484-.885.66-1.41a4.495 4.495 0 0 0 .237-1.601 3.548 3.548 0 0 0-.421-1.556c-.263-.495-.706-.923-1.33-1.283a3.589 3.589 0 0 0-2.962-.335 4.047 4.047 0 0 0-1.351.759c-.419.35-.782.79-1.09 1.325a6.502 6.502 0 0 0-.618 1.617 3.73 3.73 0 0 0-.043 1.531c.092.488.292.94.598 1.36.307.418.741.789 1.302 1.113.795.459 1.57.641 2.325.546.754-.096 1.435-.493 2.043-1.192zm6.244 6.537c-.267.003-.577-.097-.93-.3-.298-.173-.487-.394-.566-.663-.08-.27-.01-.594.21-.974a3.185 3.185 0 0 1-1.58.183 4.215 4.215 0 0 1-1.508-.536 4.212 4.212 0 0 1-.839-.629 2.42 2.42 0 0 1-.543-.766 1.88 1.88 0 0 1-.146-.89c.021-.32.134-.655.338-1.008.23-.399.486-.685.767-.86a2.05 2.05 0 0 1 .893-.309c.313-.03.635-.004.967.079.332.083.663.183.992.301.353.12.681.246.984.379.303.132.58.232.831.298.251.067.473.08.665.04.192-.04.35-.169.476-.386.146-.253.216-.484.21-.693a1.128 1.128 0 0 0-.162-.564 1.718 1.718 0 0 0-.408-.453 4.371 4.371 0 0 0-.526-.358c-.488-.282-.949-.424-1.381-.426-.433-.003-.812.246-1.136.746l-1.153-.665c.269-.424.57-.738.906-.943a2.376 2.376 0 0 1 1.07-.35c.379-.03.765.016 1.16.135.395.12.792.294 1.19.524.316.183.617.387.903.612.286.225.515.481.687.768.172.286.262.6.27.943.007.342-.107.717-.342 1.124l-2.085 3.61c-.157.272-.256.48-.297.626-.042.145.028.27.209.374.099.057.23.102.391.135l-.517.896zm.205-4.678a1.656 1.656 0 0 1-.706-.09 10.027 10.027 0 0 1-.81-.305 28.608 28.608 0 0 0-.842-.342 3.308 3.308 0 0 0-.82-.21c-.26-.03-.503.001-.731.093-.228.092-.426.282-.593.572-.11.19-.164.373-.163.548.001.176.04.34.114.492.076.152.184.293.326.423.142.13.303.247.484.352.38.219.735.355 1.066.407.332.053.629.05.892-.01.263-.059.49-.158.678-.296.188-.139.33-.29.424-.453l.681-1.18zm6.503-.77l1.215-2.105-1.153-.665-1.215 2.104-1.193-.69-.588 1.02 1.194.688-2.58 4.466c-.187.326-.307.607-.359.843-.051.235-.043.445.025.63.069.184.197.358.386.521.19.164.433.331.731.504l.882.509.588-1.019-.53-.305a4.435 4.435 0 0 1-.428-.275.657.657 0 0 1-.214-.24.387.387 0 0 1-.019-.265c.025-.095.076-.21.154-.346l2.516-4.357 1.397.806.588-1.018-1.397-.806zm4.216-1.132l-5.596 9.693 1.152.665 2.29-3.964c.182-.317.393-.584.634-.801.24-.218.503-.376.79-.476.286-.1.59-.13.91-.09.32.04.657.162 1.01.366.443.256.718.583.825.983.107.4.035.816-.216 1.25l-2.744 4.752 1.153.666 2.665-4.616c.22-.38.381-.748.484-1.105.104-.357.126-.703.067-1.039a2.188 2.188 0 0 0-.44-.96c-.235-.304-.582-.59-1.044-.855a3.713 3.713 0 0 0-.683-.304 3.288 3.288 0 0 0-.759-.158 2.492 2.492 0 0 0-.76.05 1.773 1.773 0 0 0-.698.33l-.027-.016 2.14-3.706-1.153-.665z" fill="#212121"/>
        <g fill="#CD3B2F">
            <path d="M.092 329.273a28.541 28.541 0 0 1 1.235-10.926c1.666-9.12 5.09-18.718 11.287-28.03 0 0 3.14 49.541 14.137 48.888 0 0-13.611-42.696-2.617-64.205 0 0-4.619 57.147 29.293 70.96 2.098-1.16.385-8.617-11.454-30.568 0 0 32.814 8.054 45.447 27.63.97-.446 1.937-.915 2.898-1.405.241-6.777 2.447-15.564 10.835-21.963 0 0 1.075 5.807 3.622 12.86 18.434-13.802 31.671-32.24 28.244-36.33-6.279-7.495-1.043-.976-1.043-.976s33.44 25.277 24.987 53.144c6.939-4.54 11.22-11.67 3.373-22.516 0 0 10.124 2.494 20.512 6.717 1.126-3.689.812-7.412-1.757-10.945 0 0 6.937 6.138 10.785 15.124 2.855 1.527 5.48 3.184 7.62 4.952 7.178-18.01 15.694-45.622 6.2-57.234 0 0 22.747 26.197 30.493 47.862 7.268-2.15 15.986-3.685 26.413-4.13 0 0-27.977 7.098-7.537 27.682 4.326-.586 8.949-2.432 13.12-5.273 3.406-6.161 6.42-13.824 4.69-19.637 0 0 1.797 4.62 5.044 9.566a28.27 28.27 0 0 0 2.642-5.552s1.704 7.82 3.516 12.892c1.106.981 2.283 1.855 3.528 2.564.758-3.163 1.021-11.214.281-27.514 0 0 6.766 33.242 14.114 30.31V367H6.331S-.89 350.56.092 329.273z"/>
            <path d="M129.417 291.945s-6.785-11.54.97-20.945c0 0-.487 10.687 1.936 9.832 0 0 1.454 2.137 1.212 4.7-.243 2.566-3.148 6.413-4.118 6.413M159.999 317.255s-12.403-23.564 1.774-42.764c0 0-.886 21.818 3.542 20.073 0 0 2.66 4.363 2.217 9.6-.446 5.236-5.76 13.09-7.533 13.09M78.61 323.364s-13.177-14.428 1.884-26.182c0 0-.94 13.356 3.764 12.29 0 0 2.826 2.67 2.355 5.877-.473 3.206-6.119 8.015-8.002 8.015M191.962 327.727s7.75-23.563-1.107-42.763c0 0 .553 21.818-2.214 20.072 0 0-1.662 4.364-1.386 9.6.279 5.237 3.6 13.091 4.707 13.091M33.03 306.782s-6.977-12.503.998-22.691c0 0-.5 11.578 1.994 10.65 0 0 1.494 2.317 1.245 5.096-.251 2.777-3.24 6.945-4.237 6.945M263.773 327.727s6.783-13.946-.971-25.309c0 0 .488 12.913-1.935 11.881 0 0-1.454 2.582-1.212 5.68.24 3.1 3.147 7.748 4.118 7.748M238.429 312.89s-6.784-11.54.971-20.945c0 0-.488 10.688 1.934 9.833 0 0 1.455 2.136 1.213 4.7-.243 2.566-3.147 6.413-4.118 6.413"/>
        </g>
    </g>
</svg>
