<svg width="854" height="623" viewBox="0 0 854 623" xmlns="http://www.w3.org/2000/svg">
    <title>
        Imputed Righteousness
    </title>
    <g fill="none" fill-rule="evenodd">
        <path d="M854 246.092c-.179-2.869-.367-5.743-.533-8.598l-74.85 6.145.451-53.639c-4.848.286-9.94.96-15.066 1.681l-6.875 2.874v44.449a9.466 9.466 0 0 0-7.43-3.571c-5.213 0-9.44 4.16-9.44 9.296 0 .7.086 1.382.236 2.039L677 251.98c.374 6.147.973 12.312 1.034 18.44l45.88-2.719c6.838 1.96 15.222 4.293 18.205 4.831 5.35.96 2.672 13.487 5.35 23.116 2.676 9.636 6.688 12.525 6.688 27.94 0 15.41-14.714 34.677-9.366 36.604 4.391 1.58 10.337 26.995 12.336 36.096V475h19.54l1.703-202.132c4.55-1.319 10.423-3.198 14.222-5.078 1.959-.969 4.65-2.665 7.51-4.601l51.086-3.026c1.556-4.86 2.371-9.488 2.812-14.071M114.267 332.165c-2.536-2.664-28.544-43.754-41.801-47.487-2.494-.703-5.022-1.143-7.483-1.39 8.355-2.563 14.471-10.63 14.471-20.205 0-11.646-9.026-21.083-20.139-21.083-11.112 0-20.14 9.437-20.14 21.083 0 9.377 5.864 17.31 13.955 20.043-2.811.222-5.723.667-8.592 1.476-13.261 3.733-39.267 44.825-41.804 47.487-2.563 2.665-7.136 18.145 7.649 9.608 14.772-8.542 29.555-31.486 29.555-31.486s9.187-10.67-4.587 67.224c-13.758 77.917-11.21 65.647-11.21 65.647s-3.123 30.62 17.848 3.2c1.034-1.362 11.707-53.352 16.507-85.37 4.79 32.01 15.48 84.09 16.517 85.456 20.97 27.422 17.848-3.196 17.848-3.196s2.547 12.27-11.21-65.645c-13.774-77.911-4.588-67.238-4.588-67.238s14.785 22.934 29.556 31.496c14.784 8.537 10.208-6.956 7.648-9.62" fill="#212121"/>
        <path d="M97 170.485c181.074-145.442 448.332-143.997 618.035.445" stroke="#4A4A4A" stroke-width="5"/>
        <path fill="#4A4A4A" d="M77.92 184.239L94.96 157l13.84 18.369z"/>
        <g>
            <path d="M710 514.515c-181.074 145.442-448.332 143.997-618.035-.445" stroke="#4A4A4A" stroke-width="5"/>
            <path fill="#4A4A4A" d="M729.08 500.761L712.04 528l-13.84-18.369z"/>
        </g>
        <path d="M178.743 255.924c.16-.414.407-.757.742-1.029.335-.27.773-.406 1.316-.406.989 0 1.659.478 2.01 1.435l-1.532 7.945h-.957l-1.58-7.945zm-5.743 0c.16-.414.407-.757.742-1.029.335-.27.773-.406 1.316-.406.989 0 1.659.478 2.01 1.435l-1.532 7.945h-.957L173 255.924zm17.42 29.337c0-.958.303-1.723.91-2.298.605-.574 1.387-.861 2.344-.861.99 0 1.787.287 2.393.861.606.575.91 1.34.91 2.298 0 .925-.304 1.675-.91 2.249-.606.574-1.404.861-2.393.861-.957 0-1.739-.287-2.345-.861-.606-.574-.91-1.324-.91-2.25zm13.352 0c0-.958.303-1.723.91-2.298.605-.574 1.387-.861 2.344-.861.99 0 1.787.287 2.393.861.606.575.91 1.34.91 2.298 0 .925-.304 1.675-.91 2.249-.606.574-1.404.861-2.393.861-.957 0-1.739-.287-2.345-.861-.606-.574-.909-1.324-.909-2.25zm13.352 0c0-.958.303-1.723.91-2.298.606-.574 1.387-.861 2.344-.861.99 0 1.787.287 2.393.861.606.575.91 1.34.91 2.298 0 .925-.304 1.675-.91 2.249-.606.574-1.404.861-2.393.861-.957 0-1.738-.287-2.345-.861-.606-.574-.909-1.324-.909-2.25zm37.233 2.727H244.02v-1.196c.765-.415 1.723-.798 2.871-1.149v-11.198c0-2.489-.35-4.443-1.053-5.863-.702-1.42-1.978-2.13-3.828-2.13-.83 0-1.58.152-2.25.455a7.245 7.245 0 0 0-3.206 2.824 7.75 7.75 0 0 0-.861 1.938v13.974c.51.128.997.272 1.46.431.462.16.916.399 1.363.718v1.196h-10.29v-1.196c.99-.51 2.043-.893 3.16-1.149V255.35l-3.638-.383v-1.244c.926-.383 2.002-.718 3.23-1.005 1.229-.287 2.401-.527 3.518-.718h1.197v16.893h.047c.67-1.499 1.636-2.775 2.896-3.828s2.783-1.58 4.57-1.58c1.276 0 2.417.152 3.422.455a5.3 5.3 0 0 1 2.512 1.604c.67.765 1.18 1.794 1.532 3.086.35 1.292.526 2.928.526 4.906v12.107c.543.128 1.085.272 1.627.431.543.16 1.053.399 1.532.718v1.196zm13.4 0h-10.625v-1.196c.479-.255.974-.47 1.484-.646.51-.176 1.069-.343 1.675-.503v-18.807l-3.159-.383v-1.244c.926-.383 1.93-.718 3.015-1.005a39.623 39.623 0 0 1 3.255-.718h1.196v22.157c.638.16 1.213.327 1.723.503.51.175.989.39 1.436.646v1.196zm-8.375-32.064c0-.861.279-1.547.837-2.058.559-.51 1.3-.765 2.226-.765.925 0 1.659.255 2.201.765s.814 1.197.814 2.058c0 .862-.272 1.54-.814 2.034-.542.495-1.276.742-2.201.742-.926 0-1.667-.247-2.226-.742-.558-.494-.837-1.172-.837-2.034zm24.311 26.609c0-.894-.28-1.651-.837-2.273-.559-.623-1.269-1.205-2.13-1.747a40.304 40.304 0 0 0-2.752-1.58 17.337 17.337 0 0 1-2.752-1.794 9.358 9.358 0 0 1-2.13-2.37c-.558-.892-.837-1.993-.837-3.301 0-.862.2-1.66.598-2.393a6.07 6.07 0 0 1 1.604-1.89 7.83 7.83 0 0 1 2.345-1.245 8.879 8.879 0 0 1 2.871-.454c1.723 0 3.135.095 4.235.287 1.101.191 2.162.462 3.183.813a72.081 72.081 0 0 1-.455 3.087 27.617 27.617 0 0 1-.742 3.183h-1.196l-1.819-4.882a4.514 4.514 0 0 0-1.292-.31 14.909 14.909 0 0 0-1.483-.073c-.575 0-1.077.104-1.508.311-.43.208-.797.471-1.1.79a3.304 3.304 0 0 0-.694 1.1c-.16.416-.24.83-.24 1.245 0 .861.28 1.603.838 2.225.558.623 1.268 1.197 2.13 1.723a48.375 48.375 0 0 0 2.751 1.556c.973.51 1.89 1.084 2.752 1.722a8.794 8.794 0 0 1 2.13 2.226c.558.845.837 1.858.837 3.039 0 1.084-.231 2.058-.694 2.919a6.643 6.643 0 0 1-1.914 2.201c-.814.607-1.755 1.077-2.824 1.412-1.068.335-2.209.503-3.421.503-1.372 0-2.632-.12-3.781-.36a26.874 26.874 0 0 1-3.59-1.028c.064-1.149.208-2.257.431-3.326.224-1.069.51-2.098.862-3.087h1.196l2.106 5.216c.35.256.774.4 1.268.431.495.032.95.048 1.364.048 1.404 0 2.536-.383 3.398-1.149.861-.765 1.292-1.69 1.292-2.775zM316.571 252c.287 0 .622.016 1.005.048.383.032.781.072 1.196.12.415.047.814.111 1.197.19.382.08.717.168 1.005.264a29.81 29.81 0 0 1-.407 2.943c-.176.91-.391 1.731-.646 2.465h-1.197l-2.105-4.116c-.926 0-1.715.096-2.37.287a3.171 3.171 0 0 0-1.626 1.101c-.431.543-.75 1.324-.958 2.345-.207 1.021-.31 2.361-.31 4.02v2.393h5.503v2.393h-5.504v19.19c1.66.192 3.19.575 4.595 1.149v1.196h-12.06v-1.196a9.409 9.409 0 0 1 3.158-1.149v-19.19h-3.637v-1.244a13.237 13.237 0 0 1 3.637-1.58v-1.675c0-1.978.24-3.613.718-4.905.479-1.292 1.149-2.313 2.01-3.063.861-.75 1.874-1.268 3.039-1.555 1.164-.287 2.417-.431 3.757-.431zm21.344 29.72c0 .701.016 1.307.048 1.818.032.51.064 1.053.095 1.627l3.303.478v1.005c-.798.415-1.683.782-2.656 1.101-.974.32-1.907.558-2.8.718h-1.196a7.355 7.355 0 0 1-.575-2.417 68.938 68.938 0 0 1-.143-2.895h-.24a6.624 6.624 0 0 1-.741 1.938 6.511 6.511 0 0 1-1.436 1.747 7.29 7.29 0 0 1-2.082 1.244c-.798.32-1.707.479-2.728.479-1.946 0-3.533-.59-4.762-1.771-1.228-1.18-1.842-2.728-1.842-4.642 0-1.468.295-2.672.885-3.613.59-.942 1.46-1.683 2.609-2.226 1.148-.542 2.568-.933 4.259-1.172 1.69-.24 3.653-.423 5.886-.55.128-1.372.168-2.609.12-3.71-.048-1.1-.223-2.041-.527-2.823-.303-.782-.75-1.388-1.34-1.819-.59-.43-1.363-.646-2.32-.646-.447 0-.95.024-1.508.072a5.565 5.565 0 0 0-1.651.407l-2.25 5.743h-1.244a33.686 33.686 0 0 1-.837-2.967 18.391 18.391 0 0 1-.455-3.015c1.213-.734 2.56-1.308 4.044-1.723 1.484-.415 3.135-.622 4.953-.622 1.627 0 2.927.231 3.9.694.974.462 1.715 1.06 2.226 1.794a6.1 6.1 0 0 1 1.005 2.44c.16.894.24 1.788.24 2.68 0 1.915-.04 3.758-.12 5.528-.08 1.771-.12 3.47-.12 5.097zm-9.236 3.876c.797 0 1.5-.16 2.105-.479a5.666 5.666 0 0 0 1.532-1.149c.414-.446.75-.9 1.005-1.364.255-.462.43-.853.526-1.172v-5.025c-1.85 0-3.366.096-4.546.287-1.18.192-2.106.495-2.776.91-.67.414-1.133.933-1.388 1.555-.255.622-.383 1.332-.383 2.13 0 1.371.351 2.432 1.053 3.182s1.66 1.125 2.872 1.125zm26.369 2.392h-10.625v-1.196c.479-.255.974-.47 1.484-.646.51-.176 1.069-.343 1.675-.503v-18.807l-3.159-.383v-1.244c.926-.383 1.93-.718 3.015-1.005a39.623 39.623 0 0 1 3.255-.718h1.196v22.157c.638.16 1.213.327 1.723.503.51.175.989.39 1.436.646v1.196zm-8.375-32.064c0-.861.279-1.547.837-2.058.559-.51 1.3-.765 2.226-.765.925 0 1.659.255 2.201.765s.814 1.197.814 2.058c0 .862-.272 1.54-.814 2.034-.542.495-1.276.742-2.201.742-.926 0-1.667-.247-2.226-.742-.558-.494-.837-1.172-.837-2.034zm10.911 9.285a12.598 12.598 0 0 1 3.829-1.628v-4.067c.414-.32.901-.63 1.46-.934a17.163 17.163 0 0 1 1.65-.79h1.197v6.27h7.178v2.393h-7.178v13.878c0 1.915.303 3.27.91 4.068.605.798 1.515 1.197 2.727 1.197.574 0 1.292-.04 2.153-.12.862-.08 1.596-.231 2.202-.455l.335.718c-.255.287-.614.59-1.077.91a12.12 12.12 0 0 1-1.58.909c-.59.287-1.235.526-1.937.718a8.148 8.148 0 0 1-2.154.287c-1.914 0-3.374-.543-4.379-1.627-1.005-1.085-1.507-2.84-1.507-5.265v-15.218h-3.829v-1.244zm44.316 22.78h-10.337v-1.197c.765-.415 1.722-.798 2.87-1.149v-11.198c0-2.489-.35-4.443-1.052-5.863-.702-1.42-1.978-2.13-3.828-2.13-.83 0-1.58.152-2.25.455a7.245 7.245 0 0 0-3.206 2.824 7.75 7.75 0 0 0-.862 1.938v13.974c.51.128.997.272 1.46.431.463.16.917.399 1.364.718v1.196h-10.29v-1.196c.99-.51 2.043-.893 3.16-1.149V255.35l-3.638-.383v-1.244c.925-.383 2.002-.718 3.23-1.005 1.229-.287 2.401-.527 3.518-.718h1.196v16.893h.048c.67-1.499 1.635-2.775 2.896-3.828 1.26-1.053 2.783-1.58 4.57-1.58 1.276 0 2.417.152 3.422.455a5.3 5.3 0 0 1 2.512 1.604c.67.765 1.18 1.794 1.532 3.086.35 1.292.526 2.928.526 4.906v12.107c.542.128 1.085.272 1.627.431.543.16 1.053.399 1.532.718v1.196zm25.029 0h-10.624v-1.197c.478-.255.973-.47 1.483-.646.51-.176 1.069-.343 1.675-.503v-18.807l-3.158-.383v-1.244c.925-.383 1.93-.718 3.015-1.005a39.623 39.623 0 0 1 3.254-.718h1.196v22.157c.638.16 1.213.327 1.723.503.51.175.99.39 1.436.646v1.196zm-8.375-32.065c0-.861.279-1.547.837-2.058.559-.51 1.3-.765 2.226-.765.925 0 1.659.255 2.201.765s.814 1.197.814 2.058c0 .862-.272 1.54-.814 2.034-.542.495-1.276.742-2.201.742-.926 0-1.667-.247-2.226-.742-.558-.494-.837-1.172-.837-2.034zm24.311 26.609c0-.894-.279-1.651-.837-2.273-.559-.623-1.269-1.205-2.13-1.747a40.304 40.304 0 0 0-2.752-1.58 17.337 17.337 0 0 1-2.752-1.794 9.358 9.358 0 0 1-2.13-2.37c-.558-.892-.837-1.993-.837-3.301 0-.862.2-1.66.599-2.393a6.07 6.07 0 0 1 1.603-1.89 7.83 7.83 0 0 1 2.345-1.245 8.879 8.879 0 0 1 2.871-.454c1.723 0 3.135.095 4.235.287 1.101.191 2.162.462 3.183.813a72.081 72.081 0 0 1-.455 3.087 27.617 27.617 0 0 1-.741 3.183h-1.197l-1.818-4.882a4.514 4.514 0 0 0-1.293-.31 14.909 14.909 0 0 0-1.483-.073c-.574 0-1.077.104-1.508.311-.43.208-.797.471-1.1.79a3.304 3.304 0 0 0-.694 1.1c-.16.416-.24.83-.24 1.245 0 .861.28 1.603.838 2.225.558.623 1.268 1.197 2.13 1.723a48.375 48.375 0 0 0 2.751 1.556c.973.51 1.89 1.084 2.752 1.722a8.794 8.794 0 0 1 2.13 2.226c.558.845.837 1.858.837 3.039 0 1.084-.231 2.058-.694 2.919a6.643 6.643 0 0 1-1.914 2.201c-.814.607-1.755 1.077-2.824 1.412-1.068.335-2.209.503-3.421.503-1.372 0-2.632-.12-3.781-.36a26.874 26.874 0 0 1-3.59-1.028c.065-1.149.208-2.257.431-3.326.224-1.069.51-2.098.862-3.087h1.196l2.106 5.216c.351.256.774.4 1.268.431.495.032.95.048 1.364.048 1.404 0 2.537-.383 3.398-1.149.861-.765 1.292-1.69 1.292-2.775zm38.669 2.105c-.575 1.117-1.508 2.05-2.8 2.8-1.292.75-2.8 1.125-4.523 1.125-1.882 0-3.517-.295-4.905-.886-1.388-.59-2.544-1.435-3.47-2.536-.925-1.1-1.619-2.425-2.081-3.972-.463-1.548-.694-3.262-.694-5.145 0-4.052.989-7.154 2.967-9.308 1.978-2.154 4.674-3.23 8.088-3.23 1.563 0 2.959.135 4.187.406 1.229.272 2.273.63 3.135 1.077a35.434 35.434 0 0 1-.527 3.542c-.255 1.308-.574 2.392-.957 3.254h-1.292l-2.01-5.695a2.418 2.418 0 0 0-.766-.359c-.287-.08-.765-.12-1.435-.12-2.17 0-3.845.79-5.025 2.37-1.18 1.579-1.771 4.25-1.771 8.015 0 1.213.168 2.393.503 3.542a9.484 9.484 0 0 0 1.53 3.086 7.607 7.607 0 0 0 2.585 2.178c1.037.542 2.241.814 3.613.814 1.117 0 2.09-.16 2.92-.479.83-.32 1.531-.702 2.105-1.149l.623.67zm3.828-8.614c0-2.01.263-3.788.79-5.336.526-1.547 1.284-2.855 2.273-3.924a9.746 9.746 0 0 1 3.565-2.44c1.388-.56 2.927-.838 4.618-.838 1.979 0 3.685.303 5.121.909 1.436.606 2.608 1.46 3.518 2.56.909 1.101 1.579 2.417 2.01 3.948.43 1.532.646 3.239.646 5.121 0 4.02-1.021 7.115-3.063 9.284-2.042 2.17-4.786 3.255-8.232 3.255-1.914 0-3.573-.295-4.977-.886-1.403-.59-2.568-1.435-3.493-2.536-.925-1.1-1.62-2.425-2.082-3.972-.463-1.548-.694-3.262-.694-5.145zm4.594 0c0 1.436.136 2.792.407 4.068.271 1.276.702 2.385 1.292 3.326a6.463 6.463 0 0 0 2.321 2.225c.957.543 2.106.814 3.446.814 1.723 0 3.135-.845 4.235-2.536 1.101-1.691 1.651-4.323 1.651-7.897 0-1.467-.135-2.831-.406-4.092-.272-1.26-.694-2.36-1.269-3.302-.574-.94-1.308-1.683-2.201-2.225s-1.962-.814-3.206-.814c-1.883 0-3.398.846-4.547 2.537-1.148 1.69-1.723 4.323-1.723 7.896zm23.594 2.489c0-2.01.048-3.98.143-5.91.096-1.93.144-3.853.144-5.767l-3.159-.383v-1.244a34.173 34.173 0 0 1 3.135-1.005 41.73 41.73 0 0 1 3.135-.718h1.196c0 2.393-.048 4.77-.144 7.13a173.66 173.66 0 0 0-.143 7.035c0 1.245.072 2.361.215 3.35.144.99.4 1.819.766 2.489a3.93 3.93 0 0 0 1.507 1.555c.639.367 1.452.55 2.441.55 1.436 0 2.64-.518 3.613-1.555.973-1.037 1.731-2.385 2.274-4.044v-13.16l-3.111-.383v-1.244a30.378 30.378 0 0 1 3.087-1.005 41.73 41.73 0 0 1 3.134-.718h1.197v21.775l3.158.382v1.005c-.925.415-1.858.782-2.8 1.101-.94.32-1.922.558-2.943.718H529.2l-.335-5.695h-.191a7.525 7.525 0 0 1-.838 2.034 7.458 7.458 0 0 1-1.555 1.866 8.233 8.233 0 0 1-2.178 1.364 6.634 6.634 0 0 1-2.656.527c-1.276 0-2.4-.152-3.374-.455a5.314 5.314 0 0 1-2.464-1.603c-.67-.766-1.18-1.795-1.532-3.087-.35-1.292-.526-2.927-.526-4.905zm51.398 9.475h-10.29v-1.196c.862-.447 1.803-.83 2.824-1.149v-11.342c0-2.424-.35-4.339-1.052-5.743-.702-1.403-1.978-2.105-3.829-2.105-.798 0-1.54.143-2.225.43a6.034 6.034 0 0 0-1.819 1.173 8.14 8.14 0 0 0-1.364 1.675 9.304 9.304 0 0 0-.91 1.938v13.974a8.476 8.476 0 0 1 2.872 1.149v1.196h-10.337v-1.196c.798-.415 1.85-.798 3.159-1.149v-18.807l-3.159-.383v-1.244a21.58 21.58 0 0 1 2.872-.958 48.553 48.553 0 0 1 3.397-.765h1.197v5.36h.048a10.622 10.622 0 0 1 2.895-3.781c1.26-1.053 2.784-1.58 4.57-1.58 1.277 0 2.417.152 3.422.455a5.3 5.3 0 0 1 2.513 1.604c.67.765 1.18 1.794 1.531 3.086.351 1.292.527 2.928.527 4.906v12.107c1.276.224 2.329.607 3.158 1.149v1.196zm1.532-22.78a12.598 12.598 0 0 1 3.828-1.627v-4.067c.415-.32.901-.63 1.46-.934a17.163 17.163 0 0 1 1.65-.79h1.197v6.27h7.179v2.393h-7.179v13.878c0 1.915.303 3.27.91 4.068.606.798 1.515 1.197 2.727 1.197.575 0 1.292-.04 2.154-.12.861-.08 1.595-.231 2.201-.455l.335.718c-.255.287-.614.59-1.076.91a12.12 12.12 0 0 1-1.58.909c-.59.287-1.236.526-1.938.718a8.148 8.148 0 0 1-2.154.287c-1.914 0-3.373-.543-4.378-1.627-1.005-1.085-1.508-2.84-1.508-5.265v-15.218h-3.828v-1.244zm38.38 19.43c-.254.543-.653 1.053-1.196 1.532a8.649 8.649 0 0 1-1.866 1.244c-.702.351-1.468.63-2.297.838-.83.207-1.675.31-2.537.31-1.882 0-3.541-.294-4.977-.885-1.435-.59-2.632-1.435-3.589-2.536-.957-1.1-1.683-2.417-2.177-3.948-.495-1.532-.742-3.255-.742-5.169 0-4.084.94-7.194 2.823-9.332 1.883-2.138 4.547-3.206 7.992-3.206 1.117 0 2.218.151 3.303.454a7.738 7.738 0 0 1 2.895 1.508c.845.702 1.531 1.635 2.058 2.8.526 1.164.79 2.608.79 4.33 0 .543-.025 1.093-.072 1.652a16.275 16.275 0 0 1-.264 1.794h-14.931c0 1.34.167 2.592.502 3.757.335 1.164.838 2.177 1.508 3.039a7.06 7.06 0 0 0 2.536 2.034c1.021.494 2.218.742 3.59.742 1.116 0 2.249-.16 3.398-.479 1.148-.32 2.01-.734 2.584-1.244l.67.765zm-8.757-19.047c-1.819 0-3.206.615-4.164 1.843-.957 1.228-1.531 3.39-1.722 6.484h10.528c.032-.287.056-.566.072-.837.016-.271.024-.534.024-.79 0-2.042-.383-3.669-1.149-4.881-.765-1.212-1.962-1.819-3.589-1.819zm29.336 17.66a6.829 6.829 0 0 1-.813 2.01 7.216 7.216 0 0 1-1.412 1.698 6.505 6.505 0 0 1-1.914 1.173 6.192 6.192 0 0 1-2.321.43c-3.159 0-5.52-1.004-7.083-3.014-1.564-2.01-2.345-5.137-2.345-9.38 0-4.084.997-7.195 2.99-9.332 1.995-2.138 4.683-3.207 8.065-3.207 1.18 0 2.105.056 2.775.168.67.111 1.404.31 2.202.598v-9.045l-3.637-.383v-1.244c.925-.383 2.002-.718 3.23-1.005 1.228-.287 2.4-.527 3.518-.718h1.196v33.26l3.159.383v1.005c-.926.447-1.883.83-2.872 1.149-.989.319-1.962.542-2.92.67h-1.196l-.43-5.216h-.192zm-5.503 2.345c1.563 0 2.807-.495 3.733-1.484.925-.99 1.563-2.329 1.914-4.02v-13.496c-.543-.319-1.18-.542-1.914-.67-.734-.127-1.675-.191-2.824-.191-2.17 0-3.829.95-4.977 2.847-1.149 1.899-1.723 4.427-1.723 7.586 0 1.308.112 2.528.335 3.66.223 1.133.574 2.13 1.053 2.992.478.861 1.077 1.54 1.795 2.034.717.494 1.587.742 2.608.742zm-404.224 38.64c.287 0 .622.017 1.005.049.383.032.782.071 1.197.12.414.047.813.111 1.196.19.383.08.718.168 1.005.264a29.81 29.81 0 0 1-.407 2.943c-.175.91-.39 1.731-.646 2.465h-1.196l-2.106-4.116c-.925 0-1.715.096-2.369.287a3.171 3.171 0 0 0-1.627 1.101c-.43.542-.75 1.324-.957 2.345-.207 1.02-.311 2.36-.311 4.02v2.393h5.503v2.393h-5.503v19.19c1.659.192 3.19.575 4.594 1.149v1.196h-12.06v-1.196a9.409 9.409 0 0 1 3.159-1.149v-19.19h-3.637v-1.245a13.237 13.237 0 0 1 3.637-1.579v-1.675c0-1.978.24-3.613.718-4.905.478-1.292 1.148-2.313 2.01-3.063.861-.75 1.874-1.268 3.039-1.555 1.164-.288 2.416-.431 3.756-.431zm3.685 24.025c0-2.01.263-3.789.79-5.336.526-1.547 1.284-2.855 2.273-3.924a9.746 9.746 0 0 1 3.565-2.441c1.388-.558 2.928-.837 4.619-.837 1.978 0 3.685.303 5.12.909 1.436.606 2.609 1.46 3.518 2.56.91 1.1 1.58 2.417 2.01 3.948.43 1.532.646 3.239.646 5.121 0 4.02-1.021 7.115-3.063 9.284-2.042 2.17-4.786 3.255-8.231 3.255-1.915 0-3.574-.296-4.977-.886-1.404-.59-2.569-1.436-3.494-2.536-.925-1.101-1.62-2.425-2.082-3.972-.462-1.548-.694-3.263-.694-5.145zm4.595 0c0 1.436.135 2.792.406 4.068.272 1.276.702 2.385 1.292 3.326a6.463 6.463 0 0 0 2.322 2.225c.957.543 2.105.814 3.445.814 1.723 0 3.135-.846 4.236-2.537 1.1-1.69 1.65-4.323 1.65-7.896 0-1.468-.135-2.832-.406-4.092-.271-1.26-.694-2.36-1.268-3.302-.575-.941-1.308-1.683-2.202-2.225-.893-.543-1.962-.814-3.206-.814-1.883 0-3.398.846-4.547 2.537-1.148 1.69-1.722 4.323-1.722 7.896zm31.585-8.375c-.35.191-.79.582-1.316 1.173-.526.59-.997 1.46-1.412 2.608v14.213a11.54 11.54 0 0 1 1.915.36 8.837 8.837 0 0 1 1.914.789v1.196h-11.294v-1.196a8.77 8.77 0 0 1 1.627-.718c.51-.16 1.02-.303 1.531-.43v-18.809l-3.158-.382v-1.245a19.92 19.92 0 0 1 3.158-1.076 37.428 37.428 0 0 1 3.11-.646h1.197v5.072h.192a8.537 8.537 0 0 1 1.22-1.914 10.374 10.374 0 0 1 1.819-1.723 7.96 7.96 0 0 1 2.249-1.172 5.82 5.82 0 0 1 2.512-.263c.224.414.423.869.599 1.363.175.495.343 1.013.502 1.556v1.244h-6.365zm30.006 0c-.35.191-.79.582-1.316 1.173-.526.59-.997 1.46-1.411 2.608v14.213a11.54 11.54 0 0 1 1.914.36 8.837 8.837 0 0 1 1.914.789v1.196H275.39v-1.196a8.77 8.77 0 0 1 1.627-.718c.51-.16 1.02-.303 1.531-.43v-18.809l-3.158-.382v-1.245a19.92 19.92 0 0 1 3.158-1.076 37.428 37.428 0 0 1 3.111-.646h1.197v5.072h.191a8.537 8.537 0 0 1 1.22-1.914 10.374 10.374 0 0 1 1.819-1.723 7.96 7.96 0 0 1 2.25-1.172 5.82 5.82 0 0 1 2.512-.263c.223.414.422.869.598 1.363.175.495.343 1.013.502 1.556v1.244h-6.365zm19.287 20.34h-10.625v-1.197c.48-.255.974-.47 1.484-.646a23.8 23.8 0 0 1 1.675-.503v-18.808l-3.159-.382v-1.245c.926-.383 1.93-.717 3.015-1.005a39.623 39.623 0 0 1 3.255-.717h1.196v22.157c.638.16 1.213.327 1.723.503.51.175.99.39 1.436.646v1.196zm-8.375-32.065c0-.861.279-1.547.837-2.058.559-.51 1.3-.765 2.226-.765.925 0 1.659.255 2.201.765s.814 1.197.814 2.058c0 .862-.272 1.54-.814 2.034-.542.495-1.276.742-2.201.742-.926 0-1.667-.247-2.226-.742-.558-.494-.837-1.172-.837-2.034zm22.014 7.562c1.723 0 3.174.167 4.355.502 1.18.335 2.17.853 2.967 1.555 1.882-1.276 3.845-2.201 5.886-2.775.256.35.44.781.55 1.292.112.51.168.989.168 1.435l-.622 1.15h-5.025c.798 1.148 1.197 2.663 1.197 4.545 0 2.298-.806 4.164-2.417 5.6-1.611 1.435-3.964 2.153-7.06 2.153-.605 0-1.1-.016-1.483-.048-.382-.031-.813-.08-1.292-.143-.16.287-.343.606-.55.957a2.133 2.133 0 0 0-.311 1.1c0 .639.367 1.141 1.1 1.508.734.367 1.652.694 2.752.981 1.101.287 2.297.583 3.59.886 1.292.303 2.496.717 3.613 1.244 1.116.526 2.05 1.212 2.8 2.058.75.845 1.14 1.938 1.172 3.278.032 1.149-.231 2.185-.79 3.11-.558.926-1.332 1.7-2.32 2.322-.99.622-2.178 1.1-3.566 1.435-1.388.335-2.911.503-4.57.503-3.478 0-6.102-.59-7.873-1.77-1.77-1.181-2.656-2.665-2.656-4.451 0-.862.136-1.612.407-2.25a4.9 4.9 0 0 1 1.172-1.675c.51-.478 1.149-.901 1.915-1.268.765-.367 1.643-.71 2.632-1.029a4.82 4.82 0 0 1-1.747-1.316c-.463-.558-.694-1.236-.694-2.034 0-.734.311-1.46.933-2.177.622-.718 1.252-1.285 1.89-1.7-1.818-.478-3.214-1.387-4.187-2.727-.973-1.34-1.46-2.856-1.46-4.547 0-1.084.208-2.097.623-3.038a7.031 7.031 0 0 1 1.818-2.465c.798-.702 1.787-1.244 2.967-1.627 1.18-.383 2.553-.574 4.116-.574zm7.083 28.379c0-1.021-.343-1.835-1.03-2.441-.685-.606-1.539-1.1-2.56-1.484a23.611 23.611 0 0 0-3.302-.957 38.04 38.04 0 0 1-3.302-.861c-1.212.734-2.01 1.507-2.393 2.32a5.839 5.839 0 0 0-.574 2.513c0 1.691.606 2.96 1.819 3.805 1.212.845 2.967 1.268 5.264 1.268 1.18 0 2.161-.111 2.943-.335.782-.223 1.404-.518 1.867-.885.462-.367.79-.806.98-1.316.192-.51.288-1.053.288-1.627zm-12.3-20.675c0 .766.088 1.492.264 2.178.175.686.462 1.284.861 1.795.399.51.933.917 1.603 1.22.67.303 1.5.455 2.489.455 1.85 0 3.174-.543 3.972-1.628.798-1.084 1.196-2.424 1.196-4.02 0-1.722-.39-3.086-1.172-4.091-.782-1.005-2.114-1.508-3.996-1.508-1.946 0-3.302.487-4.068 1.46-.766.973-1.148 2.353-1.148 4.14zm45.847 16.798h-10.337v-1.196c.766-.415 1.723-.798 2.872-1.149v-11.198c0-2.489-.351-4.443-1.053-5.863-.702-1.42-1.978-2.13-3.829-2.13-.83 0-1.579.152-2.249.455a7.245 7.245 0 0 0-3.206 2.824 7.75 7.75 0 0 0-.862 1.938v13.974c.51.128.997.271 1.46.431.463.16.917.399 1.364.718v1.196h-10.29v-1.196c.99-.51 2.042-.894 3.16-1.149v-30.293l-3.638-.383v-1.244c.925-.383 2.002-.718 3.23-1.005 1.229-.287 2.401-.527 3.518-.718h1.196v16.893h.048c.67-1.5 1.635-2.775 2.895-3.828s2.784-1.58 4.57-1.58c1.277 0 2.418.152 3.423.455a5.3 5.3 0 0 1 2.512 1.603c.67.766 1.18 1.795 1.531 3.087.351 1.292.527 2.927.527 4.905v12.108c.542.128 1.085.271 1.627.431.542.16 1.053.399 1.531.718v1.196zm1.532-22.78a12.598 12.598 0 0 1 3.828-1.627v-4.068c.415-.319.902-.63 1.46-.933a17.163 17.163 0 0 1 1.651-.79h1.197v6.27h7.178v2.393h-7.178v13.878c0 1.914.303 3.27.909 4.068.606.798 1.515 1.196 2.728 1.196.574 0 1.292-.04 2.153-.12.862-.079 1.595-.23 2.202-.454l.335.718c-.256.287-.615.59-1.077.91a12.12 12.12 0 0 1-1.58.909c-.59.287-1.236.526-1.938.717a8.148 8.148 0 0 1-2.153.288c-1.914 0-3.374-.543-4.38-1.628-1.004-1.084-1.507-2.84-1.507-5.264V338.69h-3.828v-1.245zm38.381 19.43c-.255.543-.654 1.053-1.196 1.532a8.649 8.649 0 0 1-1.867 1.244c-.702.35-1.467.63-2.297.837-.83.208-1.675.312-2.536.312-1.883 0-3.542-.296-4.977-.886-1.436-.59-2.633-1.436-3.59-2.536-.957-1.101-1.683-2.417-2.177-3.948-.495-1.532-.742-3.255-.742-5.169 0-4.084.941-7.194 2.824-9.332 1.882-2.138 4.546-3.206 7.992-3.206 1.116 0 2.217.151 3.302.454a7.738 7.738 0 0 1 2.895 1.508c.846.702 1.532 1.635 2.058 2.8.526 1.164.79 2.607.79 4.33 0 .543-.024 1.093-.072 1.651a16.275 16.275 0 0 1-.263 1.795h-14.932c0 1.34.168 2.592.503 3.757.335 1.164.837 2.177 1.507 3.039a7.06 7.06 0 0 0 2.537 2.034c1.02.494 2.217.741 3.589.741 1.117 0 2.25-.16 3.398-.478 1.148-.32 2.01-.734 2.584-1.244l.67.765zm-8.758-19.047c-1.818 0-3.206.614-4.163 1.843-.957 1.228-1.532 3.39-1.723 6.484h10.528c.032-.287.056-.566.072-.837.016-.271.024-.535.024-.79 0-2.042-.383-3.669-1.148-4.881-.766-1.213-1.963-1.819-3.59-1.819zm13.448 10.433c0-2.01.263-3.789.79-5.336.526-1.547 1.284-2.855 2.273-3.924a9.746 9.746 0 0 1 3.565-2.441c1.388-.558 2.928-.837 4.618-.837 1.979 0 3.685.303 5.121.909 1.436.606 2.608 1.46 3.518 2.56.909 1.1 1.579 2.417 2.01 3.948.43 1.532.646 3.239.646 5.121 0 4.02-1.021 7.115-3.063 9.284-2.042 2.17-4.786 3.255-8.232 3.255-1.914 0-3.573-.296-4.977-.886-1.403-.59-2.568-1.436-3.493-2.536-.925-1.101-1.62-2.425-2.082-3.972-.463-1.548-.694-3.263-.694-5.145zm4.594 0c0 1.436.136 2.792.407 4.068.271 1.276.702 2.385 1.292 3.326a6.463 6.463 0 0 0 2.321 2.225c.957.543 2.106.814 3.446.814 1.723 0 3.135-.846 4.235-2.537 1.101-1.69 1.651-4.323 1.651-7.896 0-1.468-.135-2.832-.406-4.092-.272-1.26-.694-2.36-1.269-3.302-.574-.941-1.308-1.683-2.201-2.225-.893-.543-1.962-.814-3.206-.814-1.883 0-3.398.846-4.547 2.537-1.148 1.69-1.723 4.323-1.723 7.896zm23.594 2.489c0-2.01.048-3.98.143-5.91.096-1.931.144-3.853.144-5.768l-3.159-.382v-1.245a34.173 34.173 0 0 1 3.135-1.005 41.73 41.73 0 0 1 3.135-.717h1.196c0 2.392-.048 4.77-.143 7.13a173.66 173.66 0 0 0-.144 7.035c0 1.244.072 2.361.215 3.35.144.99.4 1.819.766 2.489a3.93 3.93 0 0 0 1.508 1.555c.638.367 1.451.55 2.44.55 1.436 0 2.64-.518 3.613-1.555.974-1.037 1.731-2.385 2.274-4.044v-13.16l-3.111-.383v-1.245a30.378 30.378 0 0 1 3.087-1.005 41.73 41.73 0 0 1 3.134-.717h1.197v21.774l3.158.383v1.005c-.925.415-1.858.782-2.8 1.101-.94.319-1.922.558-2.943.718h-1.196l-.335-5.695h-.191a7.525 7.525 0 0 1-.838 2.034 7.458 7.458 0 0 1-1.555 1.866 8.233 8.233 0 0 1-2.178 1.364 6.634 6.634 0 0 1-2.656.527c-1.276 0-2.4-.152-3.374-.455a5.314 5.314 0 0 1-2.464-1.603c-.67-.766-1.18-1.795-1.532-3.087-.35-1.292-.526-2.927-.526-4.905zm37.902 4.02c0-.894-.279-1.652-.837-2.274-.558-.622-1.268-1.204-2.13-1.746a40.305 40.305 0 0 0-2.751-1.58 17.337 17.337 0 0 1-2.752-1.794 9.358 9.358 0 0 1-2.13-2.37c-.558-.893-.837-1.993-.837-3.301 0-.862.2-1.66.598-2.393a6.07 6.07 0 0 1 1.603-1.89 7.83 7.83 0 0 1 2.345-1.245 8.879 8.879 0 0 1 2.872-.454c1.722 0 3.134.095 4.235.287 1.1.191 2.161.462 3.182.813a72.081 72.081 0 0 1-.454 3.087 27.616 27.616 0 0 1-.742 3.182h-1.197l-1.818-4.88a4.514 4.514 0 0 0-1.292-.312 14.909 14.909 0 0 0-1.484-.072c-.574 0-1.077.104-1.507.311-.431.208-.798.47-1.101.79a3.304 3.304 0 0 0-.694 1.1c-.16.415-.24.83-.24 1.245 0 .861.28 1.603.838 2.225.559.622 1.269 1.197 2.13 1.723a48.375 48.375 0 0 0 2.752 1.555c.973.51 1.89 1.085 2.751 1.723a8.794 8.794 0 0 1 2.13 2.226c.558.845.838 1.858.838 3.039 0 1.084-.232 2.057-.694 2.919a6.643 6.643 0 0 1-1.915 2.201c-.813.606-1.754 1.077-2.823 1.412-1.069.335-2.21.503-3.422.503-1.372 0-2.632-.12-3.78-.36a26.874 26.874 0 0 1-3.59-1.028c.064-1.149.208-2.258.43-3.326.224-1.07.511-2.098.862-3.087h1.197l2.105 5.216c.351.255.774.4 1.269.431.494.032.949.048 1.364.048 1.403 0 2.536-.383 3.397-1.149.862-.765 1.292-1.69 1.292-2.775zm34.218 5.455h-10.289v-1.196c.861-.447 1.803-.83 2.824-1.149v-11.342c0-2.425-.351-4.339-1.053-5.743-.702-1.403-1.978-2.105-3.829-2.105-.798 0-1.54.143-2.225.43a6.034 6.034 0 0 0-1.819 1.173 8.14 8.14 0 0 0-1.364 1.675 9.304 9.304 0 0 0-.909 1.938v13.974a8.476 8.476 0 0 1 2.871 1.149v1.196H477.92v-1.196c.798-.415 1.85-.798 3.159-1.149v-18.808l-3.159-.382v-1.245a21.58 21.58 0 0 1 2.872-.957 48.553 48.553 0 0 1 3.398-.765h1.196v5.36h.048a10.622 10.622 0 0 1 2.895-3.781c1.26-1.053 2.784-1.58 4.57-1.58 1.277 0 2.417.152 3.422.455a5.3 5.3 0 0 1 2.513 1.603c.67.766 1.18 1.795 1.531 3.087.351 1.292.527 2.927.527 4.905v12.108c1.276.224 2.329.606 3.158 1.149v1.196zm22.158-3.35c-.255.543-.654 1.053-1.196 1.532a8.649 8.649 0 0 1-1.867 1.244c-.702.35-1.468.63-2.297.837-.83.208-1.675.312-2.536.312-1.883 0-3.542-.296-4.978-.886-1.435-.59-2.632-1.436-3.589-2.536-.957-1.101-1.683-2.417-2.177-3.948-.495-1.532-.742-3.255-.742-5.169 0-4.084.941-7.194 2.823-9.332 1.883-2.138 4.547-3.206 7.993-3.206 1.116 0 2.217.151 3.302.454a7.738 7.738 0 0 1 2.895 1.508c.846.702 1.531 1.635 2.058 2.8.526 1.164.79 2.607.79 4.33 0 .543-.024 1.093-.072 1.651a16.275 16.275 0 0 1-.263 1.795H511.42c0 1.34.168 2.592.503 3.757.335 1.164.837 2.177 1.507 3.039a7.06 7.06 0 0 0 2.537 2.034c1.02.494 2.217.741 3.589.741 1.116 0 2.25-.16 3.398-.478 1.148-.32 2.01-.734 2.584-1.244l.67.765zm-8.758-19.047c-1.818 0-3.206.614-4.163 1.843-.958 1.228-1.532 3.39-1.723 6.484h10.528c.032-.287.056-.566.072-.837.016-.271.024-.535.024-.79 0-2.042-.383-3.669-1.149-4.881-.765-1.213-1.962-1.819-3.589-1.819zm25.604 16.942c0-.894-.28-1.652-.838-2.274-.558-.622-1.268-1.204-2.13-1.746a40.305 40.305 0 0 0-2.751-1.58 17.337 17.337 0 0 1-2.752-1.794 9.358 9.358 0 0 1-2.13-2.37c-.558-.893-.837-1.993-.837-3.301 0-.862.2-1.66.598-2.393a6.07 6.07 0 0 1 1.603-1.89 7.83 7.83 0 0 1 2.345-1.245 8.879 8.879 0 0 1 2.872-.454c1.722 0 3.134.095 4.235.287 1.1.191 2.161.462 3.182.813a72.081 72.081 0 0 1-.454 3.087 27.616 27.616 0 0 1-.742 3.182h-1.196l-1.819-4.88a4.514 4.514 0 0 0-1.292-.312 14.909 14.909 0 0 0-1.484-.072c-.574 0-1.076.104-1.507.311-.43.208-.798.47-1.1.79a3.304 3.304 0 0 0-.695 1.1c-.16.415-.24.83-.24 1.245 0 .861.28 1.603.838 2.225.559.622 1.269 1.197 2.13 1.723a48.375 48.375 0 0 0 2.752 1.555c.973.51 1.89 1.085 2.752 1.723a8.794 8.794 0 0 1 2.13 2.226c.558.845.837 1.858.837 3.039 0 1.084-.232 2.057-.694 2.919a6.643 6.643 0 0 1-1.915 2.201c-.813.606-1.754 1.077-2.823 1.412-1.069.335-2.21.503-3.422.503-1.372 0-2.632-.12-3.78-.36a26.874 26.874 0 0 1-3.59-1.028c.064-1.149.208-2.258.43-3.326.224-1.07.511-2.098.862-3.087h1.197l2.105 5.216c.351.255.774.4 1.269.431.494.032.949.048 1.364.048 1.403 0 2.536-.383 3.397-1.149.862-.765 1.293-1.69 1.293-2.775zm20.722 0c0-.894-.28-1.652-.838-2.274-.558-.622-1.268-1.204-2.13-1.746a40.305 40.305 0 0 0-2.751-1.58 17.337 17.337 0 0 1-2.752-1.794 9.358 9.358 0 0 1-2.13-2.37c-.558-.893-.837-1.993-.837-3.301 0-.862.2-1.66.598-2.393a6.07 6.07 0 0 1 1.603-1.89 7.83 7.83 0 0 1 2.345-1.245 8.879 8.879 0 0 1 2.872-.454c1.722 0 3.134.095 4.235.287 1.1.191 2.162.462 3.182.813a72.081 72.081 0 0 1-.454 3.087 27.616 27.616 0 0 1-.742 3.182h-1.196l-1.819-4.88a4.514 4.514 0 0 0-1.292-.312 14.909 14.909 0 0 0-1.484-.072c-.574 0-1.076.104-1.507.311-.43.208-.798.47-1.1.79a3.304 3.304 0 0 0-.695 1.1c-.16.415-.24.83-.24 1.245 0 .861.28 1.603.838 2.225.559.622 1.269 1.197 2.13 1.723a48.375 48.375 0 0 0 2.752 1.555c.973.51 1.89 1.085 2.752 1.723a8.794 8.794 0 0 1 2.13 2.226c.558.845.837 1.858.837 3.039 0 1.084-.232 2.057-.694 2.919a6.643 6.643 0 0 1-1.914 2.201c-.814.606-1.755 1.077-2.824 1.412-1.069.335-2.21.503-3.422.503-1.372 0-2.632-.12-3.78-.36a26.874 26.874 0 0 1-3.59-1.028c.064-1.149.208-2.258.431-3.326.223-1.07.51-2.098.861-3.087h1.197l2.106 5.216c.35.255.773.4 1.268.431.494.032.949.048 1.364.048 1.403 0 2.536-.383 3.397-1.149.862-.765 1.293-1.69 1.293-2.775zm10.002 2.727c0-.957.303-1.722.909-2.297.606-.574 1.388-.861 2.345-.861.989 0 1.787.287 2.393.861.606.575.91 1.34.91 2.297 0 .926-.304 1.675-.91 2.25-.606.574-1.404.861-2.393.861-.957 0-1.739-.287-2.345-.861-.606-.575-.91-1.324-.91-2.25zm19.86-29.336c.16-.415.407-.758.742-1.029.335-.271.774-.407 1.316-.407.99 0 1.66.479 2.01 1.436l-1.531 7.944h-.957l-1.58-7.944zm-5.742 0c.159-.415.406-.758.741-1.029.335-.271.774-.407 1.316-.407.99 0 1.66.479 2.01 1.436l-1.531 7.944h-.957l-1.58-7.944zM286.469 429.926c.734.16 1.435.327 2.105.502.67.176 1.324.391 1.963.646v1.388H277.95v-1.388a11.798 11.798 0 0 1 2.01-.718c.638-.16 1.276-.303 1.914-.43v-28.38a18.44 18.44 0 0 1-2.2-.55 18.86 18.86 0 0 1-1.724-.646v-1.388h4.212c1.276 0 2.672-.064 4.187-.191a52.766 52.766 0 0 1 4.427-.192c1.563 0 3.023.176 4.379.527 1.356.35 2.528.91 3.517 1.675a7.9 7.9 0 0 1 2.321 2.92c.559 1.18.838 2.6.838 4.258 0 2.33-.614 4.26-1.843 5.791-1.228 1.531-2.895 2.632-5 3.302a162.248 162.248 0 0 0 4.306 6.46c1.5 2.138 3.063 4.26 4.69 6.366l2.585 1.388v1.196h-5.791l-1.819-1.34a56.014 56.014 0 0 1-2.44-3.278 50.469 50.469 0 0 1-2.058-3.254 56.406 56.406 0 0 1-1.795-3.35 113.83 113.83 0 0 1-1.699-3.614h-4.498v12.3zm3.254-28.858c-.766 0-1.396.016-1.89.048-.495.032-.95.096-1.364.191v14.31h3.445c2.202 0 3.949-.702 5.24-2.106 1.293-1.404 1.939-3.255 1.939-5.552 0-2.36-.686-4.1-2.058-5.216-1.372-1.117-3.142-1.675-5.312-1.675zm19.286 19.43c0-2.01.264-3.789.79-5.336.526-1.548 1.284-2.856 2.273-3.924a9.746 9.746 0 0 1 3.566-2.441c1.387-.558 2.927-.838 4.618-.838 1.978 0 3.685.303 5.12.91 1.436.606 2.609 1.46 3.518 2.56.91 1.1 1.58 2.417 2.01 3.948.43 1.532.646 3.238.646 5.12 0 4.02-1.021 7.116-3.063 9.285-2.042 2.17-4.786 3.254-8.231 3.254-1.915 0-3.574-.295-4.977-.885-1.404-.59-2.569-1.436-3.494-2.536-.925-1.101-1.62-2.425-2.082-3.973-.462-1.547-.694-3.262-.694-5.144zm4.595 0c0 1.436.135 2.792.406 4.068.272 1.276.702 2.385 1.293 3.326a6.463 6.463 0 0 0 2.32 2.225c.958.542 2.106.814 3.446.814 1.723 0 3.135-.846 4.236-2.537 1.1-1.69 1.65-4.323 1.65-7.896 0-1.468-.135-2.832-.406-4.092-.271-1.26-.694-2.36-1.268-3.302-.575-.941-1.308-1.683-2.202-2.225-.893-.543-1.962-.814-3.206-.814-1.883 0-3.398.846-4.547 2.536-1.148 1.691-1.722 4.324-1.722 7.897zm46.134 11.964h-10.242v-1.196c.32-.192.71-.391 1.173-.599a9.984 9.984 0 0 1 1.65-.55v-11.055a31.94 31.94 0 0 0-.167-3.446c-.111-1.02-.319-1.874-.622-2.56-.303-.686-.742-1.212-1.316-1.58-.574-.366-1.324-.55-2.25-.55a4.37 4.37 0 0 0-1.937.431c-.59.287-1.117.67-1.58 1.149a7.653 7.653 0 0 0-1.196 1.627 9.13 9.13 0 0 0-.79 1.914v14.07c.51.16.997.327 1.46.503.463.175.917.39 1.364.646v1.196h-10.29v-1.196c.447-.224.942-.431 1.484-.622.543-.192 1.1-.367 1.675-.527V411.31l-3.158-.383v-1.244a20.208 20.208 0 0 1 3.134-1.077 34.254 34.254 0 0 1 3.135-.646h1.196v5.408h.048a8.626 8.626 0 0 1 2.608-3.828c1.229-1.053 2.752-1.58 4.57-1.58.766 0 1.5.08 2.202.24.702.16 1.356.454 1.962.885.606.43 1.117 1.029 1.532 1.795.414.765.718 1.754.909 2.967.574-1.755 1.5-3.175 2.776-4.26 1.276-1.084 2.871-1.627 4.785-1.627 1.18 0 2.21.152 3.087.455a4.517 4.517 0 0 1 2.178 1.603c.574.766.997 1.803 1.268 3.11.271 1.309.407 2.968.407 4.978v12.012a9.936 9.936 0 0 1 3.158 1.149v1.196h-10.29v-1.196a13.83 13.83 0 0 1 2.824-1.149v-11.916c0-1.149-.055-2.17-.167-3.063-.112-.893-.327-1.651-.646-2.273a3.432 3.432 0 0 0-1.34-1.436c-.574-.335-1.34-.503-2.297-.503-1.532 0-2.72.527-3.566 1.58-.845 1.053-1.46 2.393-1.842 4.02v13.591c1.117.32 2.154.702 3.11 1.149v1.196zm34.696-6.27c0 .703.016 1.309.048 1.82.032.51.064 1.052.096 1.627l3.302.478v1.005c-.798.415-1.683.782-2.656 1.1-.974.32-1.907.56-2.8.719h-1.196a7.355 7.355 0 0 1-.575-2.417 68.94 68.94 0 0 1-.143-2.895h-.24a6.624 6.624 0 0 1-.741 1.938 6.511 6.511 0 0 1-1.436 1.747 7.29 7.29 0 0 1-2.082 1.244c-.798.319-1.707.478-2.728.478-1.946 0-3.533-.59-4.761-1.77-1.229-1.18-1.843-2.728-1.843-4.642 0-1.468.295-2.672.885-3.614.59-.94 1.46-1.683 2.609-2.225 1.148-.542 2.568-.933 4.259-1.172 1.69-.24 3.653-.423 5.886-.55.128-1.373.168-2.609.12-3.71-.048-1.1-.223-2.042-.527-2.823-.303-.782-.75-1.388-1.34-1.819-.59-.43-1.363-.646-2.32-.646-.447 0-.95.024-1.508.072a5.565 5.565 0 0 0-1.651.407l-2.25 5.742h-1.244a33.687 33.687 0 0 1-.837-2.967 18.391 18.391 0 0 1-.455-3.015c1.213-.733 2.56-1.308 4.044-1.723 1.484-.414 3.135-.622 4.953-.622 1.627 0 2.927.232 3.9.694.974.463 1.715 1.061 2.226 1.795a6.1 6.1 0 0 1 1.005 2.44c.16.894.24 1.787.24 2.68 0 1.915-.04 3.757-.12 5.528-.08 1.77-.12 3.47-.12 5.097zm-9.236 3.877c.797 0 1.5-.16 2.105-.478a5.666 5.666 0 0 0 1.532-1.149c.414-.447.75-.901 1.005-1.364.255-.462.43-.853.526-1.172v-5.025c-1.85 0-3.366.095-4.546.287-1.18.191-2.106.494-2.776.91-.67.414-1.133.932-1.388 1.554-.255.623-.383 1.333-.383 2.13 0 1.372.351 2.433 1.053 3.183s1.66 1.124 2.872 1.124zm41.396 2.393h-10.29v-1.196c.862-.447 1.803-.83 2.824-1.149v-11.342c0-2.425-.35-4.339-1.053-5.743-.702-1.404-1.978-2.106-3.828-2.106-.798 0-1.54.144-2.226.431a6.034 6.034 0 0 0-1.818 1.173 8.14 8.14 0 0 0-1.364 1.675 9.304 9.304 0 0 0-.91 1.938v13.974a8.476 8.476 0 0 1 2.872 1.149v1.196h-10.337v-1.196c.798-.415 1.85-.798 3.158-1.149V411.31l-3.158-.383v-1.244a21.58 21.58 0 0 1 2.871-.957 48.553 48.553 0 0 1 3.398-.766h1.197v5.36h.047a10.622 10.622 0 0 1 2.896-3.78c1.26-1.053 2.783-1.58 4.57-1.58 1.276 0 2.417.152 3.422.455a5.3 5.3 0 0 1 2.512 1.603c.67.766 1.18 1.795 1.532 3.087.35 1.292.526 2.927.526 4.905v12.108c1.276.223 2.33.606 3.159 1.149v1.196zm14.931-5.456c0-.893-.279-1.65-.837-2.273-.559-.622-1.269-1.204-2.13-1.747a40.304 40.304 0 0 0-2.752-1.579 17.337 17.337 0 0 1-2.752-1.794 9.358 9.358 0 0 1-2.13-2.37c-.558-.893-.837-1.993-.837-3.302 0-.861.2-1.659.599-2.392a6.07 6.07 0 0 1 1.603-1.89 7.83 7.83 0 0 1 2.345-1.245 8.879 8.879 0 0 1 2.871-.455c1.723 0 3.135.096 4.235.287 1.101.192 2.162.463 3.183.814a72.081 72.081 0 0 1-.455 3.087 27.616 27.616 0 0 1-.741 3.182h-1.197l-1.818-4.881a4.514 4.514 0 0 0-1.293-.311 14.91 14.91 0 0 0-1.483-.072c-.574 0-1.077.104-1.508.311-.43.208-.797.47-1.1.79a3.304 3.304 0 0 0-.694 1.1c-.16.415-.24.83-.24 1.245 0 .861.28 1.603.838 2.225.558.622 1.268 1.197 2.13 1.723a48.375 48.375 0 0 0 2.751 1.555c.973.51 1.89 1.085 2.752 1.723a8.794 8.794 0 0 1 2.13 2.225c.558.846.837 1.859.837 3.04 0 1.084-.231 2.057-.694 2.919a6.643 6.643 0 0 1-1.914 2.201c-.814.606-1.755 1.077-2.824 1.412-1.068.335-2.209.502-3.421.502-1.372 0-2.632-.12-3.781-.359a26.874 26.874 0 0 1-3.59-1.028c.065-1.149.208-2.258.431-3.327.224-1.068.51-2.097.862-3.086h1.196l2.106 5.216c.351.255.774.399 1.268.43.495.033.95.049 1.364.049 1.404 0 2.537-.383 3.398-1.149.861-.766 1.292-1.69 1.292-2.776zm41.061 5.456h-12.442v-1.388c1.563-.542 3.03-.925 4.402-1.148v-6.7H459.95v-1.101l17.707-23.737h1.292v22.35h6.078v2.488h-6.078v6.7c1.245.255 2.457.638 3.637 1.148v1.388zm-8.04-24.024l.527-3.446h-.144l-1.866 3.446-8.04 11.055-1.914 1.58 3.397-.336h8.04v-12.3zm16.415 2.871c0-.957.303-1.723.91-2.297.606-.574 1.387-.861 2.345-.861.989 0 1.786.287 2.392.861.607.574.91 1.34.91 2.297 0 .926-.303 1.675-.91 2.25-.606.574-1.403.861-2.392.861-.958 0-1.74-.287-2.345-.861-.607-.575-.91-1.324-.91-2.25zm0 18.425c0-.957.303-1.723.91-2.297.606-.574 1.387-.861 2.345-.861.989 0 1.786.287 2.392.861.607.574.91 1.34.91 2.297 0 .925-.303 1.675-.91 2.25-.606.574-1.403.861-2.392.861-.958 0-1.74-.287-2.345-.861-.607-.575-.91-1.325-.91-2.25zm30.58-33.404h1.197a113.07 113.07 0 0 1-.12 1.603c-.047.59-.119 1.18-.215 1.771-.095.59-.191 1.157-.287 1.699a8.156 8.156 0 0 1-.335 1.34h-11.773l-1.148 9.236h3.11c1.596 0 3.055.216 4.38.646 1.323.431 2.456 1.07 3.397 1.915a8.802 8.802 0 0 1 2.202 3.086c.526 1.213.79 2.6.79 4.164 0 1.85-.32 3.478-.958 4.881-.638 1.404-1.483 2.577-2.536 3.518a10.767 10.767 0 0 1-3.59 2.13c-1.34.478-2.727.717-4.163.717a14.832 14.832 0 0 1-4.235-.67 15.388 15.388 0 0 1-2.034-.79 8.606 8.606 0 0 1-1.627-.98l1.387-4.307h.958c.191.223.43.51.717.861.288.35.583.718.886 1.1l.909 1.15c.303.382.582.717.838 1.004.319.064.614.144.885.24.271.095.694.143 1.268.143 1.053 0 2.018-.207 2.895-.622a7.027 7.027 0 0 0 2.274-1.699 7.76 7.76 0 0 0 1.483-2.512c.351-.958.527-1.994.527-3.111 0-1.276-.24-2.385-.718-3.326a6.24 6.24 0 0 0-1.962-2.297c-.83-.59-1.795-1.03-2.896-1.316a12.39 12.39 0 0 0-3.47-.383l-3.397.048 1.914-16.607h11.39l2.058-2.632z" fill="#212121"/>
        <g>
            <path d="M97 489.445C278.074 634.887 545.332 633.441 715.035 489"/>
            <text font-family="HelveticaNeue, Helvetica Neue" font-size="50" fill="#212121" transform="translate(97 454)">
                <tspan x="152.1" y="48">My Wickedness</tspan>
            </text>
        </g>
        <g>
            <path d="M97 143.485C278.074-1.957 545.332-.512 715.035 143.93"/>
            <text font-family="HelveticaNeue, Helvetica Neue" font-size="50" fill="#212121" transform="translate(97)">
                <tspan x="71.1" y="48">Christ&apos;s Righteousness</tspan>
            </text>
        </g>
    </g>
</svg>
