<svg width="500" height="290" viewBox="0 0 500 290" xmlns="http://www.w3.org/2000/svg">
    <title>
        Color Full
    </title>
    <g fill="none" fill-rule="evenodd">
        <rect fill="#FFF" x="2.5" y="2.5" width="495" height="285" rx="39"/>
        <path d="M17 40.992v208.016C17 262.253 27.747 273 40.997 273h418.006C472.26 273 483 262.26 483 249.008V40.992C483 27.747 472.253 17 459.003 17H40.997C27.74 17 17 27.74 17 40.992zm-17 0C0 18.352 18.35 0 40.997 0h418.006C481.645 0 500 18.36 500 40.992v208.016c0 22.64-18.35 40.992-40.997 40.992H40.997C18.355 290 0 271.64 0 249.008V40.992z" fill="#0D47A1"/>
        <g fill="#0D47A1">
            <path d="M41.663 214.692h22.248v7.216H49.98v5.37H62.9v6.892H49.98v6.662h14.332v7.655h-22.65zM88.794 248.487H81.83v-3.964c-1.037 1.629-2.084 2.787-3.142 3.48-1.058.692-2.355 1.036-3.896 1.036-2.052 0-3.66-.77-4.825-2.317-1.167-1.544-1.752-3.922-1.752-7.133v-15.583h7.496v13.463c0 1.536.224 2.627.676 3.273.451.644 1.089.968 1.907.968.891 0 1.622-.429 2.189-1.291.57-.86.852-2.406.852-4.635v-11.778h7.46v24.481zM93.393 224.006h6.98v4.01c.674-1.736 1.368-2.93 2.082-3.584.715-.653 1.596-.98 2.65-.98 1.098 0 2.303.43 3.608 1.291l-2.309 6.686c-.88-.462-1.577-.693-2.089-.693-.977 0-1.734.506-2.273 1.521-.77 1.43-1.152 4.106-1.152 8.023v8.208h-7.497v-24.482zM117.142 236.292c0 2.183.35 3.797 1.054 4.842.703 1.044 1.586 1.567 2.65 1.567 1.072 0 1.954-.515 2.647-1.545.69-1.03 1.035-2.68 1.035-4.956 0-2.12-.35-3.7-1.045-4.738-.699-1.037-1.56-1.556-2.585-1.556-1.086 0-1.984.527-2.692 1.58-.711 1.052-1.064 2.654-1.064 4.806m-7.477.024c0-3.734 1.005-6.812 3.008-9.233 2-2.422 4.707-3.632 8.115-3.632 3.897 0 6.842 1.421 8.833 4.265 1.6 2.292 2.402 5.11 2.402 8.46 0 3.765-.992 6.85-2.978 9.257-1.985 2.405-4.73 3.607-8.236 3.607-3.13 0-5.657-.998-7.589-2.997-2.37-2.474-3.555-5.716-3.555-9.727M146.736 214.692h25.233v8.346h-8.466v25.449h-8.3v-25.45h-8.467zM186.995 234.08c-.146-1.813-.533-3.114-1.163-3.896-.629-.783-1.457-1.176-2.484-1.176-1.184 0-2.131.591-2.84 1.776-.452.736-.739 1.836-.861 3.296h7.348zm7.587 4.493h-14.953c.134 1.509.458 2.63.97 3.367.722 1.06 1.666 1.592 2.822 1.592.735 0 1.432-.23 2.091-.693.405-.292.838-.807 1.302-1.543l7.348.851c-1.124 2.46-2.48 4.224-4.069 5.291-1.588 1.069-3.868 1.601-6.835 1.601-2.577 0-4.606-.456-6.084-1.37-1.48-.915-2.705-2.368-3.674-4.358-.972-1.99-1.458-4.33-1.458-7.02 0-3.826.975-6.92 2.925-9.29 1.946-2.366 4.638-3.55 8.07-3.55 2.785 0 4.986.531 6.598 1.592 1.612 1.06 2.84 2.597 3.684 4.61.843 2.014 1.263 4.634 1.263 7.86v1.06zM211.276 236.869a30.5 30.5 0 0 1-3.206 1.222c-1.517.506-2.474 1.005-2.877 1.498a2.657 2.657 0 0 0-.625 1.729c0 .737.206 1.341.615 1.81.41.468 1.01.702 1.804.702.83 0 1.604-.253 2.32-.761.714-.506 1.222-1.125 1.52-1.856.298-.729.45-1.678.45-2.847v-1.497zm-6.468-4.934l-7.13-.944c.269-1.568.658-2.801 1.164-3.7.51-.901 1.237-1.68 2.192-2.34.682-.477 1.625-.846 2.82-1.108a18.26 18.26 0 0 1 3.884-.392c2.237 0 4.032.158 5.389.474 1.356.314 2.484.972 3.39 1.97.634.692 1.138 1.672 1.502 2.94.366 1.268.55 2.476.55 3.63v10.81c0 1.155.059 2.059.174 2.71.115.654.37 1.488.76 2.502h-6.999c-.283-.63-.464-1.109-.55-1.441-.087-.332-.172-.85-.256-1.557-.978 1.185-1.95 2.03-2.913 2.536-1.321.677-2.853 1.014-4.6 1.014-2.322 0-4.085-.675-5.289-2.027-1.202-1.352-1.802-3.02-1.802-5.002 0-1.86.432-3.39 1.299-4.59.867-1.196 2.468-2.089 4.802-2.671 2.798-.707 4.61-1.204 5.442-1.488a21.89 21.89 0 0 0 2.64-1.119c0-1.151-.19-1.958-.57-2.42-.376-.461-1.042-.692-1.996-.692-1.222 0-2.14.247-2.749.74-.477.383-.861 1.105-1.154 2.165zM223.095 224.006h6.965v3.572c1-1.49 2.013-2.55 3.034-3.182 1.022-.629 2.256-.945 3.7-.945 1.551 0 2.782.346 3.689 1.039.905.692 1.644 1.721 2.22 3.088 1.17-1.598 2.238-2.684 3.203-3.26.96-.578 2.151-.867 3.567-.867 2.088 0 3.717.781 4.887 2.341 1.17 1.56 1.755 4 1.755 7.32v15.376h-7.474V234.54c0-1.106-.173-1.929-.514-2.468-.498-.844-1.119-1.267-1.861-1.267-.878 0-1.584.4-2.118 1.198-.538.8-.804 2.082-.804 3.852v12.632h-7.476V235c0-1.073-.05-1.803-.146-2.188-.16-.614-.437-1.111-.83-1.488a1.917 1.917 0 0 0-1.379-.564c-.857 0-1.562.407-2.115 1.223-.55.814-.827 2.15-.827 4.01v12.495h-7.476v-24.482zM280.837 231.66c0 3.41.503 5.863 1.51 7.352 1.009 1.491 2.38 2.236 4.116 2.236 1.782 0 3.163-.729 4.141-2.19.978-1.46 1.466-4.08 1.466-7.86 0-3.182-.51-5.507-1.53-6.974-1.021-1.467-2.404-2.202-4.153-2.202-1.672 0-3.017.746-4.03 2.236-1.015 1.492-1.52 3.958-1.52 7.401m-8.301-.045c0-5.518 1.22-9.815 3.664-12.888 2.442-3.073 5.845-4.61 10.206-4.61 4.47 0 7.919 1.51 10.337 4.53 2.42 3.02 3.628 7.25 3.628 12.69 0 3.95-.529 7.19-1.584 9.717-1.059 2.527-2.585 4.495-4.581 5.902-1.999 1.406-4.488 2.108-7.47 2.108-3.028 0-5.536-.607-7.521-1.822-1.984-1.212-3.596-3.134-4.829-5.762-1.234-2.628-1.85-5.917-1.85-9.865M324.853 248.487h-6.963v-3.964c-1.04 1.629-2.086 2.787-3.144 3.48-1.055.692-2.354 1.036-3.892 1.036-2.055 0-3.661-.77-4.828-2.317-1.167-1.544-1.751-3.922-1.751-7.133v-15.583h7.495v13.463c0 1.536.225 2.627.676 3.273.454.644 1.088.968 1.907.968.891 0 1.621-.429 2.191-1.291.566-.86.852-2.406.852-4.635v-11.778h7.457v24.481zM338.376 214.692v9.314h4.106v6.869h-4.106v8.673c0 1.043.078 1.734.24 2.072.243.52.67.782 1.281.782.55 0 1.32-.2 2.31-.6l.548 6.477c-1.845.508-3.566.76-5.168.76-1.854 0-3.223-.3-4.103-.898-.88-.597-1.532-1.507-1.952-2.727-.421-1.22-.632-3.197-.632-5.927v-8.612h-2.75v-6.869h2.75v-4.496l7.476-4.818zM346.109 224.006h6.981v4.01c.672-1.736 1.367-2.93 2.08-3.584.716-.653 1.597-.98 2.65-.98 1.099 0 2.304.43 3.61 1.291l-2.31 6.686c-.88-.462-1.576-.693-2.09-.693-.976 0-1.734.506-2.272 1.521-.767 1.43-1.153 4.106-1.153 8.023v8.208h-7.496v-24.482zM377.316 234.08c-.145-1.813-.533-3.114-1.163-3.896-.63-.783-1.459-1.176-2.483-1.176-1.185 0-2.131.591-2.84 1.776-.452.736-.74 1.836-.86 3.296h7.346zm7.588 4.493H369.95c.134 1.509.458 2.63.97 3.367.722 1.06 1.663 1.592 2.823 1.592.733 0 1.43-.23 2.089-.693.403-.292.837-.807 1.3-1.543l7.35.851c-1.123 2.46-2.482 4.224-4.07 5.291-1.587 1.069-3.866 1.601-6.833 1.601-2.58 0-4.609-.456-6.083-1.37-1.48-.915-2.705-2.368-3.675-4.358-.973-1.99-1.458-4.33-1.458-7.02 0-3.826.976-6.92 2.923-9.29 1.948-2.366 4.641-3.55 8.073-3.55 2.785 0 4.982.531 6.594 1.592 1.614 1.06 2.842 2.597 3.684 4.61.845 2.014 1.267 4.634 1.267 7.86v1.06zM401.598 236.869c-1.028.46-2.1.868-3.207 1.222-1.516.506-2.474 1.005-2.877 1.498a2.657 2.657 0 0 0-.625 1.729c0 .737.205 1.341.616 1.81.408.468 1.01.702 1.804.702.83 0 1.603-.253 2.319-.761.713-.506 1.221-1.125 1.52-1.856.3-.729.45-1.678.45-2.847v-1.497zm-6.468-4.934l-7.13-.944c.27-1.568.657-2.801 1.164-3.7.506-.901 1.236-1.68 2.188-2.34.685-.477 1.625-.846 2.82-1.108 1.2-.26 2.495-.392 3.887-.392 2.235 0 4.033.158 5.388.474 1.355.314 2.486.972 3.389 1.97.637.692 1.137 1.672 1.504 2.94s.549 2.476.549 3.63v10.81c0 1.155.06 2.059.175 2.71.116.654.37 1.488.762 2.502h-7.001c-.282-.63-.466-1.109-.55-1.441-.086-.332-.172-.85-.255-1.557-.98 1.185-1.949 2.03-2.917 2.536-1.317.677-2.852 1.014-4.598 1.014-2.322 0-4.083-.675-5.288-2.027-1.202-1.352-1.803-3.02-1.803-5.002 0-1.86.434-3.39 1.3-4.59.867-1.196 2.467-2.089 4.802-2.671 2.798-.707 4.612-1.204 5.441-1.488.831-.284 1.711-.657 2.641-1.119 0-1.151-.19-1.958-.57-2.42-.377-.461-1.043-.692-1.997-.692-1.222 0-2.139.247-2.749.74-.478.383-.863 1.105-1.152 2.165zM427.874 238.898l7.094 1.015c-.391 1.858-1.035 3.468-1.926 4.829-.892 1.358-2.03 2.417-3.419 3.168-1.386.754-3.147 1.13-5.287 1.13-2.063 0-3.784-.24-5.155-.726a8.587 8.587 0 0 1-3.548-2.35c-.988-1.082-1.765-2.35-2.328-3.81-.562-1.458-.841-3.393-.841-5.804 0-2.518.34-4.615 1.026-6.289a11.436 11.436 0 0 1 2.052-3.304c.867-.974 1.759-1.7 2.673-2.177 1.456-.751 3.32-1.129 5.592-1.129 3.175 0 5.597.715 7.265 2.144 1.668 1.431 2.837 3.52 3.51 6.27l-7.021 1.177c-.22-1.045-.62-1.833-1.199-2.363-.58-.531-1.359-.794-2.336-.794-1.232 0-2.234.555-2.997 1.666-.764 1.113-1.145 2.797-1.145 5.051 0 2.01.378 3.537 1.135 4.58.759 1.043 1.725 1.564 2.896 1.564.978 0 1.8-.313 2.464-.945.667-.63 1.163-1.598 1.495-2.903M437.75 214.692h7.46v12.448c1.013-1.32 2.022-2.269 3.024-2.834 1.001-.569 2.188-.855 3.553-.855 2.028 0 3.626.777 4.793 2.33 1.168 1.552 1.75 3.933 1.75 7.146v15.56h-7.494v-13.462c0-1.538-.227-2.624-.679-3.262-.452-.64-1.087-.956-1.906-.956-.904 0-1.637.429-2.2 1.29-.562.86-.84 2.405-.84 4.634v11.756h-7.46v-33.795z"/>
        </g>
        <g fill="#0D47A1">
            <path d="M83.333 164.277v-29.243h73.53v-34.118h-73.53V77.765h79.657V42.429H41.667v158.403H165.44V164.277h-6.01zM180.493 42.429h-5.248v35.336H218.137v123.067h42.893V77.765H305.147V42.429h-6.853zM417.252 120.825c0 15.098-3.271 26.41-9.726 33.618-6.375 7.118-14.334 10.58-24.338 10.58-10.007 0-18.02-3.497-24.495-10.69-6.544-7.268-9.858-18.41-9.858-33.12 0-14.967 3.218-26.146 9.569-33.223 6.278-6.993 14.385-10.394 24.784-10.394 10.4 0 18.46 3.354 24.637 10.247 6.253 6.978 9.427 18.076 9.427 32.982m20.453-57.634c-13.735-14.114-32.177-21.27-54.809-21.27-12.39 0-23.536 2.049-33.14 6.088-7.368 3.059-14.236 7.807-20.385 14.1-6.084 6.22-10.95 13.347-14.47 21.185-4.683 10.56-7.05 23.638-7.05 38.894 0 24.115 6.892 43.423 20.48 57.39 13.637 14.016 32.123 21.122 54.958 21.122 22.572 0 40.932-7.143 54.573-21.23 13.581-14.03 20.468-33.533 20.468-57.964 0-24.632-6.94-44.252-20.625-58.315"/>
        </g>
    </g>
</svg>
