<?xml version="1.0" encoding="UTF-8" standalone="no"?>
<svg width="500px" height="290px" viewBox="0 0 500 290" version="1.1" xmlns="http://www.w3.org/2000/svg" xmlns:xlink="http://www.w3.org/1999/xlink">
    <!-- Generator: Sketch 3.7.1 (28215) - http://www.bohemiancoding.com/sketch -->
    <title>Color Full</title>
    <desc>Created with Sketch.</desc>
    <defs></defs>
    <g id="Full-Logos" stroke="none" stroke-width="1" fill="none" fill-rule="evenodd">
        <g id="Color-Full">
            <g id="ETO-Logo-Color">
                <rect id="Rectangle-1" fill="#FFFFFF" x="2.5" y="2.5" width="495" height="285" rx="39"></rect>
                <path d="M17,40.9923593 L17,40.9923593 L17,249.007641 C17,262.253186 27.7465265,273 40.9967173,273 L459.003283,273 C472.259027,273 483,262.259458 483,249.007641 L483,40.9923593 C483,27.7468145 472.253474,17 459.003283,17 L40.9967173,17 C27.7409731,17 17,27.7405419 17,40.9923593 L17,40.9923593 Z M0,40.9923593 C0,18.3529044 18.350929,0 40.9967173,0 L459.003283,0 C481.645144,0 500,18.360804 500,40.9923593 L500,249.007641 C500,271.647096 481.649071,290 459.003283,290 L40.9967173,290 C18.3548555,290 0,271.639196 0,249.007641 L0,40.9923593 L0,40.9923593 Z" id="Rectangle-1" fill="#0D47A1"></path>
                <g id="Euro-Team-Outreach" transform="translate(41.000000, 214.000000)" fill="#0D47A1">
                    <polygon id="Fill-6" points="0.663112745 0.692226891 22.9106618 0.692226891 22.9106618 7.90810924 8.98051471 7.90810924 8.98051471 13.2779832 21.9008578 13.2779832 21.9008578 20.1697479 8.98051471 20.1697479 8.98051471 26.832437 23.3126225 26.832437 23.3126225 34.4869748 0.663112745 34.4869748"></polygon>
                    <path d="M47.7942402,34.4874622 L40.8297794,34.4874622 L40.8297794,30.5225042 C39.7930147,32.1516218 38.7464461,33.3104034 37.6876225,34.0037227 C36.6300245,34.694605 35.3334559,35.039437 33.7917892,35.039437 C31.7403186,35.039437 30.13125,34.2681345 28.9670343,32.7218739 C27.8003676,31.1780504 27.2145833,28.799563 27.2145833,25.5888487 L27.2145833,10.0056134 L34.7109069,10.0056134 L34.7109069,23.4686807 C34.7109069,25.0051933 34.9351716,26.0957395 35.3873775,26.7415378 C35.8383578,27.3861176 36.4756127,27.7102353 37.2942402,27.7102353 C38.1851716,27.7102353 38.9155637,27.2813277 39.4829657,26.4186387 C40.0528186,25.5583866 40.3346814,24.0133445 40.3346814,21.7835126 L40.3346814,10.0056134 L47.7942402,10.0056134 L47.7942402,34.4874622 Z" id="Fill-8"></path>
                    <path d="M52.3933824,10.0058571 L59.3737745,10.0058571 L59.3737745,14.0158992 C60.0465686,12.2795546 60.7414216,11.085437 61.4546569,10.4323277 C62.1703431,9.77921849 63.0514706,9.45144538 64.1041667,9.45144538 C65.2034314,9.45144538 66.4080882,9.88157143 67.7132353,10.743042 L65.4044118,17.4288824 C64.5245098,16.9670756 63.8272059,16.735563 63.314951,16.735563 C62.3382353,16.735563 61.5808824,17.2424538 61.0416667,18.2574538 C60.2720588,19.6867395 59.8897059,22.3625378 59.8897059,26.2799748 L59.8897059,34.4877059 L52.3933824,34.4877059 L52.3933824,10.0058571 Z" id="Fill-10"></path>
                    <path d="M76.1420343,22.2918655 C76.1420343,24.475395 76.4925245,26.0886723 77.1959559,27.1341345 C77.8993873,28.1783782 78.7817402,28.7011092 79.8454657,28.7011092 C80.9177696,28.7011092 81.8001225,28.1856891 82.4925245,27.1560672 C83.1824755,26.1264454 83.5280637,24.475395 83.5280637,22.200479 C83.5280637,20.0803109 83.178799,18.4999328 82.4827206,17.4617815 C81.7841912,16.4248487 80.9226716,15.9057731 79.8981618,15.9057731 C78.8123775,15.9057731 77.9140931,16.4333782 77.2057598,17.4861513 C76.4949755,18.5377059 76.1420343,20.1400168 76.1420343,22.2918655 M68.6653186,22.3162353 C68.6653186,18.5815714 69.6702206,15.5036723 71.6726716,13.0825378 C73.6726716,10.6614034 76.3797794,9.45144538 79.7878676,9.45144538 C83.6849265,9.45144538 86.6297794,10.8722017 88.621201,13.7161513 C90.2216912,16.0081261 91.0231618,18.8264874 91.0231618,22.1761092 C91.0231618,25.9412353 90.0305147,29.0264454 88.0452206,31.432958 C86.0599265,33.8382521 83.3148284,35.0396807 79.808701,35.0396807 C76.678799,35.0396807 74.1518382,34.0417395 72.2204657,32.0434202 C69.8503676,29.5686723 68.6653186,26.3274958 68.6653186,22.3162353" id="Fill-12"></path>
                    <polygon id="Fill-14" points="105.735662 0.692226891 130.968505 0.692226891 130.968505 9.03764706 122.502819 9.03764706 122.502819 34.4869748 114.202574 34.4869748 114.202574 9.03764706 105.735662 9.03764706"></polygon>
                    <path d="M145.994975,20.0797017 C145.849142,18.2665924 145.461887,16.9664664 144.831985,16.1841975 C144.203309,15.4007101 143.374877,15.0083571 142.347917,15.0083571 C141.164093,15.0083571 140.216789,15.5993235 139.50723,16.7836933 C139.05625,17.5196597 138.769485,18.6199538 138.646936,20.0797017 L145.994975,20.0797017 Z M153.581985,24.5734832 L138.628554,24.5734832 C138.763358,26.0819706 139.086887,27.202979 139.599142,27.9401639 C140.320956,29.0002479 141.264583,29.5315084 142.421446,29.5315084 C143.155515,29.5315084 143.852819,29.3012143 144.512132,28.8394076 C144.916544,28.5469706 145.350368,28.0315504 145.813603,27.295584 L153.161642,28.1473067 C152.037868,30.6062143 150.68125,32.370584 149.093015,33.437979 C147.504779,34.5065924 145.225368,35.0390714 142.258456,35.0390714 C139.68125,35.0390714 137.651838,34.5833571 136.173897,33.6682731 C134.69473,32.7544076 133.46924,31.3007521 132.499877,29.3109622 C131.528064,27.3211723 131.041544,24.9816765 131.041544,22.2912563 C131.041544,18.4652059 132.017034,15.3702479 133.966789,13.0015084 C135.912868,10.6352059 138.60527,9.45083613 142.036642,9.45083613 C144.822181,9.45083613 147.023162,9.98209664 148.634681,11.0433992 C150.247426,12.1022647 151.475368,13.6399958 152.318505,15.652937 C153.161642,17.6670966 153.581985,20.2868445 153.581985,23.5133992 L153.581985,24.5734832 Z" id="Fill-16"></path>
                    <path d="M170.276225,22.8689412 C169.249265,23.3295294 168.180637,23.7365042 167.070343,24.091084 C165.553186,24.5967563 164.596078,25.0963361 164.192892,25.588605 C163.777451,26.0954958 163.567892,26.6730588 163.567892,27.3176387 C163.567892,28.0548235 163.773775,28.6591933 164.183088,29.1283109 C164.592402,29.5962101 165.192892,29.8301597 165.98701,29.8301597 C166.817892,29.8301597 167.591176,29.5767143 168.306863,29.068605 C169.021324,28.5629328 169.528676,27.9439412 169.827696,27.2128487 C170.12549,26.4841933 170.276225,25.5349916 170.276225,24.3664622 L170.276225,22.8689412 Z M163.808088,17.9352857 L156.678186,16.990958 C156.946569,15.4227647 157.336275,14.1896555 157.842402,13.2904118 C158.352206,12.3899496 159.078922,11.6113361 160.033578,10.950916 C160.716176,10.4744874 161.658578,10.1052857 162.854657,9.84331092 C164.054412,9.58255462 165.347304,9.45095798 166.738235,9.45095798 C168.974755,9.45095798 170.770098,9.60936134 172.126716,9.92494958 C173.483333,10.2393193 174.610784,10.8973025 175.517647,11.8952437 C176.151225,12.5873445 176.654902,13.5670084 177.018873,14.8342353 C177.385294,16.1026807 177.569118,17.3114202 177.569118,18.4653277 L177.569118,29.2757479 C177.569118,30.4296555 177.627941,31.3337731 177.743137,31.9856639 C177.858333,32.6387731 178.113235,33.473437 178.502941,34.4872185 L171.504167,34.4872185 C171.221078,33.8572605 171.039706,33.378395 170.953922,33.0457479 C170.866912,32.7143193 170.782353,32.1964622 170.697794,31.488521 C169.719853,32.6741092 168.748039,33.518521 167.784804,34.0254118 C166.463725,34.7016723 164.931863,35.0391933 163.184314,35.0391933 C160.863235,35.0391933 159.099755,34.3641513 157.896324,33.0116303 C156.694118,31.6603277 156.093627,29.9922185 156.093627,28.0097395 C156.093627,26.1503277 156.526225,24.6199076 157.392647,23.420916 C158.260294,22.2243613 159.860784,21.3312101 162.195343,20.7487731 C164.993137,20.0420504 166.805637,19.5449076 167.63652,19.261 C168.466176,18.9770924 169.347304,18.6042353 170.276225,18.1424286 C170.276225,16.990958 170.086275,16.1843193 169.707598,15.7225126 C169.331373,15.2607059 168.664706,15.0304118 167.711275,15.0304118 C166.489461,15.0304118 165.571569,15.2765462 164.9625,15.7700336 C164.484559,16.1526387 164.10098,16.8752017 163.808088,17.9352857 L163.808088,17.9352857 Z" id="Fill-18"></path>
                    <path d="M182.095466,10.0058571 L189.059926,10.0058571 L189.059926,13.5784622 C190.059926,12.0882521 191.073407,11.0281681 192.09424,10.3957731 C193.116299,9.76703361 194.350368,9.45144538 195.793995,9.45144538 C197.345466,9.45144538 198.575858,9.7974958 199.482721,10.4895966 C200.388358,11.1816975 201.127328,12.2113193 201.702083,13.5784622 C202.873652,11.9798067 203.941054,10.8941345 204.905515,10.3177899 C205.866299,9.74022689 207.057475,9.45144538 208.472917,9.45144538 C210.561152,9.45144538 212.189828,10.2324958 213.360172,11.7921597 C214.530515,13.3518235 215.115074,15.7912353 215.115074,19.1116134 L215.115074,34.4877059 L207.640809,34.4877059 L207.640809,20.5408992 C207.640809,19.4345126 207.468015,18.6120336 207.127328,18.0734622 C206.628554,17.2290504 206.008456,16.8062353 205.265809,16.8062353 C204.388358,16.8062353 203.682475,17.2058992 203.148162,18.0040084 C202.610172,18.8045546 202.34424,20.0864034 202.34424,21.8556471 L202.34424,34.4877059 L194.867525,34.4877059 L194.867525,21.0002689 C194.867525,19.9267815 194.817279,19.1969076 194.721691,18.8118655 C194.561152,18.1977479 194.285417,17.700605 193.892034,17.3240924 C193.501103,16.9463613 193.041544,16.7599328 192.513358,16.7599328 C191.655515,16.7599328 190.950858,17.1669076 190.398162,17.9832941 C189.847917,18.7972437 189.570956,20.1339244 189.570956,21.9921176 L189.570956,34.4877059 L182.095466,34.4877059 L182.095466,10.0058571 Z" id="Fill-20"></path>
                    <path d="M239.837132,17.6594202 C239.837132,21.0699664 240.339583,23.5227815 241.346936,25.0117731 C242.355515,26.5032017 243.726838,27.2476975 245.463358,27.2476975 C247.245221,27.2476975 248.626348,26.519042 249.604289,25.0580756 C250.58223,23.5983277 251.069975,20.9773613 251.069975,17.1976134 C251.069975,14.0161429 250.560172,11.6912689 249.539338,10.2242101 C248.518505,8.75715126 247.136152,8.02240336 245.387377,8.02240336 C243.714583,8.02240336 242.370221,8.76811765 241.35674,10.2583277 C240.342034,11.7497563 239.837132,14.2159748 239.837132,17.6594202 M231.535662,17.6143361 C231.535662,12.0958067 232.75625,7.79942017 235.199877,4.72639496 C237.642279,1.65336975 241.045466,0.115638655 245.40576,0.115638655 C249.876348,0.115638655 253.324877,1.62656303 255.74277,4.64597479 C258.163113,7.66660504 259.371446,11.8959748 259.371446,17.3353025 C259.371446,21.2868571 258.842034,24.5255966 257.786887,27.0527395 C256.728064,29.5798824 255.202328,31.5477395 253.206005,32.9550924 C251.20723,34.3612269 248.71826,35.0630756 245.736642,35.0630756 C242.708456,35.0630756 240.199877,34.4562689 238.214583,33.241437 C236.230515,32.029042 234.618995,30.1074874 233.386152,27.4792101 C232.152083,24.8509328 231.535662,21.5622353 231.535662,17.6143361" id="Fill-22"></path>
                    <path d="M283.853064,34.4874622 L276.889828,34.4874622 L276.889828,30.5225042 C275.850613,32.1516218 274.804044,33.3104034 273.746446,34.0037227 C272.691299,34.694605 271.392279,35.039437 269.854289,35.039437 C267.799142,35.039437 266.192525,34.2681345 265.025858,32.7218739 C263.859191,31.1780504 263.274632,28.799563 263.274632,25.5888487 L263.274632,10.0056134 L270.76973,10.0056134 L270.76973,23.4686807 C270.76973,25.0051933 270.995221,26.0957395 271.446201,26.7415378 C271.899632,27.3861176 272.534436,27.7102353 273.353064,27.7102353 C274.243995,27.7102353 274.974387,27.2813277 275.54424,26.4186387 C276.110417,25.5583866 276.395956,24.0133445 276.395956,21.7835126 L276.395956,10.0056134 L283.853064,10.0056134 L283.853064,34.4874622 Z" id="Fill-24"></path>
                    <path d="M297.376471,0.692226891 L297.376471,10.0063445 L301.481863,10.0063445 L301.481863,16.874958 L297.376471,16.874958 L297.376471,25.5481513 C297.376471,26.5911765 297.453676,27.2820588 297.615441,27.6195798 C297.859314,28.1398739 298.285784,28.4018487 298.897304,28.4018487 C299.446324,28.4018487 300.217157,28.2020168 301.207353,27.8023529 L301.755147,34.2786134 C299.909559,34.7867227 298.188971,35.0389496 296.587255,35.0389496 C294.733088,35.0389496 293.364216,34.7392017 292.484314,34.1409244 C291.604412,33.5438655 290.952451,32.6336555 290.532108,31.4139496 C290.110539,30.1942437 289.899755,28.2166387 289.899755,25.4872269 L289.899755,16.874958 L287.149755,16.874958 L287.149755,10.0063445 L289.899755,10.0063445 L289.899755,5.51012605 L297.376471,0.692226891 Z" id="Fill-26"></path>
                    <path d="M305.108824,10.0058571 L312.090441,10.0058571 L312.090441,14.0158992 C312.76201,12.2795546 313.456863,11.085437 314.170098,10.4323277 C314.885784,9.77921849 315.766912,9.45144538 316.819608,9.45144538 C317.918873,9.45144538 319.123529,9.88157143 320.429902,10.743042 L318.119853,17.4288824 C317.239951,16.9670756 316.543873,16.735563 316.030392,16.735563 C315.053676,16.735563 314.296324,17.2424538 313.758333,18.2574538 C312.991176,19.6867395 312.605147,22.3625378 312.605147,26.2799748 L312.605147,34.4877059 L305.108824,34.4877059 L305.108824,10.0058571 Z" id="Fill-28"></path>
                    <path d="M336.315686,20.0797017 C336.171078,18.2665924 335.782598,16.9664664 335.152696,16.1841975 C334.522794,15.4007101 333.694363,15.0083571 332.669853,15.0083571 C331.484804,15.0083571 330.538725,15.5993235 329.829167,16.7836933 C329.378186,17.5196597 329.090196,18.6199538 328.970098,20.0797017 L336.315686,20.0797017 Z M343.903922,24.5734832 L328.95049,24.5734832 C329.084069,26.0819706 329.407598,27.202979 329.919853,27.9401639 C330.641667,29.0002479 331.582843,29.5315084 332.743382,29.5315084 C333.476225,29.5315084 334.173529,29.3012143 334.831618,28.8394076 C335.234804,28.5469706 335.668627,28.0315504 336.131863,27.295584 L343.482353,28.1473067 C342.358578,30.6062143 340.99951,32.370584 339.4125,33.437979 C337.82549,34.5065924 335.546078,35.0390714 332.579167,35.0390714 C329.99951,35.0390714 327.970098,34.5833571 326.495833,33.6682731 C325.015441,32.7544076 323.791176,31.3007521 322.820588,29.3109622 C321.847549,27.3211723 321.36348,24.9816765 321.36348,22.2912563 C321.36348,18.4652059 322.338971,15.3702479 324.286275,13.0015084 C326.233578,10.6352059 328.927206,9.45083613 332.358578,9.45083613 C335.144118,9.45083613 337.341422,9.98209664 338.952941,11.0433992 C340.566912,12.1022647 341.794853,13.6399958 342.636765,15.652937 C343.482353,17.6670966 343.903922,20.2868445 343.903922,23.5133992 L343.903922,24.5734832 Z" id="Fill-30"></path>
                    <path d="M360.598162,22.8689412 C359.569975,23.3295294 358.498897,23.7365042 357.391054,24.091084 C355.875123,24.5967563 354.916789,25.0963361 354.513603,25.588605 C354.098162,26.0954958 353.888603,26.6730588 353.888603,27.3176387 C353.888603,28.0548235 354.094485,28.6591933 354.505025,29.1283109 C354.913113,29.5962101 355.514828,29.8301597 356.308946,29.8301597 C357.138603,29.8301597 357.911887,29.5767143 358.627574,29.068605 C359.340809,28.5629328 359.849387,27.9439412 360.147181,27.2128487 C360.447426,26.4841933 360.598162,25.5349916 360.598162,24.3664622 L360.598162,22.8689412 Z M354.130025,17.9352857 L347.000123,16.990958 C347.26973,15.4227647 347.656985,14.1896555 348.164338,13.2904118 C348.670466,12.3899496 349.399632,11.6113361 350.351838,10.950916 C351.036887,10.4744874 351.976838,10.1052857 353.172917,9.84331092 C354.372672,9.58255462 355.666789,9.45095798 357.058946,9.45095798 C359.29424,9.45095798 361.092034,9.60936134 362.447426,9.92494958 C363.801593,10.2393193 364.932721,10.8973025 365.835907,11.8952437 C366.473162,12.5873445 366.973162,13.5670084 367.339583,14.8342353 C367.70723,16.1026807 367.888603,17.3114202 367.888603,18.4653277 L367.888603,29.2757479 C367.888603,30.4296555 367.948652,31.3337731 368.063848,31.9856639 C368.18027,32.6387731 368.433946,33.473437 368.826103,34.4872185 L361.824877,34.4872185 C361.543015,33.8572605 361.359191,33.378395 361.274632,33.0457479 C361.188848,32.7143193 361.103064,32.1964622 361.01973,31.488521 C360.040564,32.6741092 359.071201,33.518521 358.103064,34.0254118 C356.785662,34.7016723 355.251348,35.0391933 353.505025,35.0391933 C351.182721,35.0391933 349.421691,34.3641513 348.217034,33.0116303 C347.014828,31.6603277 346.414338,29.9922185 346.414338,28.0097395 C346.414338,26.1503277 346.848162,24.6199076 347.714583,23.420916 C348.581005,22.2243613 350.181495,21.3312101 352.516054,20.7487731 C355.313848,20.0420504 357.127574,19.5449076 357.95723,19.261 C358.788113,18.9770924 359.668015,18.6042353 360.598162,18.1424286 C360.598162,16.990958 360.408211,16.1843193 360.028309,15.7225126 C359.650858,15.2607059 358.985417,15.0304118 358.03076,15.0304118 C356.808946,15.0304118 355.892279,15.2765462 355.281985,15.7700336 C354.804044,16.1526387 354.41924,16.8752017 354.130025,17.9352857 L354.130025,17.9352857 Z" id="Fill-32"></path>
                    <path d="M386.874387,24.8977227 L393.967525,25.9127227 C393.576593,27.770916 392.933211,29.3805378 392.042279,30.7415882 C391.150123,32.1002017 390.011642,33.1590672 388.623162,33.9096555 C387.237132,34.6638992 385.476103,35.0391933 383.336397,35.0391933 C381.272672,35.0391933 379.552083,34.7991513 378.18076,34.3141933 C376.802083,33.8304538 375.621936,33.0469664 374.632966,31.9649496 C373.645221,30.8817143 372.86826,29.6132689 372.304534,28.1547395 C371.74326,26.6962101 371.463848,24.7612521 371.463848,22.3498655 C371.463848,19.8324706 371.804534,17.7354538 372.489583,16.0612521 C372.989583,14.8330168 373.675858,13.7327227 374.542279,12.7567143 C375.408701,11.7831429 376.300858,11.0569244 377.215074,10.5804958 C378.670956,9.82868908 380.534926,9.45095798 382.806985,9.45095798 C385.98223,9.45095798 388.403799,10.1662101 390.071691,11.5954958 C391.739583,13.026 392.908701,15.1157059 393.582721,17.8658319 L386.560662,19.0416723 C386.341299,17.9974286 385.941789,17.2090672 385.362132,16.6790252 C384.78125,16.1477647 384.003064,15.8845714 383.026348,15.8845714 C381.793505,15.8845714 380.792279,16.4402017 380.028799,17.5514622 C379.265319,18.6639412 378.884191,20.3478908 378.884191,22.6020924 C378.884191,24.6125966 379.261642,26.1393613 380.018995,27.1811681 C380.777574,28.2254118 381.744485,28.7457059 382.914828,28.7457059 C383.89277,28.7457059 384.715074,28.4325546 385.379289,27.8013782 C386.045956,27.1714202 386.542279,26.2027227 386.874387,24.8977227" id="Fill-34"></path>
                    <path d="M396.750123,0.692226891 L404.210907,0.692226891 L404.210907,13.1402941 C405.223162,11.8194538 406.23174,10.8714706 407.234191,10.3060924 C408.235417,9.73705882 409.421691,9.45071429 410.786887,9.45071429 C412.815074,9.45071429 414.413113,10.2281092 415.579779,11.7816807 C416.747672,13.3328151 417.329779,15.7137395 417.329779,18.9268908 L417.329779,34.4869748 L409.835907,34.4869748 L409.835907,21.0251261 C409.835907,19.487395 409.609191,18.4005042 409.156985,17.7632353 C408.704779,17.1235294 408.069975,16.8067227 407.251348,16.8067227 C406.346936,16.8067227 405.614093,17.2356303 405.051593,18.0971008 C404.489093,18.9561345 404.210907,20.502395 404.210907,22.7310084 L404.210907,34.4869748 L396.750123,34.4869748 L396.750123,0.692226891 Z" id="Fill-36"></path>
                </g>
                <g id="ETO" transform="translate(41.000000, 41.000000)" fill="#0D47A1">
                    <polygon id="Fill-38" points="42.3333333 123.277311 42.3333333 94.0336134 110.040441 94.0336134 115.862745 94.0336134 115.862745 87.6207143 115.862745 62.7867227 115.862745 59.9159664 110.040441 59.9159664 42.3333333 59.9159664 42.3333333 36.7647059 115.60049 36.7647059 121.990196 36.7647059 121.990196 30.1129832 121.990196 5.17907563 121.990196 1.42857143 115.60049 1.42857143 5.6875 1.42857143 0.666666667 1.42857143 0.666666667 5.17907563 0.666666667 152.569748 0.666666667 159.831933 5.6875 159.831933 118.431373 159.831933 124.441176 159.831933 124.441176 152.569748 124.441176 127.735756 124.441176 123.277311 118.431373 123.277311"></polygon>
                    <polygon id="Fill-40" points="139.492892 1.42857143 134.245343 1.42857143 134.245343 4.80865546 134.245343 29.742563 134.245343 36.7647059 139.492892 36.7647059 177.1375 36.7647059 177.1375 152.199328 177.1375 159.831933 183.478186 159.831933 213.407108 159.831933 220.029657 159.831933 220.029657 152.199328 220.029657 36.7647059 257.294363 36.7647059 264.147304 36.7647059 264.147304 29.742563 264.147304 4.80865546 264.147304 1.42857143 257.294363 1.42857143"></polygon>
                    <path d="M376.251838,79.8247101 C376.251838,94.9229874 372.981005,106.234206 366.526348,113.442777 C360.151348,120.561181 352.191789,124.022903 342.188113,124.022903 C332.18076,124.022903 324.167279,120.525845 317.693015,113.333113 C311.148897,106.064836 307.835172,94.9229874 307.835172,80.2121891 C307.835172,65.2455084 311.053309,54.067105 317.403799,46.9901303 C323.681985,39.9972311 331.788603,36.5964328 342.188113,36.5964328 C352.588848,36.5964328 360.647672,39.9497101 366.825368,46.8426933 C373.077819,53.8209706 376.251838,64.9189538 376.251838,79.8247101 M396.70527,22.1914748 C382.969975,8.07651681 364.527574,0.920340336 341.896446,0.920340336 C329.50674,0.920340336 318.359681,2.96983613 308.75674,7.00912185 C301.387868,10.0675252 294.520221,14.8159706 288.370711,21.109458 C282.287377,27.3286176 277.420956,34.4555504 273.901348,42.2940798 C269.217525,52.8534916 266.851103,65.9315168 266.851103,81.1881975 C266.851103,105.303282 273.74326,124.611433 287.33027,138.577735 C300.967525,152.593996 319.454044,159.700214 342.288603,159.700214 C364.860907,159.700214 383.221201,152.557441 396.862132,138.46929 C410.443015,124.440845 417.33027,104.936517 417.33027,80.5058445 C417.33027,55.8741218 410.389093,36.2540378 396.70527,22.1914748" id="Fill-42"></path>
                </g>
            </g>
        </g>
    </g>
</svg>