<svg xmlns="http://www.w3.org/2000/svg" width="589.727" height="880.732" viewBox="0 0 589.727 880.732">
    <linearGradient id="a" gradientUnits="userSpaceOnUse" x1="294.863" y1="880.732" x2="294.863">
        <stop offset="0" stop-color="#f6ebaf"/>
        <stop offset=".163" stop-color="#ec7831"/>
        <stop offset=".326" stop-color="#b5272e"/>
        <stop offset=".459" stop-color="#8c2325"/>
        <stop offset=".556" stop-color="#73211f"/>
        <stop offset=".67" stop-color="#50201f"/>
        <stop offset=".826" stop-color="#231f20"/>
    </linearGradient>
    <path fill="url(#a)" d="M0 0h589.727v880.732H0z"/>
    <linearGradient id="b" gradientUnits="userSpaceOnUse" x1="251.357" y1="648.953" x2="520.758" y2="648.953">
        <stop offset="0" stop-color="#825c4e"/>
        <stop offset=".116" stop-color="#845f52"/>
        <stop offset=".22" stop-color="#8c695c"/>
        <stop offset=".319" stop-color="#997a6f"/>
        <stop offset=".415" stop-color="#ab9288"/>
        <stop offset=".509" stop-color="#c3b0aa"/>
        <stop offset=".601" stop-color="#dfd5d2"/>
        <stop offset=".687" stop-color="#fff"/>
        <stop offset="1" stop-color="#825c4e"/>
    </linearGradient>
    <path fill="url(#b)" d="M251.361 607.496v46.36c-1.068 35.218 232.586 59.87 269.396 1.759v-48.119H251.361z"/>
    <path fill="#825C4E" d="M520.795 612.604c0 23.429-60.307 42.427-134.701 42.427-74.387 0-134.695-18.998-134.695-42.427 0-23.441 60.309-42.433 134.695-42.433 74.394 0 134.701 18.992 134.701 42.433z"/>
    <radialGradient id="c" cx="-133.076" cy="420.521" r="19.538" gradientTransform="translate(840.982 -721.764) scale(3.1818)" gradientUnits="userSpaceOnUse">
        <stop offset=".168" stop-color="#fff"/>
        <stop offset=".676" stop-color="#d6d7d8"/>
        <stop offset="1" stop-color="#b9bbbd"/>
    </radialGradient>
    <path fill="url(#c)" d="M489.441 611.92c0 18.158-46.738 32.875-104.396 32.875-57.652 0-104.387-14.717-104.387-32.875 0-18.165 46.734-32.881 104.387-32.881 57.658.001 104.396 14.716 104.396 32.881z"/>
    <path opacity=".7" fill="#EAEBEC" stroke="#EAEBEC" stroke-width=".25" d="M289.172 585.248s-5.545 25.411-62.703 29.728c0 0 69.965 3.753 31.176 37.104 0 0 92.822-13.777 93.697 24.118 0 0 34.15-45.478 116.461-12.404 0 0-1.119-46.161 77.061-26.871 0 0-55.166-20.67-7.004-41.339 0 0-52.545 12.404-47.287-10.335-.001-.001-84.063 19.978-201.401-.001z"/>
    <linearGradient id="d" gradientUnits="userSpaceOnUse" x1="312.563" y1="393.966" x2="312.563" y2="348.237" gradientTransform="matrix(.6325 .2465 -.3631 .9317 125.137 21.056)">
        <stop offset="0" stop-color="#a17261"/>
        <stop offset=".122" stop-color="#a37565"/>
        <stop offset=".231" stop-color="#aa7f6f"/>
        <stop offset=".336" stop-color="#b48f82"/>
        <stop offset=".437" stop-color="#c4a69b"/>
        <stop offset=".536" stop-color="#d7c4bd"/>
        <stop offset=".632" stop-color="#efe7e5"/>
        <stop offset=".687" stop-color="#fff"/>
        <stop offset="1" stop-color="#a17261"/>
    </linearGradient>
    <path fill="url(#d)" d="M338.068 477.78L75.535 375.455c-28.916-11.268-43.211 32.231-16.604 42.598l262.537 102.325 16.6-42.598z"/>
    <path opacity=".7" fill="#825C4E" d="M352.781 483.722s-39.318-15.325-87.676-34.171l21.344 57.386 49.732 19.383 16.6-42.598z"/>
    <radialGradient id="e" cx="-134.085" cy="418.613" r="18.278" gradientTransform="translate(840.982 -721.764) scale(3.1818)" gradientUnits="userSpaceOnUse">
        <stop offset=".039" stop-color="#fff"/>
        <stop offset=".208" stop-color="#e3d5d0"/>
        <stop offset=".377" stop-color="#cbb2a8"/>
        <stop offset=".544" stop-color="#b99689"/>
        <stop offset=".706" stop-color="#ac8273"/>
        <stop offset=".861" stop-color="#a47666"/>
        <stop offset="1" stop-color="#a17261"/>
    </radialGradient>
    <path fill="url(#e)" d="M312.576 589.377c-8.75 0-8.75 24.951 0 24.951l-4.369-3.872c0 20.651 148.168 20.651 148.168 0l-3.828 4.307c8.756 0 8.756-24.957 0-24.957"/>
    <radialGradient id="f" cx="-134.334" cy="411.612" r="16.767" gradientTransform="translate(840.982 -721.764) scale(3.1818)" gradientUnits="userSpaceOnUse">
        <stop offset=".039" stop-color="#fff"/>
        <stop offset=".208" stop-color="#e3d5d0"/>
        <stop offset=".377" stop-color="#cbb2a8"/>
        <stop offset=".544" stop-color="#b99689"/>
        <stop offset=".706" stop-color="#ac8273"/>
        <stop offset=".861" stop-color="#a47666"/>
        <stop offset="1" stop-color="#a17261"/>
    </radialGradient>
    <path fill="url(#f)" d="M307.996 569.907c0 9.223 33.385 16.698 74.568 16.698s74.568-7.476 74.568-16.698c0-9.216-33.385-16.692-74.568-16.692s-74.568 7.476-74.568 16.692z"/>
    <radialGradient id="g" cx="-134.335" cy="411.611" r="16.768" gradientTransform="translate(840.982 -721.764) scale(3.1818)" gradientUnits="userSpaceOnUse">
        <stop offset=".039" stop-color="#fff"/>
        <stop offset=".208" stop-color="#e3d5d0"/>
        <stop offset=".377" stop-color="#cbb2a8"/>
        <stop offset=".544" stop-color="#b99689"/>
        <stop offset=".706" stop-color="#ac8273"/>
        <stop offset=".861" stop-color="#a47666"/>
        <stop offset="1" stop-color="#a17261"/>
    </radialGradient>
    <path fill="url(#g)" d="M312.576 565.072c-8.75 0-8.75 24.951 0 24.951l-4.369-3.871c0 20.65 148.168 20.65 148.168 0l-3.828 4.3c8.756 0 8.756-24.944 0-24.944"/>
    <radialGradient id="h" cx="-134.581" cy="402.116" r="14.889" gradientTransform="matrix(3.1818 0 0 3.3373 840.982 -783.536)" gradientUnits="userSpaceOnUse">
        <stop offset=".039" stop-color="#fff"/>
        <stop offset=".208" stop-color="#e3d5d0"/>
        <stop offset=".377" stop-color="#cbb2a8"/>
        <stop offset=".544" stop-color="#b99689"/>
        <stop offset=".706" stop-color="#ac8273"/>
        <stop offset=".861" stop-color="#a47666"/>
        <stop offset="1" stop-color="#a17261"/>
    </radialGradient>
    <path fill="url(#h)" d="M415.967 538.318s53.588-1.512 39.557 0c-14.039 1.512-14.674 23.426-14.674 23.426l.547.045c0 19.256-116.932 19.256-116.932 0l.572-.834s-.635-21.914-14.674-23.426c-14.031-1.512 39.557 0 39.557 0l66.047.789z"/>
    <radialGradient id="i" cx="-134.335" cy="366.111" r="22.759" gradientTransform="translate(840.982 -721.764) scale(3.1818)" gradientUnits="userSpaceOnUse">
        <stop offset=".039" stop-color="#fff"/>
        <stop offset=".208" stop-color="#e3d5d0"/>
        <stop offset=".377" stop-color="#cbb2a8"/>
        <stop offset=".544" stop-color="#b99689"/>
        <stop offset=".706" stop-color="#ac8273"/>
        <stop offset=".861" stop-color="#a47666"/>
        <stop offset="1" stop-color="#a17261"/>
    </radialGradient>
    <path fill="url(#i)" d="M413.992 424.239h28.07s1.174 19.078 17.693 23.789c0 0-5.898 14.598-76.67 14.598l-.117.112c-70.771 0-76.668-14.599-76.668-14.599 16.518-4.71 17.691-23.782 17.691-23.782h28.072l61.929-.118z"/>
    <path fill="#F6EC8F" d="M340.412 496.712h-.547v.192c.186-.062.36-.136.547-.192z"/>
    <linearGradient id="j" gradientUnits="userSpaceOnUse" x1="306.15" y1="499.582" x2="459.719" y2="499.582">
        <stop offset="0" stop-color="#f4db66"/>
        <stop offset=".124" stop-color="#f4dc6a"/>
        <stop offset=".235" stop-color="#f5de74"/>
        <stop offset=".341" stop-color="#f6e387"/>
        <stop offset=".443" stop-color="#f8e9a0"/>
        <stop offset=".544" stop-color="#fbf1c2"/>
        <stop offset=".642" stop-color="#fdfaea"/>
        <stop offset=".687" stop-color="#fff"/>
        <stop offset="1" stop-color="#f4db66"/>
    </linearGradient>
    <path fill="url(#j)" d="M459.719 447.419h-.449c.119.037.219.087.336.118 0 0-5.896 14.604-76.668 14.604l-.119.118c-70.77 0-76.662-14.604-76.662-14.604.23-.062.436-.162.66-.236h-.666v89.489h.553c-.191.062-.365.13-.553.198v.249c1.039 1.777 10.752 14.387 76.551 14.387l.125-.112c70.764 0 76.662-14.604 76.662-14.604-.119-.031-.219-.088-.336-.118h.447v.397c.037-.1.088-.205.119-.305v-89.581z"/>
    <radialGradient id="k" cx="-134.331" cy="356.611" r="15.765" gradientTransform="translate(840.982 -721.764) scale(3.1818)" gradientUnits="userSpaceOnUse">
        <stop offset=".039" stop-color="#fff"/>
        <stop offset=".208" stop-color="#e3d5d0"/>
        <stop offset=".377" stop-color="#cbb2a8"/>
        <stop offset=".544" stop-color="#b99689"/>
        <stop offset=".706" stop-color="#ac8273"/>
        <stop offset=".861" stop-color="#a47666"/>
        <stop offset="1" stop-color="#a17261"/>
    </radialGradient>
    <path fill="url(#k)" d="M453.018 393.731c8.752 0 8.752 24.952 0 24.952l4.369-3.872c0 20.65-148.166 20.65-148.166 0l3.828 4.301c-8.756 0-8.756-24.951 0-24.951"/>
    <radialGradient id="l" cx="-134.331" cy="350.611" r="15.005" gradientTransform="translate(840.982 -721.764) scale(3.1818)" gradientUnits="userSpaceOnUse">
        <stop offset=".039" stop-color="#fff"/>
        <stop offset=".208" stop-color="#e3d5d0"/>
        <stop offset=".377" stop-color="#cbb2a8"/>
        <stop offset=".544" stop-color="#b99689"/>
        <stop offset=".706" stop-color="#ac8273"/>
        <stop offset=".861" stop-color="#a47666"/>
        <stop offset="1" stop-color="#a17261"/>
    </radialGradient>
    <path fill="url(#l)" d="M453.018 369.426c8.752 0 8.752 24.951 0 24.951l4.369-3.871c0 20.65-148.166 20.65-148.166 0l3.828 4.3c-8.756 0-8.756-24.951 0-24.951"/>
    <radialGradient id="m" cx="-131.581" cy="355.111" r="35.945" gradientTransform="translate(840.982 -721.764) scale(3.1818)" gradientUnits="userSpaceOnUse">
        <stop offset=".039" stop-color="#fff"/>
        <stop offset=".208" stop-color="#e3d5d0"/>
        <stop offset=".377" stop-color="#cbb2a8"/>
        <stop offset=".544" stop-color="#b99689"/>
        <stop offset=".706" stop-color="#ac8273"/>
        <stop offset=".861" stop-color="#a47666"/>
        <stop offset="1" stop-color="#a17261"/>
    </radialGradient>
    <path fill="url(#m)" d="M455.213 370.284c0 9.223-32.316 16.692-72.182 16.692-39.861 0-72.182-7.47-72.182-16.692 0-9.216 32.32-16.692 72.182-16.692 39.865-.001 72.182 7.476 72.182 16.692z"/>
    <linearGradient id="n" gradientUnits="userSpaceOnUse" x1="494.047" y1="101.934" x2="113.665" y2="286.639">
        <stop offset="0" stop-color="#a6a8ab"/>
        <stop offset=".159" stop-color="#aaabae"/>
        <stop offset=".3" stop-color="#b4b6b9"/>
        <stop offset=".436" stop-color="#c7c8ca"/>
        <stop offset=".566" stop-color="#e0e1e2"/>
        <stop offset=".687" stop-color="#fff"/>
        <stop offset="1" stop-color="#a6a8ab"/>
    </linearGradient>
    <path opacity=".4" fill="url(#n)" d="M455.23 371.225c4.73 21.428-142.635 27.432-142.635 0 0 0-16.463-266.985-213.955-332.815.001 0 294.415 51.203 356.59 332.815z"/>
    <g>
        <path d="M130.307 805.466c-.549-.86-.705-1.644-.47-2.349.547-1.016.86-1.525.939-1.525.312-.782.566-1.311.763-1.585.195-.273.254-.685.176-1.233.235-.156.411-.391.528-.704.118-.312.254-.547.411-.704.312-.547.488-1.017.528-1.409.039-.391.137-.782.294-1.174.156-.312.293-.547.411-.705.117-.155.253-.312.41-.47a25.28 25.28 0 0 1 .939-1.525c.156-.156.254-.353.294-.588.038-.234.136-.469.293-.704.156-.156.294-.353.411-.587s.215-.47.294-.704c.704-.156 1.192-.294 1.467-.411.273-.117.528-.176.764-.176.234-.078.664-.039 1.291.117.235-.077.547-.098.939-.059.391.04.664.137.822.293.938.235 1.427.334 1.467.294.039-.039.098-.059.177-.059.391.157.723.216.998.176.273-.038.566-.059.88-.059a8.19 8.19 0 0 1 2.759 0c.899.157 1.703.04 2.407-.353a31.53 31.53 0 0 1 1.526.177c.234.04.47.059.704.059 1.096-.077 1.721-.077 1.879 0 .781 0 1.192.02 1.232.059.039.04.098.059.176.059.392 0 .665.059.822.176.156.118.312.099.47-.059.939.235 1.389.451 1.35.646-.04.196.019.334.177.411.234.157.47.294.704.411l.822.411c.155.234.352.451.587.646.234.196.43.411.587.646.077.627.176 1.214.293 1.761.118.549.177 1.136.177 1.762v.821c0 .313-.04.666-.118 1.057 0 .313-.02.607-.059.881-.04.274.059.528.294.763-.235.783-.334 1.233-.294 1.351a.974.974 0 0 1 .059.294c-.078.548-.099.9-.059 1.057.039.157.059.313.059.469v1.409c.078.393.078.862 0 1.409a5.804 5.804 0 0 0 0 1.644c.156.47.215.763.177.881-.04.117-.059.255-.059.41 0 .628.059 1.253.176 1.879.117.627.136 1.291.059 1.996a3.579 3.579 0 0 0-.059 1.115c.039.352.059.725.059 1.115 0 .313-.02.606-.059.88-.04.275-.059.529-.059.764.077.862.117 1.526.117 1.996s.039.821.117 1.057c.235.783.312 1.193.235 1.232-.079.04-.117.138-.117.294.155.704.214 1.214.176 1.526-.04.313-.059.587-.059.821 0 .704-.021 1.232-.059 1.585-.04.353-.099.725-.177 1.115.078.783.098 1.253.059 1.409-.04.157-.059.313-.059.47.078.783.098 1.214.059 1.291a.514.514 0 0 0-.059.235l.118 1.291c.155.939.234 1.449.234 1.526 0 .078.039.157.117.234.312 1.253.312 2.545 0 3.875-.861.783-1.331 1.33-1.408 1.644-.549.156-.979.312-1.292.47-.47-.079-.842-.079-1.115 0a15.89 15.89 0 0 0-.763.234 2.024 2.024 0 0 0-1.175-.117c-.392.077-.783.156-1.174.234h-.998c-.352 0-.606.077-.763.235-.549.077-1.077.136-1.585.176-.51.039-.959.098-1.351.176h-1.291c-.549 0-1.097.019-1.644.06a7.733 7.733 0 0 1-1.644-.06c-.862-.078-1.332-.099-1.409-.059a.824.824 0 0 1-.353.059c-.938-.157-1.487-.313-1.644-.47-.313 0-.568.02-.763.06a2.819 2.819 0 0 1-.528.059c-.393-.158-.687-.217-.881-.177-.196.039-.372-.02-.528-.176-.234.156-.451.194-.646.117-.196-.078-.451-.117-.764-.117-1.018 0-1.761-.099-2.23-.293-.47-.196-.979-.217-1.526-.06-.313-.234-.744-.352-1.291-.352h-1.409c-.313-.157-.744-.255-1.291-.294a6.212 6.212 0 0 1-1.526-.293 19.689 19.689 0 0 0-.764-.235 17.116 17.116 0 0 1-.763-.234c-.862-.077-1.291-.156-1.291-.235-.939-.312-1.526-.587-1.762-.821-.861-.156-1.37-.273-1.526-.353-.392-.234-.646-.43-.763-.587-.117-.156-.372-.194-.763-.117-.158-.392-.411-.626-.764-.705a6.896 6.896 0 0 1-1.115-.352l-1.174-.822c-.705-.47-1.174-.704-1.409-.704-.862-.47-1.37-.841-1.526-1.115a3.133 3.133 0 0 0-.47-.646c-.783-.47-1.291-.841-1.526-1.116-.234-.273-.587-.488-1.057-.646a26.523 26.523 0 0 0-.938-1.057.801.801 0 0 0-.587-.234 1.677 1.677 0 0 0-.411-.646 4.133 4.133 0 0 1-.528-.646c-.549-.547-.9-.898-1.057-1.057a3.765 3.765 0 0 1-.47-.587c-.549-.86-.862-1.291-.939-1.291-.079 0-.157-.077-.234-.235-.47-.704-.725-1.115-.764-1.232-.04-.117-.137-.253-.293-.411-.549-.704-.822-1.134-.822-1.291-.313-.626-.568-1.075-.763-1.351a4.647 4.647 0 0 1-.528-.998c-.47-.625-.725-.998-.764-1.115a3.618 3.618 0 0 0-.176-.41c-.393-.782-.686-1.33-.881-1.645a3.102 3.102 0 0 1-.411-1.057c-.548-.86-.842-1.408-.88-1.644a2.136 2.136 0 0 0-.177-.587l-.352-1.291-.587-1.292c-.079-.781-.158-1.485-.235-2.113-.234-.938-.41-1.526-.528-1.761a1.817 1.817 0 0 1-.176-.822c-.157-.781-.234-1.212-.234-1.291 0-1.174-.06-2.093-.177-2.759a5.196 5.196 0 0 1 .059-2.055c-.078-.939-.099-1.447-.059-1.526a.812.812 0 0 0 .059-.353c0-.155-.04-.352-.117-.587a2.193 2.193 0 0 1-.117-.704c-.079-.547-.04-.978.117-1.292-.157-.625-.176-1.33-.059-2.113.117-.781.294-1.447.528-1.995-.157-.156-.216-.371-.176-.646.038-.273-.021-.567-.177-.881.156-.235.273-.528.353-.881.077-.352.117-.685.117-.998.312-1.251.626-2.151.939-2.7 0-.47.059-.899.176-1.291s.215-.782.294-1.174c.234-.782.391-1.448.47-1.996.312-1.174.587-1.976.821-2.407.235-.43.43-.919.587-1.468.235-.625.47-.957.705-.997.234-.039.234-.137 0-.294l.938-1.409c.156-.312.254-.566.294-.763.039-.194.098-.371.176-.528.47-.626.685-.958.646-.998-.04-.039-.021-.098.059-.176.391-.782.743-1.174 1.057-1.174.234-.548.37-.881.41-.998.039-.118.137-.254.294-.411.391-.626.626-.939.704-.939s.118-.038.118-.117l.938-.939c.705-.86 1.175-1.409 1.409-1.644s.43-.508.587-.822c.626-.547.958-.84.998-.88.039-.039.098-.059.176-.059.782-.705 1.271-1.213 1.468-1.526.194-.312.449-.587.764-.822.938-.547 1.544-.939 1.819-1.174.273-.234.567-.47.881-.704l1.761-.939c.312-.235.567-.371.763-.411.195-.039.294-.176.294-.411.234.158.47.177.704.059.235-.117.43-.253.587-.41a44.565 44.565 0 0 1 1.645-.881c.391-.194.742-.371 1.057-.528l1.174-.587.47-.235c1.095-.469 1.838-.742 2.23-.821.391-.077.704-.235.939-.47.781-.156 1.408-.312 1.878-.47a37.854 37.854 0 0 1 1.526-.353c.704-.234 1.154-.41 1.351-.528.194-.117.41-.214.646-.293.704 0 1.095-.019 1.174-.059a.812.812 0 0 1 .353-.059c.781-.312 1.35-.45 1.702-.411.353.04.723-.019 1.115-.176.47.078.763.099.881.059.117-.039.253-.059.41-.059.705-.078 1.213-.039 1.526.117.86-.077 1.311-.098 1.351-.059.038.04.098.059.176.059.235.078.47.138.705.176.234.04.429.176.587.411.312-.156.566-.215.763-.176.194.04.449.059.764.059.938-.077 1.682-.039 2.23.117 1.251.313 2.073.431 2.465.353l1.409 1.174c.626.627 1.057 1.038 1.291 1.232.235.196.43.451.588.764l.234 1.291c.312.862.488 1.332.528 1.409.039.078.019.196-.059.352.391.549.646 1.233.763 2.055.118.822.371 1.547.764 2.172.156.705.253 1.175.293 1.409.039.234.137.47.294.704.312.393.488.804.528 1.233.039.431.253.842.646 1.232.077 1.018.136 1.644.176 1.879.039.234.02.469-.059.704a1.126 1.126 0 0 1-.47.587 3.861 3.861 0 0 0-.587.47c-.704 0-1.272-.077-1.702-.235-.431-.155-.959-.234-1.585-.234-.704-.312-1.135-.528-1.291-.646a.782.782 0 0 0-.47-.177c-.939 0-1.508.021-1.702.059-.196.041-.373.06-.528.06-.313 0-.587-.039-.822-.118-.234-.077-.51-.077-.821 0-.783-.077-1.312-.077-1.585 0a3.179 3.179 0 0 1-.881.118c-.704-.078-1.155-.06-1.351.059-.196.117-.41.176-.646.176-.47 0-.842.04-1.115.117-.275.079-.489.118-.646.118-.783.078-1.215.157-1.292.234-.078.079-.196.117-.352.117-.235.079-.51.117-.822.117-.313 0-.587.118-.821.353-.862 0-1.685.313-2.466.939-1.019.393-1.84.744-2.466 1.057a3.686 3.686 0 0 1-.88.411 7.6 7.6 0 0 0-.998.41c-.627.47-.998.725-1.115.764-.118.04-.255.099-.411.176-.549.47-.881.686-.998.646-.117-.038-.216.06-.294.294-.704.47-1.097.725-1.174.763-.078.04-.196.021-.353-.059-.234.549-.509.979-.821 1.292-.235.234-.587.51-1.057.821-.627.627-1.018 1.057-1.174 1.292l-1.057 1.057c-.235.783-.334 1.272-.294 1.467a.8.8 0 0 1-.059.528c-.313.549-.528.939-.646 1.175l-.411.821c-.234.393-.47.804-.704 1.233-.235.431-.393.997-.47 1.702-.393.704-.568 1.155-.528 1.35a1.27 1.27 0 0 1-.059.646c-.313.939-.51 1.547-.587 1.82-.079.274-.04.568.117.881-.157.234-.235.45-.235.646s-.04.489-.117.88c-.078.783-.099 1.215-.059 1.292.039.079.019.196-.059.353v1.291c0 .783.019 1.214.059 1.291a.824.824 0 0 1 .059.353c.077.704.156 1.194.235 1.468.077.274.155.607.234.998.077.234.117.51.117.821 0 .313.039.549.118.705.077.313.176.606.293.88.117.275.215.568.294.881.234.939.429 1.684.587 2.23.156.549.312 1.136.47 1.762.47 1.174.802 1.898.998 2.172.194.274.37.606.528.998.312.548.508.842.587.88.077.04.155.099.234.177l.587 1.174c.156.157.273.372.353.646.077.274.194.489.353.646l.821 1.057c.47.627.782 1.019.939 1.174.156.158.352.334.587.528.234.196.43.451.587.764l1.174.704c.547.313.899.528 1.057.646.156.118.273.177.353.177.626.313 1.057.587 1.291.821.235.235.509.47.822.705l1.409.47c.704.392 1.134.568 1.291.527.156-.038.312.021.47.177.391 0 .723.04.998.117.273.079.685.157 1.232.235.312.078.567.099.764.059.194-.039.37-.059.528-.059.704.078 1.192.157 1.467.234.273.079.567 0 .881-.234.156.157.371.234.646.234h.764c.938 0 1.564-.077 1.878-.234.312-.939.547-1.448.705-1.526l-.235-1.526c0-.235-.02-.488-.059-.764a4.692 4.692 0 0 1-.059-.646c0-.391.019-.664.059-.821.039-.156.019-.392-.059-.705l-.117-1.408c-.079-.626-.158-1.037-.235-1.233a1.436 1.436 0 0 1-.117-.528c.234-1.251.353-2.073.353-2.465-.235-.939-.353-1.645-.353-2.113-.079-.547-.157-.939-.234-1.175-.079-.234-.353-.429-.822-.587-.704-.704-1.174-.998-1.409-.88-.234.117-.431.176-.587.176a1.73 1.73 0 0 1-.646-.117 1.751 1.751 0 0 0-.646-.118c-.235 0-.47.06-.705.177a1.563 1.563 0 0 1-.704.176c-.234 0-.51-.059-.821-.176a7.006 7.006 0 0 0-1.057-.294c-.314 0-.607-.038-.881-.117a3.25 3.25 0 0 0-.881-.117c-1.253.234-2.172.313-2.759.234a14.94 14.94 0 0 0-1.938-.117l-.813.461zM198.636 750.991c.547 1.879.625 3.836.234 5.87 0 .627-.078 1.057-.234 1.292 0 .234.039.469.117.704.077.234.117.431.117.587-.157.627-.216.979-.176 1.057a.824.824 0 0 1 .059.353c-.157.392-.216.724-.176.997.038.275.059.607.059.998 0 .393-.04.745-.117 1.057-.079.314-.158.666-.235 1.057a7.162 7.162 0 0 0-.059 1.585c.039.51-.059.998-.294 1.468.078.783.137 1.429.177 1.938.038.51.019.998-.059 1.468a9.614 9.614 0 0 0-.118 1.291c0 .157-.039.353-.117.587-.078.235-.04.47.117.705-.234.861-.352 1.429-.352 1.702 0 .274-.04.646-.117 1.115.077.392.117.939.117 1.644s-.04 1.253-.117 1.644a3.828 3.828 0 0 0-.117.939v.939c-.158 1.018-.197 1.684-.118 1.995.077.313.118.627.118.939 0 .704-.021 1.077-.06 1.115-.04.04-.059.138-.059.294 0 .783-.02 1.272-.059 1.468-.04.195-.059.41-.059.646 0 .234.038.489.117.763.077.275.118.568.118.881-.235 1.644-.235 2.935 0 3.874-.158.939-.177 1.625-.06 2.055.118.431.177.763.177.998 0 .393-.021.704-.059.939-.041.234-.021.548.059.938 0 .862.038 1.488.117 1.879.077.393.117.704.117.939 0 .313-.02.606-.059.88-.04.275.019.569.176.881-.234.393-.274.979-.117 1.761 0 .158.019.373.059.646.039.274.098.489.176.646v1.409c0 .627-.02.959-.059.997-.04.04-.059.138-.059.294-.078.627-.099.979-.059 1.057a.526.526 0 0 1 .059.234c-.157.862-.195 1.312-.117 1.351.077.04.117.099.117.176-.078 1.097-.078 1.762 0 1.996l.353 1.644c.077.313.098.627.059.939-.04.313.019.627.177.939.312.704.978 1.174 1.995 1.408.704.158 1.33.217 1.879.177a4.74 4.74 0 0 1 1.644.176l1.761.353c.704.157 1.134.255 1.292.293.156.04.312.059.469.059.47 0 .803-.019.998-.059a.809.809 0 0 1 .528.059c.626 0 1.213.059 1.762.177.547.117 1.134.02 1.761-.294.312.157.605.157.881 0 .273-.156.566-.234.88-.234.47 0 .841-.019 1.116-.059.273-.039.605-.098.997-.177l1.409-.234c.626-.235 1.096-.332 1.409-.294a.944.944 0 0 0 .821-.293c.077-.86.137-1.839.176-2.936a16.925 16.925 0 0 0-.176-3.17c-.157-.939-.234-1.8-.234-2.583-.079-.704-.1-1.368-.059-1.995.038-.626.019-1.292-.059-1.996 0-.626-.021-1.075-.059-1.351a5.937 5.937 0 0 1-.06-.88 4.3 4.3 0 0 0-.059-.705c-.04-.234-.02-.43.059-.587 0-.86-.04-1.564-.117-2.113a10.72 10.72 0 0 1-.117-1.526c0-.704-.021-1.389-.059-2.055-.04-.664-.099-1.31-.177-1.937 0-.86-.04-1.604-.117-2.231-.157-.234-.196-.547-.117-.938.077-.392.117-.782.117-1.175a206.623 206.623 0 0 1-.352-2.348c-.079-.391-.138-.919-.177-1.585-.04-.664-.02-1.31.059-1.938a2.576 2.576 0 0 1-.352-1.35c0-.509-.04-1.075-.118-1.702-.078-1.096-.157-1.879-.234-2.349a7.814 7.814 0 0 1-.117-1.291c.077-.47.059-.841-.059-1.115-.117-.273-.177-.488-.177-.646-.078-.625-.078-1.036 0-1.232.077-.194.077-.371 0-.528l-.47-2.348c.078-1.174.098-1.897.059-2.172a7.203 7.203 0 0 1-.059-.998c-.078-.705-.059-1.233.059-1.585.118-.353.137-.724.06-1.115 0-.235-.04-.45-.118-.646a5.813 5.813 0 0 1-.234-.763c.234-.391.293-.782.176-1.174-.117-.391-.176-.86-.176-1.409.077-.47.059-.781-.059-.939a.777.777 0 0 1-.176-.47c0-.469.038-.86.117-1.174.077-.312.038-.664-.117-1.057l-.118-1.644c.077-.234.177-.449.294-.646.117-.195.176-.411.176-.646 0-.312-.02-.606-.059-.881-.04-.273-.02-.567.059-.881l.705-1.526c.469-.625.821-.957 1.057-.997.234-.039.429-.137.587-.294.155.157.352.176.587.059.234-.117.47-.215.704-.293.156 0 .353.02.587.059.235.04.47.059.705.059.781.078 1.232.117 1.35.117s.254-.039.411-.117c.312 0 .605.02.88.059.273.04.606.059.998.059.312 0 .646-.019.998-.059.353-.039.646-.019.881.059 1.251.234 2.249.353 2.994.353.742 0 1.35.157 1.819.47.312-.078.567-.156.763-.235.195-.077.411-.156.646-.234.469 0 .802.04.998.117.194.079.37.117.527.117 1.252-.234 2.094-.371 2.524-.411.43-.038.881.021 1.351.177a15.302 15.302 0 0 0-.059 2.289c.038.666.019 1.429-.059 2.289-.079.939-.1 1.429-.059 1.468.038.04.018.176-.059.411-.079.234-.118.528-.118.881 0 .352-.04.646-.117.88-.235.939-.353 1.605-.353 1.996v1.291c-.157.783-.234 1.371-.234 1.762 0 .392.019.704.059.939.039.234.059.509.059.821-.157.704-.216 1.097-.176 1.174.038.079.019.235-.059.47 0 .313-.041.587-.117.822-.079.234-.118.47-.118.704 0 .157.019.353.059.587.039.235.06.47.06.705-.158.627-.235 1.135-.235 1.525 0 .393-.021.725-.059.998-.04.275-.059.568-.059.881 0 .783.019 1.526.059 2.23.038.704.019 1.37-.059 1.996 0 .393-.118.821-.353 1.291.077.313.098.607.059.881-.04.275-.02.528.059.763.156 1.488.177 2.623.059 3.405a6.037 6.037 0 0 0 .059 2.23c0 1.097.039 1.761.118 1.996.077.234.117.51.117.821 0 .783.019 1.233.059 1.351.039.117.098.255.177.411-.079.548-.1.959-.06 1.232.039.275.06.489.06.646.076.47.076.939 0 1.409 0 .704.076 1.37.234 1.996.156.938.234 2.016.234 3.229a44.5 44.5 0 0 1-.117 3.346c-.078.393-.04.979.117 1.761v1.762c.156 1.018.235 1.684.235 1.996 0 .392-.04.803-.118 1.232a6.397 6.397 0 0 0-.117 1.115c.156.862.215 1.508.177 1.938-.04.431-.06.92-.06 1.467 0 .549.039 1.038.118 1.468.077.431.117.842.117 1.233-.079.469-.04.979.117 1.525v1.762c.077.392.118.803.118 1.232 0 .431.038.921.117 1.468 0 1.253.117 2.153.352 2.7.235.548.353 1.174.353 1.878-.079.47-.138 1.077-.176 1.82-.04.744.019 1.429.176 2.055.156.939.235 1.625.235 2.055v1.232c.076.234.155.47.234.704.077.235.117.47.117.705-.549.469-.9.725-1.057.763-.157.04-.313.138-.47.294-.783.234-1.291.41-1.526.528-.234.117-.51.215-.821.293-.627.156-.979.254-1.057.294-.079.038-.196.097-.353.176-.861.156-1.408.215-1.644.176-.235-.04-.47-.02-.704.059-.549.156-1.057.294-1.526.411-.47.118-.939.254-1.409.411a5.802 5.802 0 0 1-1.115.117 5.7 5.7 0 0 0-1.115.117c-1.018.312-1.762.47-2.23.47-.862-.157-1.312-.216-1.351-.176-.04.039-.099.059-.176.059-.47-.157-.725-.333-.763-.528a2.213 2.213 0 0 0-.177-.528c-.393-.783-.606-1.194-.646-1.232-.04-.04-.059-.099-.059-.177-.313-.157-.451-.352-.411-.587a.644.644 0 0 0-.176-.587c-.393-.86-.587-1.33-.587-1.408-.158-.547-.235-1.057-.235-1.526s-.04-.939-.117-1.409c-.939.235-1.409.411-1.409.528s-.078.176-.234.176c-.627.393-.998.646-1.115.764l-.411.411c-.235.157-.666.392-1.292.704-.627.47-.979.686-1.057.646a.831.831 0 0 0-.352-.059c-.627.393-.979.587-1.057.587-.079 0-.158.04-.235.117-.627.313-1.097.49-1.408.528-.313.04-.587.1-.822.177-.548.392-.862.587-.939.587-.078 0-.157.04-.234.117-.548.234-.979.353-1.292.353s-.548.117-.704.352c-.939.078-1.566.137-1.878.177-.314.038-.549.136-.705.293-.157-.078-.372-.078-.646 0a1.703 1.703 0 0 1-.88 0c-.705 0-1.332-.117-1.879-.352l-1.644-.411a2.37 2.37 0 0 1-.47-.177c-.393-.234-.725-.332-.998-.293a1.63 1.63 0 0 1-.764-.059 3.775 3.775 0 0 1-1.115-.411c-.352-.194-.686-.215-.998-.059-.861-.391-1.408-.587-1.643-.587-.235 0-.471-.039-.705-.117-1.174-.47-1.977-.705-2.406-.705-.432 0-.921-.077-1.468-.234-.862-.312-1.312-.488-1.351-.528-.04-.039-.099-.059-.176-.059-.47-.312-.881-.509-1.232-.587a33.03 33.03 0 0 1-.998-.235c-.862-.234-1.312-.391-1.351-.47-.04-.077-.138-.156-.293-.234-.628-.312-1.019-.509-1.175-.587-.938-.547-1.507-.881-1.702-.998a2.669 2.669 0 0 1-.528-.411c-.548-.234-.979-.43-1.291-.587-.783-.86-1.332-1.468-1.644-1.819a3.808 3.808 0 0 1-.705-1.116c0-.625.019-1.036.059-1.232a1.26 1.26 0 0 0-.059-.646c0-1.017-.078-1.761-.234-2.23l.117-1.879a25.316 25.316 0 0 1 .117-4.227v-.704-.587c0-.782.039-1.311.117-1.585a3.67 3.67 0 0 0 .118-.998c0-.939.077-1.721.234-2.349.077-.234.098-.646.059-1.232-.04-.587-.02-1.036.059-1.35.078-1.017.156-1.645.235-1.879.077-.234.117-.47.117-.704 0-.86-.02-1.39-.059-1.585-.04-.195.019-.371.176-.528-.157-.156-.216-.45-.176-.881.039-.43-.021-.802-.176-1.115.155-.86.215-1.468.176-1.82-.04-.352-.099-.605-.176-.763-.079-.547-.1-.919-.06-1.115.039-.195.06-.411.06-.646l-.118-2.583c-.234-1.252-.333-2.132-.293-2.642a7.344 7.344 0 0 0-.059-1.585c0-.391-.021-.764-.059-1.115a9.901 9.901 0 0 1-.06-1.115v-1.526a3.453 3.453 0 0 1-.117-.822c0-.234-.078-.47-.234-.704l.117-2.349c.077-.547.136-1.017.176-1.408.039-.392.059-.782.059-1.174 0-.235-.059-.528-.176-.881s-.176-.685-.176-.998c0-.234.019-.605.059-1.115a5.003 5.003 0 0 0-.059-1.351c0-.312-.04-.587-.117-.821-.079-.235-.118-.547-.118-.939-.157-.391-.176-.821-.059-1.291s.177-.939.177-1.409c-.235-.626-.313-.978-.235-1.057.077-.077.117-.156.117-.234 0-.939-.02-1.663-.059-2.173a3.056 3.056 0 0 0-.411-1.35c0-.86-.02-1.292-.059-1.292-.04 0-.059-.038-.059-.117 0-.939-.02-1.545-.059-1.819a4.624 4.624 0 0 0-.176-.764 8.133 8.133 0 0 1-.117-1.35v-1.233l-.118-1.644a5.229 5.229 0 0 1-.117-.998c0-.273-.078-.528-.234-.763a7.746 7.746 0 0 1 0-2.7c.156-.86.077-1.604-.235-2.23.235-.626.411-1.017.528-1.175.118-.155.254-.312.411-.469.47-.47.782-.822.939-1.057.626 0 1.134-.06 1.526-.177.391-.117.781-.019 1.174.294.939 0 1.447-.019 1.526-.059a.517.517 0 0 1 .234-.059c.86.078 1.369.117 1.526.117.156 0 .312.078.47.234.47-.077.881-.059 1.232.059.353.118.802.177 1.351.177.939-.077 1.702-.077 2.289 0 .587.078 1.115.078 1.585 0 1.096.157 1.8.216 2.113.176.312-.039.626-.098.939-.176.235 0 .488.04.763.117.273.079.529.04.764-.117 1.017.078 1.741.157 2.172.234.43.079.84.079 1.232 0l.832.465zM253.698 750.756a45.444 45.444 0 0 0 2.465-.47c.626-.235.979-.332 1.057-.294.078.04.156.059.235.059.939-.156 1.545-.194 1.819-.117.273.079.528.117.764.117a.871.871 0 0 0 .763.117c.273-.077.528-.155.764-.234.312.079.743.099 1.291.059a19.84 19.84 0 0 1 1.174-.059c1.096 0 1.917-.059 2.466-.176a3.334 3.334 0 0 1 1.644.059c1.096-.156 1.741-.195 1.938-.117.194.078.37.157.528.234.781 0 1.291.117 1.526.353.547-.156.938-.235 1.174-.235.234 0 .47.079.704.235 1.096.157 1.917.313 2.466.47.704.704 1.095 1.331 1.174 1.878.077.549.117 1.136.117 1.761 0 .939-.078 1.488-.234 1.645v1.761c-.079.313-.157.606-.235.881s-.157.568-.234.88c0 .235.039.451.117.646a.93.93 0 0 1 0 .646c0 .627-.059 1.155-.176 1.585a4.707 4.707 0 0 0-.176 1.232c0 .313.018.568.059.763.038.196-.059.49-.294.881 0 .627-.04 1.115-.117 1.468a24.53 24.53 0 0 1-.353 1.35c-.157.628-.216 1.136-.176 1.526.039.393.019.783-.059 1.175-.235.627-.334 1.155-.294 1.584.039.432.019.843-.059 1.233 0 .313-.021.627-.059.939-.04.313-.099.665-.177 1.057-.078.783-.137 1.193-.176 1.232-.04.04-.059.099-.059.176 0 .705.039 1.233.117 1.585.078.353.039.725-.117 1.115.156.783.156 1.409 0 1.879 0 .548-.02 1.038-.059 1.468-.04.431-.059.842-.059 1.232a159.615 159.615 0 0 1-.234 3.874c.077.549.097.96.059 1.233-.041.274.019.489.176.646-.313.861-.431 1.37-.353 1.526a.507.507 0 0 1 0 .47 24.365 24.365 0 0 0-.117 2.113c0 .234-.04.469-.117.704-.079.234-.118.47-.118.704.312 1.879.45 3.347.412 4.403a83.34 83.34 0 0 0-.06 3.229c.077.234.098.51.06.821-.041.313-.06.587-.06.822.077.47.136.92.177 1.35.038.432.059.921.059 1.468-.079.313-.079.587 0 .822.077.234.117.431.117.587-.079.861-.099 1.408-.059 1.644.039.234.098.51.176.821 0 .862.039 1.292.117 1.292-.078.861-.099 1.409-.059 1.644.039.234.059.431.059.587.078.862.098 1.292.059 1.292s-.059.04-.059.117c0 .627.039 1.232.117 1.819s.156 1.155.235 1.702c.077 1.019.117 1.802.117 2.349.077.234.156.489.235.763.077.275.156.528.234.764 0 .313.039.587.117.821.078.235.117.47.117.705v1.525c0 .393.039.764.118 1.116.077.352.156.724.234 1.115.077.392.118.744.118 1.057 0 .313.077.627.234.938 0 1.253.156 2.192.47 2.818-.079 1.018-.059 1.702.059 2.055.117.352.098.686-.059.997-.313.47-.549.804-.704.998a8.738 8.738 0 0 0-.471.646c-.548.077-.861.176-.938.293a.398.398 0 0 1-.353.176c-.47 0-1.018.156-1.644.47-.704-.078-1.115-.099-1.232-.059-.118.039-.217-.02-.294-.176-.548.234-1.018.234-1.408 0a1.529 1.529 0 0 1-1.233.176 4.707 4.707 0 0 0-1.232-.176c-.235 0-.451.039-.646.117-.196.077-.411.156-.646.235-.627-.079-.979-.1-1.057-.059a.831.831 0 0 1-.352.059c-1.019-.158-1.644-.275-1.879-.353a12.692 12.692 0 0 1-.646-.235c-.196-.078-.451-.078-.763 0-.393.078-.862.078-1.409 0a5.804 5.804 0 0 0-1.644 0 52.163 52.163 0 0 0-1.115-.41c-.117-.04-.255-.021-.411.059-.548-.079-.939-.079-1.174 0-.235.077-.431.077-.587 0-.627-.393-.998-.607-1.115-.646-.118-.04-.294-.138-.529-.294-.392-.939-.568-1.585-.527-1.938.038-.352-.021-.723-.177-1.115.156-.234.177-.488.059-.763-.117-.273-.138-.528-.059-.764.235-.86.332-1.33.294-1.408-.04-.077-.021-.195.059-.353.156-.626.215-1.115.176-1.468-.04-.352.019-.685.176-.998.078-.86.156-1.408.235-1.644.077-.234.156-.43.235-.587v-2.348c.076-.86.155-1.389.234-1.585.077-.195.117-.411.117-.646 0-.939-.04-1.545-.117-1.82-.079-.273-.079-.488 0-.646.077-.391.098-.802.059-1.232-.04-.43-.059-.841-.059-1.233 0-.391.039-.763.117-1.115.077-.353.039-.723-.117-1.115.156-.939.253-2.015.293-3.229.039-1.213.02-2.407-.059-3.581 0-.234-.02-.47-.059-.704a4.963 4.963 0 0 1-.059-.822c0-1.017-.02-1.662-.059-1.937a1.06 1.06 0 0 1 .176-.764c-.157-.156-.176-.371-.059-.646.117-.273.098-.488-.059-.646a.637.637 0 0 0 .176-.587 4.193 4.193 0 0 1-.059-.705c0-.155.019-.352.059-.587.039-.234.02-.508-.059-.821-.157-.939-.216-1.526-.176-1.762.039-.234.098-.47.176-.704 0-.47-.02-.781-.059-.939a1.88 1.88 0 0 1-.059-.47v-2.23c-.078-.781-.138-1.192-.176-1.232-.04-.039-.059-.136-.059-.294.077-.547.077-.958 0-1.232a2.755 2.755 0 0 1 0-1.585c.077-.235.117-.47.117-.704 0-.392-.021-.802-.059-1.233-.04-.43-.1-.84-.176-1.232-.079-.704-.1-1.057-.06-1.057.039 0 .06-.077.06-.234-.079-.861-.1-1.409-.06-1.645.039-.234.06-.508.06-.821-.079-.547-.158-.881-.235-.998a.716.716 0 0 1-.117-.411c0-.234.038-.508.117-.821.077-.312.117-.665.117-1.057-.157-.705-.234-1.175-.234-1.409s-.04-.47-.118-.704c0-.626-.02-1.037-.059-1.233a2.63 2.63 0 0 1-.059-.528v-2.465c-.078-.547-.099-.939-.059-1.174a4.3 4.3 0 0 0 .059-.705c-.157-.939-.157-1.644 0-2.113 0-.704-.059-1.33-.176-1.878a7.847 7.847 0 0 1-.176-1.644c0-.312.019-.606.059-.881.038-.273.059-.488.059-.646.156-.939.156-1.762 0-2.466-.158-.704-.275-1.564-.353-2.583-.548-2.113-.704-3.717-.47-4.813.156-.781.254-1.154.294-1.115.038.04.019-.019-.059-.176.155-.939.273-1.486.353-1.645l.243-.467zM289.507 751.46c.859-.312 1.525-.47 1.995-.47.156 0 .411-.039.764-.117.352-.077.646-.156.88-.235.547-.155.979-.077 1.292.235.47-.156.899-.235 1.291-.235.782.079 1.292.099 1.526.059.234-.038.43-.059.587-.059.626 0 1.233.021 1.819.059a5.827 5.827 0 0 0 1.82-.176c.234.235.508.313.822.235a4.364 4.364 0 0 1 1.057-.118c.781 0 1.271-.019 1.467-.059.195-.038.371-.059.528-.059.626.157 1.017.216 1.175.176.156-.038.312-.059.469-.059.547-.077 1.037-.019 1.468.177.43.196.881.333 1.351.41.47.393.781.705.939.939.547.627.821 1.077.821 1.351s.077.489.235.646c-.079.313-.041.607.117.881.156.274.194.606.117.998-.079.704-.099 1.155-.059 1.35.039.196.059.372.059.528 0 .393-.04.804-.117 1.232-.079.432-.04.881.117 1.351a30.733 30.733 0 0 1-.411 2.994c-.196 1.057-.176 1.937.059 2.642-.313.548-.431.861-.352.938.077.079.155.196.234.353a1.608 1.608 0 0 0-.176.939c.038.313.097.666.176 1.057a3.004 3.004 0 0 0-.294 1.057c-.039.393-.059.783-.059 1.174.078.549.039 1.038-.117 1.468-.157.431-.195.92-.117 1.468-.078 1.331-.117 2.642-.117 3.933s-.04 2.485-.117 3.581a7.73 7.73 0 0 1-.235 1.878 9.966 9.966 0 0 0 0 2.172c.077.666.117 1.273.117 1.82v1.526c0 .313-.02.627-.059.938-.04.314-.059.588-.059.822.077.862.117 1.684.117 2.466 0 .783.077 1.566.235 2.348l.117 1.526a1.641 1.641 0 0 0-.059.764c.039.274.059.527.059.763 0 .627.019.979.059 1.057a.824.824 0 0 1 .059.353c0 .234-.02.469-.059.704-.04.234-.059.47-.059.704.077 1.019.234 1.644.47 1.879.077.627.097 1.214.059 1.761a7.54 7.54 0 0 0 .059 1.644c.235.862.332 1.391.294 1.585-.04.196-.059.411-.059.646-.079 1.019-.041 1.919.117 2.701.156.783.234 1.408.234 1.878v1.409l-.117 1.526c.156.783.488 1.214.998 1.291.508.079.881.079 1.115 0l1.761.47c.392.079.724.138.998.176.273.04.606.099.998.177.547-.156.939-.215 1.174-.177.235.04.353-.059.353-.293.391.234.978.333 1.761.293a12.37 12.37 0 0 1 2.113.059h1.468c.273 0 .488-.077.646-.234.626.079 1.39.117 2.29.117.898 0 1.584-.077 2.055-.234.469.157 1.074.216 1.819.176a22.214 22.214 0 0 0 1.937-.176c.471-.077.861-.077 1.175 0 .312.078.508.078.587 0 .781-.235 1.447-.312 1.996-.235.625.313.998.411 1.115.294s.253-.098.41.059c.312.234.509.47.588.704.077.235.194.432.352.587-.078.47-.04.862.117 1.175.156.313.156.665 0 1.057-.234.783-.41 1.214-.527 1.291a.877.877 0 0 0-.294.353c-.235.627-.333 1.018-.294 1.174.039.157-.02.353-.176.587-.393.862-.627 1.351-.704 1.468a3.687 3.687 0 0 0-.235.411c-.392.861-.587 1.408-.587 1.644-.313.548-.47.979-.47 1.291-.627.783-.939 1.253-.939 1.409 0 .157-.039.313-.117.47a6.246 6.246 0 0 1-.234.763 3.621 3.621 0 0 1-.353.646c-.313.47-.489.783-.528.939-.04.157-.099.313-.176.47-.393.548-.587.939-.587 1.174-.393.627-.666 1.019-.822 1.174-.313.548-.548.802-.704.764-.157-.04-.234.019-.234.176-.628.312-1.019.43-1.175.353a1.034 1.034 0 0 0-.47-.117c-.313.155-.821.155-1.525 0-.393 0-.745.038-1.057.117-.314.077-.666.038-1.057-.117-.393-.158-.666-.217-.822-.177a1.94 1.94 0 0 1-.47.059 8.2 8.2 0 0 0-1.057.06c-.313.038-.666-.021-1.057-.177-.234.156-.47.215-.704.177a4.857 4.857 0 0 0-.822-.06h-1.996a42.537 42.537 0 0 1-1.644-.352c-.938.156-1.487.156-1.644 0-1.018-.157-1.84-.157-2.465 0-.47.156-.804.194-.998.117a1.432 1.432 0 0 0-.528-.117c-.393.077-.666.136-.822.176a2.482 2.482 0 0 1-.587.059c-.704-.078-1.135-.117-1.291-.117-.158 0-.235-.04-.235-.117-.548-.079-1.115-.118-1.702-.118h-1.938a2.22 2.22 0 0 0-.704-.117c-.235 0-.47-.078-.704-.234-.783-.391-1.253-.605-1.409-.646a1.942 1.942 0 0 0-.47-.06 4.562 4.562 0 0 1-.704-.587 4.924 4.924 0 0 0-.939-.704c-.393-.391-.666-.743-.821-1.057-.628-.704-.98-1.075-1.057-1.115-.079-.039-.118-.136-.118-.294a6.17 6.17 0 0 0-.763-.646c-.275-.194-.49-.488-.646-.88a1.61 1.61 0 0 1-.704-.646 80.079 80.079 0 0 0-.587-.998c-.783-.625-1.135-.938-1.057-.938-.234-.47-.411-.764-.528-.881l-.411-.411c-.783-.939-1.272-1.662-1.467-2.172-.196-.508-.529-.841-.998-.998 0-.391-.1-.646-.294-.763a2.669 2.669 0 0 1-.528-.411c-.313-.704-.51-1.075-.587-1.115-.079-.039-.117-.136-.117-.294 0-.704.038-1.134.117-1.291.077-.156.117-.353.117-.587-.313-1.174-.431-2.152-.353-2.936-.234-.312-.293-.625-.176-.938.117-.312.019-.548-.293-.705.077-1.095.117-2.113.117-3.053-.079-.704-.117-1.174-.117-1.408 0-.235.019-.45.059-.646.038-.194.059-.41.059-.646v-1.467c0-.509.039-1.037.117-1.585l.234-.705c.078-.234.118-.43.118-.587 0-.781.019-1.232.059-1.35.038-.118.059-.215.059-.294a2.971 2.971 0 0 1-.294-.822 3.686 3.686 0 0 1-.059-.587c0-.234.039-.47.117-.704s.118-.47.118-.704l-.353-1.292v-1.291c.077-.626.098-1.351.059-2.172-.04-.822-.02-1.585.059-2.29.312-1.174.43-1.995.353-2.465a21.648 21.648 0 0 0-.353-1.644c.235-.861.312-1.409.235-1.645a2.19 2.19 0 0 1-.118-.704c.078-.781.098-1.232.06-1.35a1.276 1.276 0 0 1-.06-.411c0-.47-.039-.802-.117-.998a1.723 1.723 0 0 1-.117-.646c.156-.705.254-1.115.294-1.233.038-.117.059-.253.059-.41l-.118-1.409-.117-1.761a17.277 17.277 0 0 1-.117-1.879c-.157-1.486-.157-2.583 0-3.287.156-.704.039-1.291-.352-1.761.155-.705.234-1.213.234-1.526 0-.312.039-.665.117-1.057.077-.939.098-1.448.059-1.526-.04-.077-.059-.195-.059-.353.156-.939.176-1.662.059-2.172a7.039 7.039 0 0 1-.176-1.585c-.079-.781-.099-1.232-.059-1.351.038-.117.059-.253.059-.41-.079-.235-.099-.528-.059-.881.038-.353.059-.723.059-1.115 0-.47-.079-1.017-.234-1.644.076-.704.059-1.311-.06-1.82a7.039 7.039 0 0 1-.176-1.585c-.079-.547-.079-.938 0-1.174a2.63 2.63 0 0 0 .117-.821c-.079-.47-.04-.841.118-1.115.155-.28.155-.574 0-.888zM399.632 750.638c.547.549.821.901.821 1.057 0 .158.038.313.117.47.156.549.215 1.097.177 1.644-.041.549-.1 1.215-.177 1.996a3.277 3.277 0 0 0-.059 1.057c.039.313.019.587-.059.822-.079.234-.177.45-.294.646a7.775 7.775 0 0 0-.293.528c-.079.548-.099.939-.059 1.174.038.235.019.431-.059.587-.235.705-.314 1.194-.235 1.468.077.274.118.568.118.881 0 .938-.1 1.467-.294 1.585-.196.117-.294.255-.294.41.156.393.195.705.117.939a8.016 8.016 0 0 0-.234.939c-.157.862-.293 1.429-.411 1.702a5.76 5.76 0 0 0-.293.881c-.313.548-.528.861-.646.939a.867.867 0 0 0-.294.352c-.783.158-1.292.217-1.526.177a4.288 4.288 0 0 0-.704-.059c-.939 0-1.508-.06-1.702-.177a3.257 3.257 0 0 0-.646-.293.885.885 0 0 0-.763-.118c-.274.079-.568.04-.881-.117-.704-.156-1.272-.215-1.702-.176-.431.04-.881.059-1.35.059-.393 0-.764-.019-1.116-.059a4.228 4.228 0 0 1-1.115-.294c-.234.158-.51.196-.821.118a4.387 4.387 0 0 0-1.057-.118 1.29 1.29 0 0 0-.764 0 1.665 1.665 0 0 1-.881 0c-.157.47-.216.921-.176 1.351.039.431.059.881.059 1.35l-.117 1.292.234 1.526c0 .234.02.47.06.704a4.4 4.4 0 0 1 .059.704c0 .393-.04.822-.118 1.292s-.117.9-.117 1.291l.353 2.113c0 .627-.059 1.194-.176 1.702-.118.51-.099.998.059 1.468-.079.862-.04 1.526.117 1.996 0 .393-.021.744-.059 1.057-.04.313-.021.587.059.821-.157.939-.196 1.566-.117 1.879.077.313.117.549.117.704 0 .235-.04.47-.117.705-.079.234-.118.47-.118.704 0 .783.039 1.272.118 1.468.077.196.038.372-.118.528.156.548.235 1.057.235 1.526s.038.979.117 1.526c.077.627.156.979.235 1.057.077.078.117.157.117.234-.079.47-.04.939.117 1.409v1.526c0 .627-.02 1.252-.059 1.878-.04.627-.02 1.292.059 1.996 0 .393-.02.725-.059.998-.04.274.019.528.176.763 0 .783-.02 1.215-.059 1.292a.804.804 0 0 0-.059.352c.156 1.019.156 2.271 0 3.757l.117 2.231v1.291c0 .549.02 1.077.059 1.585.039.51.059 1.038.059 1.585.078 1.253.156 1.996.235 2.23.077.939.098 1.526.059 1.762-.04.234-.059.431-.059.587.077.392.117.763.117 1.115s.039.686.118.998c.077.938.136 1.508.176 1.702.039.196.059.451.059.763l.117 1.644c.077 1.175.156 1.919.234 2.231.312 1.018.392 1.684.235 1.995 0 .393.038.666.117.822.077.157.156.313.235.47-.158.704-.217 1.135-.177 1.291.039.158.06.353.06.587-.628.548-1.039.841-1.233.881a2.738 2.738 0 0 1-.528.059h-1.879c-.548.077-1.331.077-2.348 0h-2.113c-.783.077-1.214.098-1.291.059a.809.809 0 0 0-.353-.059c-.627 0-1.057.019-1.291.059a4.3 4.3 0 0 1-.705.059c-1.018.078-1.625.137-1.819.177a5.09 5.09 0 0 0-.646.176c-.783 0-1.233.019-1.351.059-.117.039-.293.019-.528-.059-.392-.079-.666-.117-.821-.117h-.47a7.04 7.04 0 0 0-.998.059 7.234 7.234 0 0 1-.998.059c-.862-.079-1.429-.099-1.702-.059-.275.039-.568-.021-.881-.176-.549-.158-.939-.353-1.174-.588-.313-.547-.528-.88-.646-.997a3.638 3.638 0 0 1-.41-.528c.077-.156.077-.353 0-.588a2.573 2.573 0 0 1-.117-.821c0-.391.038-.822.117-1.291.077-.47.117-.939.117-1.409.077-.47.098-.764.059-.881-.04-.117-.02-.253.059-.411-.078-.312-.078-.566 0-.763.078-.194.117-.371.117-.528.078-.47.118-.939.118-1.409s.038-.938.117-1.408c.234-.939.312-1.565.234-1.879a1.913 1.913 0 0 1 0-.939c.156-.781.215-1.192.177-1.232-.04-.039-.059-.098-.059-.176 0-.86.038-1.33.117-1.409.077-.077.117-.156.117-.234 0-.156.019-.392.059-.705.039-.312.059-.664.059-1.057.156-1.095.235-1.761.235-1.995-.079-.782-.099-1.175-.06-1.175s.06-.038.06-.117v-.821c0-.156.038-.312.117-.47 0-.547.019-.881.059-.998.038-.118.059-.254.059-.411-.157-.939-.216-1.506-.176-1.702.038-.195.059-.45.059-.764-.157-1.251-.157-2.19 0-2.817-.079-.47-.099-.781-.059-.939.038-.156.059-.312.059-.47a4.4 4.4 0 0 0-.059-.704c-.04-.234-.021-.547.059-.939 0-.86.019-1.506.059-1.937.038-.43.059-.92.059-1.468-.157-1.096-.255-1.762-.294-1.996s-.02-.47.06-.704c0-1.175.019-1.956.059-2.349.038-.391.059-.781.059-1.174 0-.626-.021-1.192-.059-1.702a8.343 8.343 0 0 1 .059-1.702c0-.312.059-.547.176-.705.118-.156.136-.43.059-.821.077-.235.098-.724.06-1.468a33.023 33.023 0 0 1-.06-1.702 7.65 7.65 0 0 1 .235-.939c.077-.235.077-.587 0-1.057v-.998-.646c.077-1.017.077-1.721 0-2.113-.079-.391-.117-.782-.117-1.174s.018-.724.059-.998c.038-.273.059-.528.059-.764v-1.937c0-.666-.079-1.311-.235-1.938 0-.782.019-1.271.06-1.468.038-.194.018-.488-.06-.88 0-.392-.02-.764-.059-1.116-.04-.352-.059-.763-.059-1.232-.862.157-1.487.235-1.878.235-.393.078-.764.137-1.115.176-.353.04-.725.099-1.116.176-.861.079-1.291.099-1.291.059 0-.038-.04-.059-.117-.059-.628.235-1.019.353-1.175.353-.157 0-.352.04-.586.117-.705.079-1.156.157-1.351.235a1.448 1.448 0 0 1-.528.117 3.612 3.612 0 0 1-1.115.059c-.353-.039-.725.02-1.115.176l-1.292.235c-.704 0-1.115-.019-1.232-.059-.117-.039-.255-.02-.411.059-.861.234-1.35.392-1.468.47a3.69 3.69 0 0 1-.411.234c-.627-.077-.979-.098-1.057-.059a.51.51 0 0 1-.234.059c-.627-.234-.939-.411-.939-.528s-.078-.136-.234-.059a4.628 4.628 0 0 0-.353-.939 4.168 4.168 0 0 1-.353-1.057c-.078-.391-.059-.821.06-1.291.117-.47.214-.939.293-1.409.077-.547.118-.978.118-1.291.076-.705.194-1.213.352-1.526-.078-.782-.117-1.311-.117-1.585 0-.273.039-.528.117-.764.156-.86.353-1.368.587-1.526 0-1.016.039-1.682.118-1.995.234-.626.332-1.075.293-1.351a2.26 2.26 0 0 1 .059-.881c0-.312.039-.587.117-.821.078-.235.117-.547.117-.939.078-.547.137-1.095.177-1.644.038-.547.097-1.017.176-1.409l.47-.47c.156-.155.312-.352.47-.587l1.292-.234c.938 0 1.779.02 2.523.059a68.7 68.7 0 0 1 2.407.176c1.017.235 1.721.334 2.113.294a12.28 12.28 0 0 0 1.174-.176c.47-.078.958-.078 1.468 0 .508.078.919.078 1.232 0 .156 0 .449.02.881.059.43.04.802-.019 1.115-.177.156.079.352.099.587.059a4.4 4.4 0 0 1 .704-.059c.312.079.822.118 1.526.118.547.078 1.036.117 1.468.117.43 0 .802.078 1.115.234.704-.077 1.154-.117 1.35-.117s.371.04.529.117c1.016 0 1.644-.019 1.878-.059a4.41 4.41 0 0 1 .704-.059c.312 0 .782.079 1.409.234 1.174-.155 1.938-.214 2.29-.176.352.04.723.059 1.115.059.234 0 .469-.019.704-.059.234-.038.547-.019.938.059.471.158.764.196.881.117.117-.077.254-.077.411 0 .47 0 1.017.021 1.644.06.626.04 1.174.02 1.644-.06.704 0 1.33-.038 1.879-.117a5.879 5.879 0 0 1 1.644 0c1.174-.077 1.996-.059 2.465.059.471.118 1.018.138 1.645.059l1.291-.234c.156-.077.411-.136.764-.176.352-.039.723-.098 1.115-.177 1.016.079 1.644.059 1.878-.059.235-.117.587-.136 1.057-.059 1.175-.077 2.034-.038 2.583.117.543.156 1.13.156 1.758-.002z"/>
        <path d="M399.514 751.46a9.65 9.65 0 0 1 .881-.235 5.222 5.222 0 0 1 1.115-.117c.313 0 .605.04.88.117.274.079.567.118.881.118.235 0 .47-.019.705-.059.234-.039.508-.098.821-.177.392 0 .822.021 1.292.059.469.04 1.016.021 1.644-.059.86.079 1.368.117 1.526.117.234 0 .469-.019.704-.059a.641.641 0 0 1 .587.177 10.01 10.01 0 0 1 2.172-.235c.743 0 1.506-.077 2.289-.234.782.157 1.486.196 2.113.117 1.175-.234 1.897-.391 2.172-.47.273-.077.567-.077.881 0 .626.235.979.353 1.057.353.077 0 .156.04.235.117.625.627 1.095 1.097 1.408 1.409.235.548.43 1.057.587 1.526.078.313.118.587.118.821 0 .235.077.51.234.822.391 1.174.743 1.957 1.057 2.348.312.393.509.783.587 1.174.077.393.098.764.059 1.115-.04.353-.02.725.059 1.116.312 1.097.488 1.761.529 1.995.038.235.136.51.293.822.234.627.352 1.057.352 1.291.235.47.371.783.412.939.038.157.059.313.059.47.391 1.331.664 2.192.821 2.583.077.313.273.861.587 1.644.156.393.332.763.528 1.115.194.353.411.725.646 1.115.392.705.626 1.174.705 1.409.077.234.194.51.352.821.156.235.294.451.411.646s.254.41.411.646c.156.234.293.47.411.704.117.235.293.431.528.587 0 .393.156.822.469 1.292.782.627 1.233.783 1.351.47.117-.312.332-.548.646-.705.156-.47.371-.939.646-1.408.273-.47.488-.979.646-1.526l.587-1.468c.077-.194.194-.371.352-.528.235-.704.43-1.252.588-1.644.077-.156.176-.371.293-.646.117-.273.294-.45.528-.528.235-.705.332-1.096.294-1.175a.501.501 0 0 1-.059-.234c.547-.626.84-1.057.88-1.291.039-.235.136-.47.294-.705.156-.939.273-1.408.352-1.408s.156-.039.235-.118l.47-1.526c.234-.469.43-.938.587-1.408.235-.391.332-.685.294-.881a1.219 1.219 0 0 1 .059-.646c.547-.86.821-1.389.821-1.585 0-.195.039-.371.118-.528.469-.939.763-1.486.88-1.644.117-.156.215-.312.294-.47.077-.156.156-.353.234-.587l.234-.705c.312-1.095.471-1.682.471-1.761a69.92 69.92 0 0 1 .469-1.526c.391-.547.588-.939.588-1.174.781-.626 1.31-.978 1.584-1.057.273-.077.605-.194.998-.353.939-.155 1.585-.194 1.938-.117a2.65 2.65 0 0 0 1.115 0c.312 0 .587-.019.822-.059a1.45 1.45 0 0 1 .704.059c.782.157 1.271.216 1.468.176.194-.038.371-.059.528-.059.312.079.587.138.821.177.235.04.509.099.822.176 1.8.157 3.717.157 5.753 0 .625 0 1.271-.019 1.937-.059a10.633 10.633 0 0 1 1.938.059c.312 0 .646-.019.998-.059.352-.039.685.059.998.293.156.314.215.646.176.998a9.92 9.92 0 0 0-.059 1.115c-.157.783-.275 1.233-.353 1.351a3.69 3.69 0 0 0-.234.411c-.157.627-.274.998-.353 1.115s-.157.255-.234.411c-.158.47-.432.938-.822 1.408l-.821 1.175a6.16 6.16 0 0 1-.587.938 6.216 6.216 0 0 0-.588.939c-.392.627-.704 1.057-.938 1.292-.393.783-.666 1.252-.822 1.408-.47.627-.744 1.174-.821 1.644l-.705 1.175a63.13 63.13 0 0 0-1.115 1.702 3.201 3.201 0 0 0-.293.646c-.314.862-.568 1.37-.764 1.526a6.261 6.261 0 0 0-.528.47l-.587 1.408-.704 1.292c-.549.704-.843 1.097-.881 1.174a.513.513 0 0 0-.059.234c-.313.705-.489 1.116-.528 1.233a.753.753 0 0 1-.176.293c-.47.705-.745 1.077-.822 1.115a.982.982 0 0 0-.234.177c-.862 1.487-1.645 2.7-2.349 3.64a15.21 15.21 0 0 0-.411.646c-.117.196-.254.411-.41.646-.47.783-.666 1.214-.588 1.292s.039.117-.117.117c-.393.861-.646 1.37-.763 1.526-.118.157-.138.352-.059.587-.393.548-.628.821-.704.821-.079 0-.158.04-.235.117-.157.47-.274.783-.353.939a1.806 1.806 0 0 1-.352.47c-.393.783-.627 1.194-.705 1.233-.078.04-.117.099-.117.176-.47.861-.704 1.35-.704 1.468 0 .117-.079.216-.235.293-.157.627-.352 1.136-.587 1.526-.234.393-.51.783-.821 1.174-.314.939-.51 1.449-.588 1.526-.469.393-.704.646-.704.764 0 .117-.079.255-.234.41-.313.939-.49 1.566-.528 1.879-.04.313.019.666.176 1.057-.157.313-.196.704-.117 1.174.077.47.117.9.117 1.292v2.113c0 .548.019.861.059.938a.824.824 0 0 1 .059.353c0 .234-.02.47-.059.704-.04.235-.02.549.059.939.078.939.078 1.585 0 1.938a5.152 5.152 0 0 0-.117 1.115l.234 1.996c0 .783.02 1.253.06 1.408.038.158.059.313.059.47-.157.783-.235 1.332-.235 1.644 0 .235.02.451.059.646.039.196.02.411-.059.646-.078.234-.099.686-.059 1.35.039.666.059 1.312.059 1.938a30.655 30.655 0 0 0-.176 1.879c-.04.627.019 1.37.176 2.23 0 .627.039 1.097.117 1.408.078.47.177.921.294 1.351.117.431.177.959.177 1.585.076.393.097.704.059.939-.041.234-.059.51-.059.821.076.47.176.939.293 1.409s.254.9.411 1.291c.47 1.488.508 2.74.117 3.757a2.72 2.72 0 0 1-.528.411 2.669 2.669 0 0 0-.528.411c-.704.234-1.155.353-1.351.353s-.372.038-.527.117c-.939-.079-1.547-.079-1.82 0a3.734 3.734 0 0 1-.998.117c-.313 0-.607-.04-.881-.117a3.167 3.167 0 0 0-.88-.117c-.862 0-1.351-.04-1.468-.118s-.255-.117-.411-.117c-.548 0-1.097.019-1.644.059-.549.039-1.057.059-1.526.059-.627-.078-.979-.078-1.057 0-.079.078-.157.118-.234.118-.079 0-.411-.021-.998-.059-.587-.041-.921-.1-.998-.177-.627-.157-1.057-.196-1.292-.117-.234.077-.469.039-.704-.117-.392.077-.842.156-1.35.234-.51.077-1.077.039-1.702-.117-.783-.235-1.194-.431-1.233-.587-.04-.156-.138-.235-.293-.235.155-.625.234-.978.234-1.057 0-.077.039-.194.117-.352.235-.782.371-1.213.411-1.292a.937.937 0 0 1 .176-.234c0-.47.039-.764.118-.881.077-.117.117-.293.117-.528.077-.234.097-.449.059-.646-.04-.194.019-.411.176-.646.156-.626.195-1.096.118-1.409a3.817 3.817 0 0 1-.118-.939c0-.156.019-.352.06-.587a4.4 4.4 0 0 0 .059-.704c-.079-1.017-.1-1.683-.059-1.996a8.78 8.78 0 0 0 .059-1.057c.077-.391.117-.781.117-1.174 0-.391.038-.782.117-1.174 0-.235.019-.724.059-1.468.039-.743-.02-1.389-.176-1.938.156-.391.156-.763 0-1.115-.158-.353-.235-.646-.235-.88.077-.548.098-.861.06-.939-.041-.077-.06-.195-.06-.353 0-.939.019-1.506.06-1.702.038-.195.059-.371.059-.528.312-.782.429-1.311.352-1.585-.078-.273 0-.567.234-.881-.078-.86-.098-1.428-.059-1.702.039-.273.059-.605.059-.998v-1.996c0-.938.02-1.485.06-1.644.038-.156.059-.312.059-.47 0-.234-.021-.449-.059-.646a3.219 3.219 0 0 1-.06-.646 2.291 2.291 0 0 1-.059-.881c.039-.273.059-.528.059-.763v-1.879c-.312-.781-.509-1.192-.586-1.232a.89.89 0 0 1-.235-.176l-.704-1.175c-.313-.47-.49-.802-.528-.997a1.044 1.044 0 0 0-.294-.529c-.47-1.095-.9-1.917-1.291-2.465l-.47-1.292c-.157-.155-.294-.429-.411-.821a3.35 3.35 0 0 0-.528-1.057c-.47-.626-.704-1.017-.704-1.174a43.496 43.496 0 0 1-.822-1.057l-.821-1.175a9.137 9.137 0 0 0-.47-1.174c-.158-.312-.313-.626-.47-.939a26.052 26.052 0 0 1-.763-1.644c-.197-.47-.373-.821-.529-1.057-.627-.547-.938-.86-.938-.938-.157-.392-.255-.685-.294-.881a1.047 1.047 0 0 0-.293-.528c-.158-.86-.275-1.311-.353-1.351-.079-.038-.117-.136-.117-.293a3.623 3.623 0 0 1-.47-1.292c-.393-.781-.587-1.212-.587-1.291 0-.077-.04-.156-.118-.235l-.704-1.174c-.548-.781-.9-1.291-1.057-1.526-.313-.704-.51-1.095-.587-1.174-.627-.391-.939-.781-.939-1.174-.704-1.565-1.291-2.583-1.761-3.053-.235-.781-.372-1.192-.411-1.232-.04-.039-.059-.098-.059-.176a4.591 4.591 0 0 0-.646-1.116 9.56 9.56 0 0 0-.763-.88 5.196 5.196 0 0 1-.939-.939 2.356 2.356 0 0 0-.822-.704c-.549-.86-.842-1.311-.881-1.351-.04-.039-.137-.215-.293-.528l-.881-1.761a2.217 2.217 0 0 0-.41-.587c-.471-.782-.744-1.213-.822-1.292-.47-.47-.782-.939-.939-1.408-.391-.547-.605-.979-.646-1.292a6.815 6.815 0 0 1-.059-.587c.157-.626.392-1.017.704-1.174l.578-.463zM469.252 752.165c.156-.156.411-.273.763-.352.353-.078.685-.118.998-.118h1.762c.704.079 1.074.099 1.115.059.038-.038.136-.059.293-.059.312 0 .587.021.822.059.234.04.508.06.821.06.704 0 1.096.02 1.175.059.077.04.194.059.352.059l1.409-.117c.234 0 .488-.02.763-.06.273-.038.528-.059.764-.059.234 0 .469.021.704.059.235.04.47.06.704.06l1.292.117c.781 0 1.526-.059 2.23-.177a12.874 12.874 0 0 1 2.113-.176c.391.079.704.099.939.059.234-.038.429-.019.587.059.704.313 1.115.528 1.232.646.117.117.215.176.294.176a52.1 52.1 0 0 1 .293 2.113c.039.393-.02.821-.176 1.291v5.518c.077.627.077 1.115 0 1.467a4.582 4.582 0 0 0-.117.998c0 .158-.021.353-.059.588-.04.234-.021.548.059.938 0 .158.019.353.059.587.038.235.059.47.059.705-.079.939-.099 1.546-.059 1.819.038.275.059.528.059.764 0 .392-.021.842-.059 1.35-.04.51-.059 1.077-.059 1.702a10.115 10.115 0 0 0-.118 1.409c0 .862.02 1.291.06 1.291.038 0 .059.04.059.118a49.17 49.17 0 0 0-.118 3.521c0 1.253-.078 2.427-.234 3.522a31.028 31.028 0 0 1-.47 4.109c0 .47.019.998.059 1.585a9.563 9.563 0 0 1-.059 1.819 16.63 16.63 0 0 0-.117 1.82v1.35l-.117 2.7c0 .705-.04 1.077-.118 1.115-.078.04-.117.138-.117.294.078.47.098.763.059.881a1.303 1.303 0 0 0-.059.41c.078.862.117 1.468.117 1.82a5.7 5.7 0 0 1-.117 1.115v.881c0 .274.078.606.235.997-.157.393-.196.764-.118 1.116.078.352.118.686.118.997 0 .939.077 1.645.234 2.113 0 .628-.04 1.253-.117 1.879-.079.627-.157 1.291-.235 1.996 0 .392-.02.725-.059.998a6.257 6.257 0 0 0-.059.88c-.157.705-.216 1.115-.176 1.233.039.117.019.255-.059.41-.313.628-.549 1.038-.705 1.233-.157.196-.469.372-.938.528h-1.409c-.704 0-1.174.02-1.408.059-.235.04-.471.059-.705.059-.47 0-.939-.019-1.408-.059a11.452 11.452 0 0 1-1.292-.176c-.783-.078-1.39-.078-1.819 0a7.582 7.582 0 0 1-1.351.117c-.704 0-1.136.02-1.292.059a.653.653 0 0 1-.469-.059c-.158 0-.627-.077-1.409-.235l-1.291-.587c-.628-.939-1.057-1.486-1.292-1.644-.157-1.251-.196-2.132-.117-2.642.077-.508.039-1.075-.117-1.702.234-.626.352-.998.352-1.115s.039-.215.118-.294a5.184 5.184 0 0 1-.177-.646 5.983 5.983 0 0 0-.176-.646c.077-.939.077-1.545 0-1.82a2.468 2.468 0 0 1-.117-.646c-.158-.626-.217-1.134-.176-1.526.038-.391.059-.781.059-1.174 0-.312-.079-.781-.235-1.409-.234-1.644-.274-3.052-.117-4.227 0-.938.019-1.408.059-1.408.038 0 .059-.039.059-.118-.157-.625-.216-.957-.176-.997.038-.039.059-.137.059-.294l-.117-1.761c0-.47-.04-.881-.118-1.233a4.216 4.216 0 0 1-.117-.88c.156-.939.215-1.428.176-1.468-.039-.039-.059-.136-.059-.294.078-.781.039-1.485-.117-2.113.077-.312.077-.566 0-.763-.078-.194-.04-.371.117-.528v-1.879c.078-.704.039-1.212-.117-1.525 0-1.017-.04-1.645-.117-1.879a10.177 10.177 0 0 1-.234-.822 3.862 3.862 0 0 1-.059-1.174 4.001 4.001 0 0 0-.06-1.174v-1.526a1.707 1.707 0 0 0 0-.881 3.189 3.189 0 0 1-.117-.88l.117-1.292-.117-2.465a4.919 4.919 0 0 1-.059-1.351 5.036 5.036 0 0 0-.059-1.35c.077-.312.077-.587 0-.822a4.783 4.783 0 0 0-.235-.587c0-.234.02-.47.059-.704.039-.235.02-.43-.059-.587-.157-.861-.216-1.39-.176-1.586a.8.8 0 0 0-.059-.527l-.353-1.409c-.078-.782-.196-1.409-.352-1.879a58.003 58.003 0 0 1-.118-3.346 12.75 12.75 0 0 1 .234-2.519zm19.489 74.199c.312.705.587 1.175.821 1.409.156.549.215.862.177.939-.041.078-.021.196.059.352.077.783.156 1.253.234 1.409v2.113l-.47.704c-.157.235-.157.51 0 .822-.47.704-.665 1.174-.587 1.409-.234.157-.372.352-.411.587-.04.234-.138.431-.293.587-.704.627-1.057.9-1.057.821-.47.47-.745.705-.822.705-.079 0-.117.077-.117.234a2.788 2.788 0 0 0-.763.294 3.257 3.257 0 0 1-.646.293l-1.408.705c-.862 0-1.371.019-1.526.059a2.536 2.536 0 0 1-.587.059c-.235.077-.51.098-.822.059a7.41 7.41 0 0 0-.939-.059 18.215 18.215 0 0 1-1.232-.294 11.258 11.258 0 0 1-1.232-.411c-.313-.078-.588-.176-.822-.293s-.51-.176-.822-.176a2.008 2.008 0 0 0-.645-.411 2.025 2.025 0 0 1-.646-.411 8.659 8.659 0 0 1-.646-.47 2.016 2.016 0 0 0-.763-.353c-.47-.625-.804-1.095-.998-1.408-.196-.312-.411-.547-.646-.704 0-.235-.078-.45-.234-.646a2.036 2.036 0 0 1-.353-.646v-1.291l.235-1.762c.077-.234.156-.488.234-.763.077-.273.156-.528.235-.764.155-.312.234-.587.234-.821 0-.235.039-.43.117-.587.392-.47.705-.822.939-1.057.704-.547 1.134-.86 1.292-.939.781-.547 1.212-.86 1.291-.939.86-.391 1.447-.704 1.761-.938.86-.392 1.448-.588 1.761-.588h1.057c.392-.077.939-.117 1.645-.117h.763c.273 0 .488.04.646.117.626.235.979.334 1.057.294.078-.039.195-.019.353.059a55.04 55.04 0 0 1 1.644.704c.391.393.664.587.822.587.156 0 .312.04.469.118.392.548.724.88.998.998.27.118.485.255.643.411z"/>
    </g>
</svg>
